# This file uses centimeters as units for non-parametric coordinates.

v -0.001200 -0.107864 -0.012204
v -0.004359 0.105420 -0.016729
v -0.008491 0.105666 -0.012267
v -0.007206 -0.064303 -0.015021
v -0.007065 -0.059403 -0.014884
v -0.000000 -0.059486 -0.017162
v -0.000000 0.105376 -0.017937
v -0.000200 -0.110180 -0.012023
v -0.005281 -0.063908 -0.016164
v 0.008492 0.105664 -0.012268
v 0.004357 0.105424 -0.016725
v 0.007027 -0.059424 -0.014874
v 0.007074 -0.064296 -0.014945
v 0.005341 -0.063911 -0.016299
v 0.000873 -0.107750 -0.011901
v 0.000101 -0.110364 -0.011822
v -0.008494 0.105662 0.012269
v -0.004358 0.105422 0.016727
v -0.006904 -0.059409 0.014843
v -0.006941 -0.064289 0.014868
v -0.005351 -0.063911 0.016321
v -0.001212 -0.107209 0.011899
v -0.000191 -0.110294 0.007159
v -0.000000 0.105373 0.017940
v -0.000000 -0.059495 0.017301
v 0.008491 0.105666 0.012267
v 0.007060 -0.059421 0.014888
v 0.004358 0.105423 0.016727
v 0.007268 -0.064306 0.015056
v 0.005329 -0.063910 0.016272
v 0.001046 -0.107607 0.011992
v 0.000307 -0.110289 0.007150
v 0.000852 0.110200 -0.015285
v 0.000846 0.109978 0.015255
v -0.005308 0.107124 -0.018397
v -0.005339 0.108759 -0.018449
v -0.000000 0.108911 -0.020087
v -0.000000 0.106912 -0.020143
v -0.010277 0.107182 -0.012995
v -0.010413 0.108751 -0.013055
v -0.011153 0.108925 -0.005889
v -0.011399 0.106752 -0.005896
v 0.010007 0.107368 -0.012878
v 0.005250 0.107197 -0.018300
v 0.005189 0.108545 -0.018196
v 0.010037 0.108460 -0.012893
v 0.011397 0.106754 -0.005896
v 0.010767 0.108608 -0.005878
v -0.010448 0.107064 0.013068
v -0.005358 0.107060 0.018481
v -0.005236 0.108612 0.018276
v -0.010378 0.108724 0.013039
v -0.011368 0.106775 0.005895
v -0.011130 0.108907 0.005888
v -0.000000 0.107148 0.019784
v -0.000000 0.108656 0.019741
v 0.010465 0.107052 0.013076
v 0.010175 0.108566 0.012952
v 0.005371 0.108804 0.018501
v 0.005388 0.107022 0.018531
v 0.011365 0.106777 0.005895
v 0.010721 0.108571 0.005877
v 0.005457 0.107971 0.018650
v -0.000000 0.107971 0.020128
v -0.005388 0.107971 0.018534
v -0.010490 0.107971 0.013086
v -0.011608 0.107971 0.005899
v -0.011727 0.107971 -0.005903
v -0.010486 0.107971 -0.013084
v -0.005462 0.107971 -0.018658
v -0.000000 0.107971 -0.020268
v 0.005261 0.107971 -0.018321
v 0.010242 0.107971 -0.012979
v 0.011361 0.107971 -0.005892
v 0.011259 0.107971 0.005889
v 0.010424 0.107971 0.013057
v -0.007956 0.081754 -0.012080
v -0.008060 0.081757 0.012128
v -0.000000 0.081612 0.017583
v 0.008078 0.081749 0.012123
v 0.008059 0.081749 -0.012116
v 0.000000 0.081618 -0.017475
v 0.000002 0.011065 -0.017559
v 0.007531 0.011163 -0.013489
v 0.007448 0.011165 0.013443
v 0.000000 0.011058 0.017555
v -0.007313 0.011174 0.013399
v -0.007406 0.011176 -0.013430
vt 0.350711 0.999501
vt 0.296873 0.999501
vt 0.346080 0.892677
vt 0.301208 0.221408
vt 0.302076 0.243748
vt 0.280665 0.223869
vt 0.574864 0.891596
vt 0.572874 0.999501
vt 0.578694 0.241136
vt 0.010425 0.691630
vt 0.494375 0.006007
vt 0.138000 0.475101
vt 0.320449 0.011214
vt 0.991930 0.004210
vt 0.254916 0.892752
vt 0.256638 0.999501
vt 0.319451 0.022747
vt 0.538463 0.022376
vt 0.216552 0.999501
vt 0.163333 0.999501
vt 0.991930 0.888997
vt 0.991930 0.219542
vt 0.183275 0.224687
vt 0.163333 0.244983
vt 0.760780 0.890550
vt 0.765156 0.999501
vt 0.717992 0.216874
vt 0.717558 0.240009
vt 0.767623 0.018514
vt 0.991930 0.016643
vt 0.232578 0.244221
vt 0.627656 0.999501
vt 0.597128 0.220883
vt 0.696143 0.219582
vt 0.667622 0.890563
vt 0.668813 0.999501
vt 0.647462 0.240362
vt 0.710044 0.999501
vt 0.203362 0.019651
vt 0.199128 0.023731
vt 0.144998 0.020000
vt 0.145149 0.014990
vt 0.257077 0.046715
vt 0.249321 0.048541
vt 0.247915 0.140801
vt 0.248469 0.083050
vt 0.260206 0.081035
vt 0.259316 0.142830
vt 0.034161 0.047191
vt 0.087473 0.020344
vt 0.090656 0.023913
vt 0.040460 0.048751
vt 0.030081 0.081407
vt 0.041375 0.083196
vt 0.257094 0.177120
vt 0.202170 0.203194
vt 0.197277 0.199385
vt 0.248503 0.175074
vt 0.144410 0.210131
vt 0.144430 0.205644
vt 0.032099 0.177181
vt 0.040765 0.175145
vt 0.091004 0.199916
vt 0.085906 0.203893
vt 0.031226 0.142868
vt 0.042398 0.140893
vt 0.135564 0.044200
vt 0.045737 0.049974
vt 0.093617 0.026683
vt 0.144868 0.024775
vt 0.049892 0.083970
vt 0.137021 0.180119
vt 0.241007 0.173266
vt 0.193769 0.196123
vt 0.237694 0.139754
vt 0.144524 0.201639
vt 0.195108 0.027510
vt 0.145062 0.003035
vt 0.211659 0.010472
vt 0.241625 0.050411
vt 0.280695 0.041269
vt 0.010910 0.041945
vt 0.079075 0.011191
vt 0.577703 0.564937
vt 0.324268 0.566866
vt 0.657218 0.563811
vt 0.737662 0.563635
vt 0.991930 0.561656
vt 0.244140 0.567058
vt 0.281198 0.182785
vt 0.210663 0.213334
vt 0.144395 0.220111
vt 0.095250 0.196046
vt 0.047161 0.173633
vt 0.077737 0.213972
vt 0.008090 0.182750
vt 0.237629 0.084102
vt 0.050484 0.140071
vt 0.163333 0.568152
vt 0.991930 0.240449
vt 0.163333 0.893948
vt 0.142440 0.452556
vt 0.145870 0.440216
vt 0.163333 0.222385
vt 0.991930 0.999501
vt 0.812946 0.005561
vt 0.322177 0.009585
vt 0.147402 0.500513
vt 0.126347 0.500690
vt 0.494588 0.008265
vt 0.126883 0.442038
vt 0.139001 0.451877
vt 0.142540 0.475163
vt 0.030841 0.245987
vt 0.127579 0.238869
vt 0.146821 0.237452
vt 0.010515 0.247483
vt 0.126316 0.700461
vt 0.146626 0.702009
vt 0.029653 0.693096
vt 0.576941 0.218645
vn -0.976157 -0.011269 -0.216772
vn -0.556750 -0.033174 -0.830017
vn -0.003032 -0.005428 -0.999981
vn -0.993118 -0.117075 0.003157
vn -0.976360 -0.001078 -0.216147
vn -0.235312 0.000551 -0.971920
vn -0.996778 -0.020963 -0.077424
vn -0.976381 -0.011546 0.215746
vn -0.997084 -0.020482 0.073517
vn -0.975509 -0.000763 0.219960
vn -0.993107 -0.116858 0.009101
vn 0.939025 -0.343776 -0.007077
vn -0.911657 -0.410931 0.004193
vn -0.910717 -0.413010 0.004187
vn 0.903311 -0.428929 -0.006938
vn -0.487813 -0.123154 -0.864217
vn -0.060825 -0.100714 -0.993054
vn 0.012728 -0.094656 -0.995429
vn -0.990352 -0.138431 0.006285
vn -0.989408 -0.145030 0.006231
vn 0.554918 -0.030995 -0.831327
vn 0.996955 -0.018160 -0.075832
vn 0.975815 -0.009973 -0.218371
vn 0.992424 -0.122532 -0.009018
vn 0.243962 0.014306 -0.969679
vn 0.975418 -0.001474 -0.220356
vn 0.975764 -0.010202 0.218589
vn 0.997010 -0.018067 0.075137
vn 0.992448 -0.122637 -0.002832
vn 0.975481 -0.001139 0.220082
vn 0.989602 -0.143692 -0.006387
vn 0.989042 -0.147494 -0.006411
vn 0.099358 -0.103754 -0.989628
vn 0.018381 -0.094758 -0.995331
vn 0.590189 -0.139922 -0.795046
vn -0.001532 0.002930 -0.999995
vn 0.206323 -0.041791 -0.977591
vn 0.206323 -0.041791 -0.977591
vn -0.556572 -0.029013 0.830293
vn -0.001145 -0.006660 0.999977
vn 0.000047 -0.015030 0.999887
vn -0.268364 0.008628 0.963279
vn 0.070959 -0.106445 0.991783
vn -0.097121 -0.107919 0.989404
vn -0.011995 -0.115368 0.993250
vn -0.006918 -0.120946 0.992635
vn -0.650106 -0.138461 0.747122
vn -0.002661 0.003787 0.999989
vn 0.556699 -0.028757 0.830216
vn 0.245347 0.005663 0.969419
vn 0.506983 -0.133112 0.851616
vn -0.137292 -0.850475 0.507783
vn -0.137292 -0.850475 0.507783
vn -0.441194 -0.632105 -0.637017
vn -0.551373 -0.033922 -0.833569
vn 0.009151 0.023229 -0.999688
vn 0.009179 -0.621119 -0.783663
vn -0.708594 -0.596679 -0.376654
vn -0.909613 -0.009933 -0.415337
vn -0.993606 0.100151 0.052118
vn -0.995471 0.081183 -0.049464
vn -0.505790 -0.862575 -0.011883
vn -0.510911 -0.859535 0.013022
vn 0.755933 -0.512898 -0.406819
vn 0.471924 -0.586186 -0.658539
vn 0.551770 0.040419 -0.833016
vn 0.904585 0.128850 -0.406355
vn 0.521874 -0.852938 -0.012039
vn 0.957727 0.283780 -0.047205
vn -0.725302 -0.574303 0.379622
vn -0.430908 -0.615021 0.660355
vn -0.551681 0.085827 0.829627
vn -0.907168 0.088634 0.411327
vn -0.004458 -0.614245 0.789103
vn -0.002748 0.051827 0.998652
vn 0.745601 -0.548194 0.378897
vn 0.895810 0.186773 0.403287
vn 0.551890 0.068176 0.831126
vn 0.428198 -0.622216 0.655358
vn 0.533181 -0.845919 0.011792
vn 0.950622 0.307587 0.041328
vn 0.278792 0.951244 -0.131943
vn 0.259466 0.941218 -0.216300
vn 0.014579 0.999434 -0.030302
vn 0.181922 0.983310 -0.002619
vn 0.006217 0.846388 -0.532531
vn -0.215517 0.968852 0.121978
vn -0.174626 0.968198 0.179162
vn 0.009934 0.999392 0.033414
vn -0.139983 0.990054 0.014078
vn -0.023577 0.860706 0.508556
vn -0.200236 0.960948 -0.191010
vn 0.007945 -0.785131 -0.619279
vn -0.373315 -0.771221 -0.515611
vn -0.233795 0.964838 -0.120117
vn -0.141724 0.989900 -0.003493
vn -0.478488 -0.848163 -0.227310
vn 0.525437 -0.812357 -0.252968
vn 0.413744 -0.729632 -0.544475
vn -0.448602 -0.868879 0.209295
vn -0.339003 -0.781350 0.523993
vn -0.004033 -0.752266 0.658848
vn 0.213202 0.959581 0.183709
vn 0.247314 0.964480 0.092814
vn 0.179175 0.983760 0.010589
vn 0.330926 -0.791881 0.513237
vn 0.443147 -0.873131 0.203131
vn -0.972180 -0.004569 0.234191
vn -0.972506 -0.004365 -0.232838
vn -0.002098 0.006531 0.999977
vn 0.971695 -0.004488 0.236195
vn 0.971777 -0.004486 -0.235858
vn -0.002310 0.006941 -0.999973
vn 0.000515 -0.019449 -0.999811
s 1
g Chisel_LOD0
f 77/3/1 2/2/2 82/15/3
f 4/4/4 5/5/5 9/6/6
f 3/1/7 77/3/1 78/7/8 17/8/9
f 19/9/10 5/5/5 4/4/4 20/121/11
f 32/11/12 23/110/13 8/13/14 16/107/15
s 4
f 4/117/16 9/114/17 1/111/18
s 1
f 22/18/19 20/121/11 4/4/4 1/17/20
f 11/19/21 10/20/22 81/101/23
f 13/104/24 14/23/25 12/24/26
f 80/25/27 81/21/23 10/105/22 26/26/28
f 29/27/29 13/22/24 12/100/26 27/28/30
f 29/27/29 31/29/31 15/30/32 13/22/24
s 4
f 14/115/33 15/103/34 1/111/18 9/114/17
f 15/103/34 14/115/33 13/116/35
s 1
f 6/31/36 14/23/25 9/6/6
s 4
f 1/111/18 15/103/34 16/102/37 8/112/38
s 1
f 23/110/13 22/18/19 1/17/20 8/13/14
f 16/14/15 15/30/32 31/29/31 32/106/12
f 18/32/39 79/35/40 24/36/41
f 20/121/11 21/33/42 19/9/10
s 8
f 30/118/43 21/120/44 22/109/45 31/108/46
f 22/109/45 21/120/44 20/10/47
s 1
f 25/37/48 19/9/10 21/33/42
f 79/35/40 28/38/49 24/36/41
f 29/27/29 27/28/30 30/34/50
s 8
f 29/119/51 30/118/43 31/108/46
f 31/108/46 22/109/45 23/12/52 32/113/53
s 9
f 35/39/54 70/40/55 71/41/56 38/42/57
f 39/43/58 69/44/59 70/40/55 35/39/54
f 67/45/60 68/46/61 42/47/62 53/48/63
f 43/49/64 44/50/65 72/51/66 73/52/67
f 44/50/65 38/42/57 71/41/56 72/51/66
f 47/53/68 43/49/64 73/52/67 74/54/69
f 42/47/62 68/46/61 69/44/59 39/43/58
f 49/55/70 50/56/71 65/57/72 66/58/73
f 53/48/63 49/55/70 66/58/73 67/45/60
f 50/56/71 55/59/74 64/60/75 65/57/72
f 57/61/76 76/62/77 63/63/78 60/64/79
f 61/65/80 75/66/81 76/62/77 57/61/76
f 60/64/79 63/63/78 64/60/75 55/59/74
f 74/54/69 75/66/81 61/65/80 47/53/68
f 46/68/82 45/69/83 33/67/84 48/71/85
f 33/67/84 45/69/83 37/70/86
f 52/73/87 51/74/88 34/72/89 54/75/90
f 34/72/89 51/74/88 56/76/91
f 33/67/84 37/70/86 36/77/92
f 7/78/93 2/79/94 35/39/54 38/42/57
f 33/67/84 36/77/92 40/80/95 41/97/96
f 2/79/94 3/81/97 39/43/58 35/39/54
f 10/82/98 11/83/99 44/50/65 43/49/64
f 11/83/99 7/78/93 38/42/57 44/50/65
f 3/81/97 42/47/62 39/43/58
f 17/90/100 18/91/101 50/56/71 49/55/70
f 18/91/101 24/92/102 55/59/74 50/56/71
f 34/72/89 59/93/103 58/94/104 62/98/105
f 28/95/106 26/96/107 57/61/76 60/64/79
f 26/96/107 61/65/80 57/61/76
f 34/72/89 56/76/91 59/93/103
f 24/92/102 28/95/106 60/64/79 55/59/74
f 33/67/84 34/72/89 62/98/105 48/71/85
f 63/63/78 59/93/103 56/76/91 64/60/75
f 65/57/72 64/60/75 56/76/91 51/74/88
f 66/58/73 65/57/72 51/74/88 52/73/87
f 67/45/60 66/58/73 52/73/87 54/75/90
f 54/75/90 41/97/96 68/46/61 67/45/60
f 69/44/59 68/46/61 41/97/96 40/80/95
f 70/40/55 69/44/59 40/80/95 36/77/92
f 71/41/56 70/40/55 36/77/92 37/70/86
f 72/51/66 71/41/56 37/70/86 45/69/83
f 73/52/67 72/51/66 45/69/83 46/68/82
f 74/54/69 73/52/67 46/68/82 48/71/85
f 48/71/85 62/98/105 75/66/81 74/54/69
f 76/62/77 75/66/81 62/98/105 58/94/104
f 63/63/78 76/62/77 58/94/104 59/93/103
f 61/65/80 26/96/107 10/82/98 47/53/68
f 47/53/68 10/82/98 43/49/64
f 53/48/63 42/47/62 3/81/97 17/90/100
f 53/48/63 17/90/100 49/55/70
s 1
f 25/37/48 30/34/50 27/28/30
f 25/37/48 21/33/42 30/34/50
f 6/31/36 9/6/6 5/5/5
f 6/31/36 12/24/26 14/23/25
f 87/84/108 88/85/109 5/5/5 19/9/10
f 87/84/108 19/9/10 25/37/48 86/86/110
f 25/37/48 27/28/30 85/87/111 86/86/110
f 84/88/112 85/87/111 27/28/30 12/100/26
f 84/99/112 12/24/26 6/31/36 83/89/113
f 6/31/36 5/5/5 88/85/109 83/89/113
s 9
f 33/67/84 41/97/96 54/75/90 34/72/89
s 1
f 84/99/112 83/89/113 82/15/3 81/101/23
f 81/21/23 80/25/27 85/87/111 84/88/112
f 86/86/110 85/87/111 80/25/27 79/35/40
f 87/84/108 86/86/110 79/35/40 78/7/8
f 78/7/8 77/3/1 88/85/109 87/84/108
f 83/89/113 88/85/109 77/3/1 82/15/3
f 18/32/39 17/8/9 78/7/8
f 18/32/39 78/7/8 79/35/40
f 80/25/27 26/26/28 28/38/49
f 80/25/27 28/38/49 79/35/40
f 11/19/21 82/15/3 7/16/114
f 11/19/21 81/101/23 82/15/3
f 77/3/1 3/1/7 2/2/2
f 82/15/3 2/2/2 7/16/114
