# This file uses centimeters as units for non-parametric coordinates.

v -0.088321 -0.013808 0.056937
v -0.088341 -0.008196 0.058424
v -0.012282 0.018450 0.053640
v -0.010226 -0.004389 0.048865
v -0.031790 0.003622 0.054831
v -0.031323 -0.006829 0.054854
v -0.068140 0.042659 0.336784
v -0.088207 0.040905 0.330640
v -0.068150 0.043275 0.336552
v -0.088496 0.043181 0.330385
v -0.013933 0.005730 0.046600
v -0.010226 0.000743 0.024720
v -0.010798 0.041040 0.025387
v -0.088344 0.042948 0.326696
v -0.068246 0.044304 0.326516
v -0.068244 0.037615 0.327832
v -0.089124 0.037865 0.327693
v 0.000017 0.026075 0.055483
v -0.000014 0.042094 0.028429
v 0.088313 -0.008175 0.058425
v 0.088394 -0.013708 0.056973
v 0.088231 0.043474 0.332549
v 0.010202 -0.004399 0.048878
v 0.012112 0.018585 0.053687
v 0.031769 0.003597 0.054815
v 0.013979 0.005735 0.046665
v 0.031320 -0.006854 0.054906
v 0.049907 0.026946 0.270976
v 0.033737 0.043208 0.336718
v 0.000003 0.034826 0.269474
v 0.088728 0.039059 0.327521
v 0.088273 0.043179 0.326892
v 0.042274 0.037728 0.327796
v 0.042268 0.044720 0.326450
v 0.088346 0.042402 0.332919
v 0.033814 0.042572 0.336865
v 0.010240 0.000568 0.024705
v 0.010774 0.041046 0.025410
v -0.000025 0.030160 0.183626
v 0.088714 0.010444 0.183420
v 0.088754 0.016608 0.183691
v 0.017172 0.026740 0.183568
v -0.017171 0.026744 0.183567
v 0.000003 0.012548 0.183580
v -0.088716 0.010467 0.183412
v -0.088803 0.016572 0.183705
v 0.044863 0.042403 0.333684
v 0.044856 0.043602 0.333305
v 0.074941 0.044566 0.326430
v 0.074976 0.038014 0.327710
v 0.077857 0.043339 0.336761
v 0.077844 0.042642 0.336896
v -0.021349 0.010077 0.054888
v 0.021209 0.010167 0.054757
v 0.020391 0.001745 -0.014674
v 0.007695 0.001732 -0.023698
v -0.007906 0.001700 -0.023914
v -0.020617 0.001669 -0.014713
v -0.025242 0.001734 0.000266
v -0.020430 0.002077 0.014966
v 0.020529 0.001809 0.015231
v 0.025116 0.001880 0.000241
v 0.016753 0.053821 -0.012104
v 0.006399 0.053822 -0.019897
v -0.006575 0.053821 -0.019743
v -0.016792 0.053818 -0.011983
v -0.016422 0.053747 0.012029
v -0.008005 0.053863 0.019140
v 0.007995 0.053764 0.019112
v 0.016562 0.053820 0.012251
v -0.009533 0.053503 0.022868
v -0.020062 0.053333 0.014720
v -0.024829 0.053432 0.000214
v -0.020128 0.053486 -0.014324
v -0.007770 0.053558 -0.023356
v 0.007532 0.053481 -0.023308
v 0.019978 0.053596 -0.014364
v 0.024578 0.053391 0.000216
v 0.019875 0.053424 0.014738
v 0.009517 0.053410 0.022737
v 0.014954 1.141910 -0.011196
v 0.006539 1.143151 -0.019022
v -0.006750 1.143140 -0.018954
v -0.014988 1.141882 -0.011042
v -0.015009 1.138010 0.013771
v -0.008190 1.136982 0.020680
v 0.008198 1.136878 0.020666
v 0.013677 1.137901 0.013544
v 0.014574 0.764042 -0.012030
v 0.014996 0.763947 0.012349
v 0.007916 0.763984 0.019467
v -0.007923 0.764083 0.019466
v -0.015016 0.764017 0.012243
v -0.015055 0.764007 -0.012002
v -0.006483 0.764041 -0.019976
v 0.006213 0.764038 -0.019733
v 0.011833 1.281700 0.005753
v 0.006601 1.286242 -0.002690
v -0.007199 1.286885 -0.002839
v -0.012195 1.281556 0.006027
v -0.012655 1.266503 0.037769
v -0.007176 1.262647 0.045470
v 0.008340 1.262804 0.045467
v 0.012283 1.266284 0.038553
v -0.000039 1.274905 0.021966
v -0.000044 -0.000916 0.000864
vt 0.521517 0.614582
vt 0.519318 0.285758
vt 0.611020 0.495183
vt 0.645419 0.284097
vt 0.517336 0.604495
vt 0.506247 0.889451
vt 0.724869 0.835976
vt 0.728524 0.604495
vt 0.553978 0.028794
vt 0.554163 0.029887
vt 0.896872 0.171372
vt 0.894079 0.403289
vt 0.969877 0.447227
vt 0.970961 0.951284
vt 0.970527 0.986367
vt 0.519318 0.049755
vt 0.555035 0.046881
vt 0.631269 0.495183
vt 0.651632 0.495183
vt 0.950823 0.448620
vt 0.454938 0.853452
vt 0.977668 0.984984
vt 0.975488 0.613436
vt 0.720677 0.495183
vt 0.741179 0.495183
vt 0.950872 0.143732
vt 0.832840 0.285782
vt 0.973677 0.011616
vt 0.676139 0.495183
vt 0.676133 0.283650
vt 0.706934 0.284086
vt 0.925104 0.137574
vt 0.873517 0.751393
vt 0.832840 0.049432
vt 0.752193 0.042466
vt 0.676297 0.141540
vt 0.970964 0.763929
vt 0.724207 0.685625
vt 0.984622 0.011915
vt 0.969803 0.685625
vt 0.737736 0.024863
vt 0.738062 0.023786
vt 0.972465 0.109315
vt 0.969985 0.145151
vt 0.454953 0.818622
vt 0.980520 0.685803
vt 0.831698 0.039629
vt 0.808842 0.047913
vt 0.970144 0.708722
vt 0.987310 0.703471
vt 0.757004 0.031069
vt 0.894436 0.189543
vt 0.814594 0.030385
vt 0.983622 0.759355
vt 0.388084 0.801264
vt 0.372734 0.822834
vt 0.372330 0.849350
vt 0.387916 0.870992
vt 0.413341 0.878952
vt 0.438386 0.870952
vt 0.438909 0.800964
vt 0.413425 0.793199
vt 0.871543 0.283543
vt 0.871543 0.259372
vt 0.871543 0.307763
vt 0.871543 0.331658
vt 0.871543 0.355004
vt 0.871543 0.377784
vt 0.871543 0.160661
vt 0.871543 0.188186
vt 0.871543 0.212149
vt 0.871543 0.235653
vt 0.011096 0.019475
vt 0.215163 0.018109
vt 0.171316 0.016208
vt 0.148764 0.015690
vt 0.125923 0.015464
vt 0.103098 0.015549
vt 0.058355 0.016788
vt 0.039152 0.017661
vt 0.104374 0.984528
vt 0.347624 0.571131
vt 0.059126 0.984527
vt 0.300697 0.567843
vt 0.040657 0.984528
vt 0.284101 0.567228
vt 0.234331 0.984527
vt 0.253544 0.567359
vt 0.215658 0.984528
vt 0.461450 0.568754
vt 0.170730 0.984528
vt 0.414390 0.571435
vt 0.149003 0.984527
vt 0.393264 0.572363
vt 0.125491 0.984528
vt 0.368854 0.572253
vt 0.279648 0.865954
vt 0.268992 0.882356
vt 0.304279 0.865550
vt 0.315147 0.883065
vt 0.315134 0.944839
vt 0.304381 0.960039
vt 0.276285 0.959292
vt 0.268546 0.945728
vt 0.291786 0.913199
vt 0.414532 0.836059
vt 0.864847 0.259357
vt 0.864847 0.212613
vt 0.864847 0.188186
vt 0.864662 0.163314
vt 0.864847 0.376768
vt 0.864847 0.331735
vt 0.864847 0.307827
vt 0.864847 0.283576
vt 0.352537 0.776713
vt 0.368637 0.778799
vt 0.387069 0.779539
vt 0.403639 0.777741
vt 0.459335 0.765445
vt 0.295754 0.763762
vt 0.258453 0.763587
vt 0.282553 0.760698
vt 0.475803 0.764656
vt 0.479424 0.568212
vt 0.253544 0.014325
vt 0.234331 0.019475
vt 0.964026 0.232361
vt 0.963747 0.257982
vt 0.963084 0.206515
vt 0.962561 0.182710
vt 0.962411 0.385746
vt 0.962005 0.409754
vt 0.963771 0.360181
vt 0.963850 0.334438
vt 0.964556 0.308801
vt 0.964127 0.283377
vt 0.969456 0.604495
vt 0.975649 0.609440
vt 0.988347 0.951158
vt 0.814852 0.029195
vt 0.832349 0.037791
vt 0.757071 0.028946
vt 0.724193 0.986367
vt 0.765036 0.640769
vt 0.508639 0.986367
vt 0.506323 0.782606
vt 0.508700 0.685625
vt 0.527360 0.640769
vt 0.496824 0.818766
vt 0.988496 0.778227
vt 0.496806 0.853333
vt 0.972483 0.483062
vt 0.700243 0.495183
vt 0.925387 0.454994
vt 0.941602 0.125666
vt 0.941645 0.467143
vt 0.984677 0.580401
vt 0.973329 0.640769
vt 0.969348 0.650845
vt 0.953324 0.108412
vt 0.694554 0.552938
vt 0.676300 0.549673
vt 0.658068 0.553215
vt 0.973609 0.580855
vt 0.953377 0.484076
vt 0.871543 0.403363
vt 0.864847 0.403363
vt 0.893159 0.152347
vt 0.730910 0.614582
vt 0.518760 0.039477
vt 0.519338 0.043400
vt 0.519318 0.495183
vt 0.969333 0.614582
vt 0.762733 0.650845
vt 0.516851 0.645008
vt 0.516906 0.647056
vt 0.526991 0.650845
vt 0.832840 0.495183
vt 0.369294 0.014325
vt 0.347928 0.014325
vt 0.393085 0.014325
vt 0.415070 0.014325
vt 0.460530 0.014325
vt 0.479424 0.014325
vt 0.011096 0.984528
vt 0.283455 0.014325
vt 0.302143 0.014325
vn -0.999408 0.033579 -0.007490
vn -0.999959 -0.008898 -0.001672
vn -0.999959 -0.008898 -0.001672
vn -0.999716 0.023054 -0.006049
vn -0.198019 0.965650 -0.168251
vn -0.171421 0.969838 -0.173290
vn -0.139023 0.976733 -0.163295
vn -0.193865 0.973308 -0.122834
vn 0.126116 -0.974160 0.187367
vn 0.093110 -0.983585 0.154568
vn 0.026331 -0.985019 0.170424
vn -0.092925 0.243265 0.965498
vn -0.013403 0.981718 0.189871
vn -0.091049 0.973007 0.212054
vn -0.294343 0.129227 0.946923
vn -0.064357 0.088603 -0.993986
vn -0.203784 0.059161 -0.977227
vn -0.169054 0.066694 -0.983348
vn -0.064357 0.088603 -0.993986
vn -0.003937 0.825555 0.564308
vn -0.394884 0.758162 0.518899
vn -0.453598 0.891140 0.010907
vn -0.002496 0.998624 0.052387
vn -0.000095 -0.986624 0.163011
vn 0.060329 -0.995916 0.067176
vn -0.062544 -0.995777 0.067210
vn -0.603531 0.792996 -0.083111
vn -0.990512 0.045923 -0.129524
vn -0.735091 0.050396 -0.676093
vn -0.391820 0.091500 -0.915481
vn 0.000288 0.985453 0.169951
vn 0.042047 0.289504 0.956253
vn 0.014805 -0.981923 0.188699
vn 0.006265 -0.979735 0.200201
vn -0.913878 -0.014904 0.405716
vn -0.595534 -0.094700 -0.797728
vn -0.023583 0.990616 -0.134628
vn -0.065876 0.984921 -0.159970
vn -0.005427 -0.872077 0.489339
vn -0.004011 -0.980214 0.197899
vn 0.001774 -0.876057 0.482204
vn -0.056335 -0.823625 0.564331
vn -0.998068 0.061317 -0.009983
vn -0.998070 0.061229 -0.010399
vn -0.994002 0.079113 0.075507
vn -0.994002 0.079113 0.075507
vn -0.001610 0.998506 -0.054618
vn 0.129231 0.980426 -0.148542
vn 0.453192 0.891351 0.010533
vn 0.050055 0.988674 -0.141483
vn 0.025927 0.987213 -0.157282
vn 0.999672 0.025087 -0.005131
vn 0.999795 0.019686 -0.004792
vn 0.999985 0.004042 -0.003811
vn 0.999985 0.004042 -0.003811
vn 0.999125 0.041394 -0.005909
vn 0.999139 0.041067 -0.005948
vn 0.168379 0.061460 -0.983804
vn 0.598069 -0.101827 -0.794949
vn 0.732183 0.052713 -0.679065
vn 0.389928 0.088883 -0.916546
vn 0.203562 0.053916 -0.977576
vn 0.825396 0.015210 0.564349
vn 0.991285 0.047072 -0.123039
vn 0.911284 -0.011561 0.411616
vn 0.016504 -0.993715 -0.110717
vn -0.027575 -0.993487 -0.110557
vn 0.994004 0.109319 0.002187
vn 0.994004 0.109319 0.002187
vn 0.059739 0.986491 -0.152534
vn 0.109182 0.980683 -0.162295
vn 0.058665 0.987230 -0.148109
vn 0.063342 0.083226 -0.994516
vn 0.063342 0.083226 -0.994516
vn -0.002024 -0.984099 0.177610
vn 0.028211 -0.964716 0.261778
vn 0.013337 -0.861695 0.507251
vn -0.000440 -0.844674 0.535281
vn -0.002123 0.268229 0.963353
vn -0.000100 0.974107 0.226088
vn 0.007901 0.964348 0.264521
vn 0.392573 0.759596 0.518555
vn -0.092458 -0.983694 0.154262
vn -0.030486 -0.986141 0.163083
vn 0.198310 0.965583 -0.168292
vn 0.170860 0.969905 -0.173469
vn 0.007630 0.269064 0.963092
vn 0.352193 0.275738 0.894388
vn 0.118194 0.977556 0.174399
vn 0.102466 -0.874685 0.473738
vn 0.033931 -0.979406 0.199028
vn 0.604491 0.792277 -0.082990
vn 0.893998 0.069769 0.442605
vn 0.274081 0.627383 0.728883
vn 0.309166 0.009374 -0.950962
vn 0.308788 0.061439 -0.949145
vn 0.807391 0.051104 -0.587799
vn 0.808280 0.009662 -0.588719
vn -0.306026 0.010579 -0.951964
vn -0.305385 0.063878 -0.950084
vn -0.811020 0.010651 -0.584921
vn -0.809607 0.053433 -0.584536
vn -0.999958 0.009148 0.000893
vn -0.995353 0.096256 0.002539
vn -0.867641 0.002226 0.497186
vn -0.890625 0.069353 0.449420
vn -0.845557 0.000287 0.533886
vn 0.003548 0.351964 0.936007
vn -0.068418 0.651617 0.755456
vn 0.999932 0.011604 -0.001248
vn 0.995306 0.096755 -0.002004
vn 0.869045 0.006621 0.494690
vn -0.511567 0.563439 0.648719
vn -0.067890 0.995533 0.065615
vn -0.065442 0.997070 0.039608
vn -0.055249 0.997888 -0.034173
vn -0.024432 0.997000 -0.073443
vn 0.023109 0.996852 -0.075846
vn 0.051628 0.998107 -0.033423
vn 0.066370 0.996898 0.042297
vn 0.026588 0.995696 0.088787
vn 0.005887 0.995293 0.096733
vn 0.963213 0.001947 -0.268733
vn 0.959224 0.002353 -0.282639
vn 0.331349 0.000589 -0.943508
vn 0.335677 0.000980 -0.941977
vn -0.332015 0.000333 -0.943274
vn -0.335950 0.000961 -0.941879
vn -0.961325 0.001858 -0.275410
vn -0.963432 0.001443 -0.267951
vn -0.971880 0.000901 0.235477
vn -0.969417 0.001795 0.245414
vn -0.289794 -0.000124 0.957089
vn -0.290510 -0.001214 0.956871
vn 0.283074 -0.000081 0.959098
vn 0.289468 -0.000936 0.957187
vn 0.971000 0.002164 0.239069
vn 0.973801 0.001624 0.227396
vn 0.985725 -0.002427 0.168346
vn 0.323949 -0.045201 0.944994
vn -0.313563 -0.046500 0.948428
vn -0.983965 -0.003571 0.178323
vn -0.968580 0.011791 -0.248423
vn -0.349377 0.031279 -0.936460
vn 0.347567 0.031481 -0.937127
vn 0.971345 0.011255 -0.237406
vn 0.326083 0.110858 -0.938818
vn 0.972562 0.041004 -0.229002
vn -0.335928 0.109645 -0.935484
vn -0.969747 0.043311 -0.240238
vn -0.992751 -0.004970 0.120088
vn -0.353568 -0.174984 0.918896
vn 0.371960 -0.177474 0.911125
vn 0.994119 -0.005539 0.108153
vn -0.004867 0.888345 0.459150
vn -0.000627 0.901600 0.432569
vn -0.011161 0.887992 0.459724
vn -0.000343 0.900444 0.434972
vn 0.047001 0.902687 0.427723
vn -0.100545 0.888620 0.447487
vn -0.037045 0.894316 0.445901
vn 0.032122 0.896421 0.442038
vn 0.072182 0.899922 0.430036
vn 0.110462 -0.993880 0.001207
vn -0.000645 -0.999927 -0.012032
vn 0.085997 -0.994652 -0.057199
vn -0.122198 -0.991929 0.033838
vn -0.104876 -0.994396 0.013307
vn -0.081230 -0.995018 -0.057794
vn -0.028276 -0.994972 -0.096080
vn 0.032915 -0.994753 -0.096870
vn 0.118642 -0.992767 0.018390
vn -0.284709 0.217556 0.933601
vn -0.123807 -0.974627 0.186476
s 1
g Hoe_LOD1
f 46/169/1 2/1/2 1/5/3 45/8/4
s 2
f 5/3/5 2/172/6 46/2/7 43/4/8
s 3
f 1/145/9 6/6/10 45/143/11
s 2
f 7/9/12 9/10/13 10/171/14 8/170/15
s 5
f 2/164/16 5/165/17 6/152/18 1/157/19
s 2
f 19/162/20 13/163/21 3/19/22 18/29/23
s 3
f 44/7/24 4/151/25 23/149/26
s 2
f 43/4/8 53/18/27 5/3/5
s 5
f 3/154/28 11/20/29 53/156/30
s 3
f 6/6/10 4/151/25 44/7/24
s 2
f 29/41/31 9/10/13 7/9/12 36/42/32
s 3
f 17/15/33 45/143/11 44/7/24 16/14/34
s 5
f 11/20/29 12/132/35 4/13/36
s 2
f 10/171/14 9/10/13 15/17/37 14/16/38
s 3
f 7/139/39 16/14/34 33/37/40 36/150/41
f 7/139/39 8/22/42 17/15/33 16/14/34
s 1
f 14/173/43 17/137/44 8/138/45 10/23/46
s 2
f 18/29/23 39/30/47 42/31/48 24/153/49
f 15/17/37 34/35/50 30/36/51
s 9
f 41/174/52 40/144/53 21/158/54 20/159/55
f 32/177/56 31/148/57 40/144/53 41/174/52
s 5
f 27/43/58 23/44/59 26/26/60 54/155/61 25/160/62
f 38/52/63 24/32/64 37/130/65
s 3
f 37/45/66 23/149/26 4/151/25 12/21/67
s 2
f 29/41/31 34/35/50 15/17/37 9/10/13
s 9
f 35/175/68 31/148/57 32/177/56 22/176/69
s 2
f 32/34/70 41/27/71 42/31/48 30/36/51 34/35/50 49/48/72
s 5
f 20/28/73 21/39/74 27/43/58 25/160/62
s 3
f 28/33/75 50/49/76 33/37/40
f 50/49/76 52/50/77 47/54/78 33/37/40
s 2
f 29/41/31 36/42/32 47/142/79 48/51/80
f 49/48/72 34/35/50 48/51/80 51/53/81
f 38/161/82 19/162/20 18/29/23 24/153/49
s 1
f 14/173/43 46/169/1 45/8/4 17/137/44
s 2
f 15/17/37 46/2/7 14/16/38
s 3
f 27/146/83 44/7/24 23/149/26
f 40/38/84 44/7/24 27/146/83
s 2
f 25/25/85 42/31/48 41/27/71 20/178/86
f 39/30/47 43/4/8 30/36/51
f 51/53/81 52/140/87 35/141/88 22/47/89
f 48/51/80 47/142/79 52/140/87 51/53/81
s 3
f 47/54/78 36/150/41 33/37/40
s 2
f 49/48/72 51/53/81 22/47/89
f 29/41/31 48/51/80 34/35/50
s 3
f 35/46/90 50/49/76 31/40/91
s 2
f 49/48/72 22/47/89 32/34/70
s 3
f 35/46/90 52/50/77 50/49/76
s 2
f 18/29/23 3/19/22 43/4/8 39/30/47
s 5
f 37/130/65 26/26/60 23/44/59
f 3/154/28 12/132/35 11/20/29
f 6/152/18 5/165/17 53/156/30 11/20/29 4/13/36
f 24/32/64 54/155/61 26/26/60
s 2
f 3/19/22 53/18/27 43/4/8
f 24/153/49 42/31/48 54/24/92
f 54/24/92 42/31/48 25/25/85
s 5
f 38/52/63 79/71/93 80/70/94
f 56/136/95 76/63/96 77/64/97 55/128/98
f 57/135/99 75/65/100 76/63/96 56/136/95
f 58/134/101 74/66/102 75/65/100 57/135/99
f 59/133/103 73/67/104 74/66/102 58/134/101
f 60/131/105 72/68/106 73/67/104 59/133/103
f 13/12/107 72/68/106 60/131/105 12/132/35
f 19/11/108 80/70/94 71/69/109
f 62/127/110 78/72/111 79/71/93 61/129/112
f 55/128/98 77/64/97 78/72/111 62/127/110
f 72/68/106 71/166/113 68/167/114 67/111/115
f 67/111/115 66/112/116 73/67/104
f 75/65/100 74/66/102 66/112/116 65/113/117
f 76/63/96 75/65/100 65/113/117 64/114/118
f 77/64/97 76/63/96 64/114/118 63/107/119
f 63/107/119 70/108/120 78/72/111
f 80/70/94 79/71/93 70/108/120 69/109/121
f 71/69/109 80/70/94 69/109/121 68/110/122
s 14
f 89/81/123 63/78/124 64/77/125 96/95/126
f 64/77/125 65/76/127 95/93/128 96/95/126
f 65/76/127 66/75/129 94/91/130 95/93/128
f 93/89/131 94/91/130 66/75/129 67/74/132
f 67/74/132 68/126/133 92/87/134 93/89/131
f 68/73/133 69/80/135 91/85/136 92/185/134
f 69/80/135 70/79/137 90/83/138 91/85/136
f 70/79/137 63/78/124 89/81/123 90/83/138
f 91/186/136 90/187/138 88/84/139 87/86/140
f 92/125/134 91/186/136 87/86/140 86/88/141
f 93/183/131 92/184/134 86/124/141 85/90/142
f 95/181/128 94/182/130 84/92/143 83/94/144
f 96/179/126 95/181/128 83/94/144 82/96/145
f 89/180/123 96/179/126 82/96/145 81/82/146
f 81/82/146 88/84/139 90/187/138 89/180/123
f 85/90/142 84/92/143 94/182/130 93/183/131
f 82/96/145 98/116/147 97/115/148 81/82/146
f 83/94/144 99/117/149 98/116/147 82/96/145
f 84/92/143 100/118/150 99/117/149 83/94/144
f 85/90/142 101/119/151 100/118/150 84/92/143
f 86/124/141 102/123/152 101/119/151 85/90/142
f 87/86/140 103/122/153 102/121/152 86/88/141
f 88/84/139 104/120/154 103/122/153 87/86/140
f 81/82/146 97/115/148 104/120/154 88/84/139
s 15
f 103/103/155 105/105/156 102/102/157
f 99/99/158 105/105/156 98/97/159
f 100/100/160 105/105/156 99/99/158
f 101/101/161 105/105/156 100/100/160
f 102/102/157 105/105/156 101/101/161
f 104/104/162 105/105/156 103/103/155
f 97/98/163 105/105/156 104/104/162
f 98/97/159 105/105/156 97/98/163
s 3
f 62/62/164 106/106/165 55/55/166
f 60/60/167 59/59/168 106/106/165
f 106/106/165 59/59/168 58/58/169
f 106/106/165 58/58/169 57/57/170
f 106/106/165 57/57/170 56/56/171
f 106/106/165 56/56/171 55/55/166
f 61/61/172 106/106/165 62/62/164
f 37/45/66 106/106/165 61/61/172
f 106/106/165 37/45/66 12/21/67
f 60/60/167 106/106/165 12/21/67
s 5
f 38/52/63 37/130/65 61/129/112 79/71/93
f 13/12/107 71/166/113 72/68/106
f 73/67/104 66/112/116 74/66/102
f 67/111/115 73/67/104 72/68/106
f 79/71/93 78/72/111 70/108/120
f 78/72/111 77/64/97 63/107/119
f 19/11/108 71/69/109 13/168/173
f 38/52/63 80/70/94 19/11/108
s 2
f 39/30/47 30/36/51 42/31/48
s 3
f 40/38/84 31/40/91 28/33/75
f 28/33/75 31/40/91 50/49/76
f 40/38/84 28/33/75 44/7/24
s 2
f 30/36/51 46/2/7 15/17/37
f 30/36/51 43/4/8 46/2/7
s 3
f 16/14/34 44/7/24 28/33/75 33/37/40
f 40/38/84 27/146/83 21/147/174
f 45/143/11 6/6/10 44/7/24
s 5
f 3/154/28 13/12/107 12/132/35
f 37/130/65 24/32/64 26/26/60
