# This file uses centimeters as units for non-parametric coordinates.

v -0.010477 0.104674 0.009755
v -0.010509 0.104619 -0.036740
v -0.010015 -0.081848 0.046648
v -0.010277 -0.071681 -0.002398
v -0.010009 -0.091040 0.013215
v -0.010063 -0.081980 0.002475
v -0.009934 -0.093173 0.027744
v -0.010750 -0.059737 0.029701
v -0.010540 -0.073335 0.050153
v -0.010747 -0.071002 0.041918
v -0.010655 -0.043365 0.023222
v -0.010569 0.057465 0.011305
v -0.010559 -0.049294 -0.007050
v -0.008915 -0.075669 0.024246
v -0.010790 -0.075589 0.026619
v -0.008919 -0.069873 0.018087
v -0.010807 -0.067518 0.018051
v -0.008904 -0.076018 0.012271
v -0.010801 -0.076102 0.009900
v -0.008902 -0.081852 0.018478
v -0.010806 -0.084214 0.018555
v 0.000000 -0.041795 0.028944
v 0.000000 -0.056031 0.035268
v 0.000000 -0.064818 0.044895
v 0.000000 -0.085146 0.049835
v 0.000000 -0.097619 0.028243
v 0.000000 -0.095264 0.011400
v 0.000000 -0.084821 -0.001255
v 0.000000 -0.073376 -0.007110
v 0.000000 -0.050282 -0.012504
v -0.001597 0.106528 -0.042080
v -0.001437 0.106539 0.015062
v 0.000000 -0.073269 0.055090
v -0.010672 0.047785 -0.020900
v 0.000000 0.046227 -0.026250
v 0.000000 0.057768 0.016622
v -0.010293 0.063461 -0.034327
v 0.000000 0.063090 -0.039293
v -0.009800 -0.088772 0.039880
v 0.000000 -0.092589 0.041972
v 0.000000 0.105061 -0.042192
v 0.000000 0.105060 0.015249
v -0.000319 0.309070 0.024144
v -0.000326 0.412768 0.035050
v -0.000490 0.389600 -0.071727
v -0.001237 0.296803 -0.060962
v -0.001378 0.338479 -0.053689
v -0.001365 0.439562 0.038602
v -0.001281 0.455768 0.019555
v -0.001194 0.453769 -0.061731
v -0.000993 0.450877 0.034926
v -0.000433 0.398056 -0.076439
v -0.001065 0.392715 -0.138923
v -0.001033 0.441016 -0.113106
v -0.001337 0.418600 -0.134164
v -0.000368 0.401050 -0.084474
v -0.000407 0.394487 -0.111999
v -0.000440 0.386672 -0.122686
v -0.001254 0.372105 -0.132265
v 0.010540 -0.073335 0.050153
v 0.010015 -0.081848 0.046648
v 0.009800 -0.088772 0.039880
v 0.010747 -0.071002 0.041918
v 0.010277 -0.071681 -0.002398
v 0.010559 -0.049294 -0.007050
v 0.010063 -0.081980 0.002475
v 0.010009 -0.091040 0.013215
v 0.009934 -0.093173 0.027744
v 0.010672 0.047785 -0.020900
v 0.010293 0.063461 -0.034327
v 0.010569 0.057465 0.011305
v 0.010655 -0.043365 0.023222
v 0.010750 -0.059737 0.029701
v 0.010807 -0.067518 0.018051
v 0.010477 0.104674 0.009755
v 0.010509 0.104619 -0.036740
v 0.001437 0.106539 0.015062
v 0.001597 0.106528 -0.042080
v 0.010790 -0.075589 0.026619
v 0.010801 -0.076102 0.009900
v 0.010806 -0.084214 0.018555
v 0.008915 -0.075669 0.024246
v 0.008919 -0.069873 0.018087
v 0.008904 -0.076018 0.012271
v 0.008902 -0.081852 0.018478
v 0.000319 0.309070 0.024144
v 0.001378 0.338479 -0.053689
v 0.001237 0.296803 -0.060962
v 0.000326 0.412768 0.035050
v 0.000491 0.389600 -0.071727
v 0.001365 0.439562 0.038602
v 0.001281 0.455768 0.019555
v 0.000993 0.450877 0.034926
v 0.000433 0.398056 -0.076439
v 0.001254 0.372105 -0.132265
v 0.001337 0.418600 -0.134164
v 0.001194 0.453769 -0.061731
v 0.000368 0.401050 -0.084474
v 0.001065 0.392715 -0.138923
v 0.001033 0.441016 -0.113106
v 0.000407 0.394487 -0.111999
v 0.000440 0.386672 -0.122686
v -0.001188 0.351359 -0.067195
v 0.001189 0.351359 -0.067195
vt 0.511764 0.594862
vt 0.521008 0.615594
vt 0.538879 0.631708
vt 0.528888 0.582159
vt 0.646528 0.573284
vt 0.654388 0.509255
vt 0.635188 0.602397
vt 0.608768 0.629448
vt 0.571294 0.639200
vt 0.670202 0.222086
vt 0.698405 0.172443
vt 0.577388 0.204885
vt 0.570319 0.498690
vt 0.555764 0.546152
vt 0.589777 0.564997
vt 0.567561 0.073870
vt 0.694622 0.058548
vt 0.059578 0.491264
vt 0.072144 0.530428
vt 0.036453 0.463109
vt 0.018362 0.422875
vt 0.037240 0.385541
vt 0.064775 0.365011
vt 0.109746 0.355601
vt 0.161371 0.369502
vt 0.197362 0.406057
vt 0.222526 0.512936
vt 0.212756 0.441979
vt 0.232639 0.800811
vt 0.728545 0.055030
vt 0.258275 0.855830
vt 0.056447 0.955140
vt 0.024048 0.488077
vt 0.570537 0.590244
vt 0.613484 0.587782
vt 0.593192 0.612661
vt 0.157552 0.259781
vt 0.079508 0.259791
vt 0.105467 0.259818
vt 0.131632 0.259817
vt 0.060704 0.951310
vt 0.072737 0.821643
vt 0.447207 0.992479
vt 0.946637 0.588939
vt 0.472234 0.435548
vt 0.712601 0.555218
vt 0.597973 0.012976
vt 0.502247 0.150400
vt 0.979494 0.550769
vt 0.511943 0.076659
vt 0.979494 0.484603
vt 0.459557 0.032099
vt 0.053896 0.567773
vt 0.053896 0.625298
vt 0.979494 0.524596
vt 0.501840 0.045527
vt 0.979494 0.014870
vt 0.511233 0.890207
vt 0.036827 0.134277
vt 0.979494 0.191735
vt 0.094780 0.072673
vt 0.979494 0.316047
vt 0.236052 0.037627
vt 0.695457 0.705230
vt 0.053896 0.647553
vt 0.979494 0.063042
vt 0.053896 0.670111
vt 0.048910 0.427417
vt 0.058575 0.407037
vt 0.076834 0.391540
vt 0.066074 0.440162
vt 0.189424 0.516621
vt 0.183006 0.452256
vt 0.172636 0.422722
vt 0.146841 0.394944
vt 0.109367 0.384591
vt 0.226242 0.857362
vt 0.198941 0.807060
vt 0.106513 0.822072
vt 0.105948 0.524322
vt 0.092534 0.476237
vt 0.079508 0.315091
vt 0.094519 0.952839
vt 0.221091 0.971183
vt 0.015210 0.488077
vt 0.157556 0.315091
vt 0.151849 0.436843
vt 0.130242 0.410849
vt 0.157541 0.308495
vt 0.079508 0.308503
vt 0.105478 0.308461
vt 0.131632 0.308459
vt 0.258198 0.354667
vt 0.238199 0.469268
vt 0.221054 0.319256
vt 0.045733 0.625298
vt 0.195559 0.190856
vt 0.045733 0.806394
vt 0.023721 0.205452
vt 0.572183 0.823857
vt 0.097779 0.200625
vt 0.173469 0.182608
vt 0.542790 0.802376
vt 0.068388 0.222108
vt 0.045733 0.567773
vt 0.045733 0.582760
vt 0.045733 0.670111
vt 0.971730 0.063042
vt 0.045733 0.774894
vt 0.045733 0.742498
vt 0.971730 0.120898
vt 0.971730 0.191735
vt 0.971730 0.316047
vt 0.045733 0.647553
vt 0.971730 0.484603
vt 0.041848 0.262178
vt 0.208521 0.214105
vt 0.971730 0.524596
vt 0.971730 0.550769
vt 0.597973 0.007500
vt 0.400107 0.007500
vt 0.045733 0.533218
vt 0.290080 0.992500
vt 0.500553 0.708162
vt 0.732602 0.669819
vt 0.053896 0.582760
vt 0.647873 0.841875
vt 0.498124 0.819033
vt 0.516250 0.762306
vt 0.053896 0.774894
vt 0.053896 0.742498
vt 0.979494 0.120898
vt 0.569185 0.951810
vt 0.710458 0.986855
vt 0.669963 0.833627
vt 0.682926 0.810379
vt 0.933957 0.992384
vt 0.976240 0.978957
vt 0.986343 0.947824
vt 0.976647 0.874083
vt 0.024048 0.978619
vt 0.400107 0.012976
vt 0.764483 0.031981
vt 0.921612 0.032002
vt 0.971730 0.014870
vt 0.053896 0.805385
vt 0.971730 0.610376
vt 0.979494 0.610376
vt 0.015210 0.978619
vt 0.053896 0.533523
vt 0.105511 0.433344
vt 0.131613 0.315091
vt 0.126748 0.459288
vt 0.105520 0.315091
vt 0.157572 0.253173
vt 0.183521 0.253173
vt 0.105505 0.253173
vt 0.131613 0.253173
vt 0.533569 0.074534
vt 0.537346 0.070209
vt 0.730560 0.174367
vt 0.526211 0.658147
vt 0.571032 0.668489
vt 0.676228 0.584431
vt 0.659722 0.619862
vt 0.622902 0.655535
vt 0.703994 0.229111
vt 0.481060 0.599026
vt 0.543373 0.204465
vt 0.687601 0.513899
vt 0.499163 0.636838
vt 0.499454 0.558736
vt 0.522822 0.530595
vt 0.536406 0.491756
vt 0.013657 0.007500
vt 0.013657 0.012976
vt 0.732728 0.050698
vt 0.665183 0.717552
vt 0.250237 0.978562
vt 0.254922 0.974799
vt 0.183521 0.259804
vt 0.079508 0.253173
vt 0.183521 0.315091
vt 0.183521 0.308487
vt 0.064374 0.955702
vt 0.666079 0.708162
vt 0.516000 0.681454
vt 0.650686 0.681712
vt 0.500317 0.717552
vt 0.723882 0.051210
vt 0.515703 0.744153
vt 0.649852 0.743896
vn -0.909752 0.012491 0.414965
vn -0.973459 -0.049914 -0.223354
vn -0.946515 0.029945 0.321268
vn -0.828784 0.317249 0.460945
vn -0.519604 0.485037 0.703385
vn -0.473309 0.140136 0.869678
vn -0.963780 0.042979 0.263212
vn -0.798436 0.468116 0.378639
vn -0.481041 0.689935 0.540914
vn -0.606355 0.291550 0.739819
vn -0.500680 0.220234 0.837148
vn -0.716196 -0.394636 0.575610
vn -0.404399 -0.521046 0.751647
vn -0.708811 -0.607534 0.358455
vn -0.410381 -0.787755 0.459380
vn -0.459857 -0.138602 -0.877109
vn -0.444569 -0.266111 -0.855303
vn -0.704446 -0.213378 -0.676924
vn -0.951709 -0.047691 -0.303275
vn -0.913225 -0.112807 -0.391530
vn -0.448266 -0.217705 -0.866984
vn -0.459300 -0.209445 -0.863236
vn -0.444660 -0.061306 -0.893599
vn -0.930856 -0.027947 -0.364315
vn -0.205722 0.978610 -0.000250
vn -0.205722 0.978610 -0.000250
vn -0.205722 0.978610 -0.000250
vn -0.205722 0.978610 -0.000250
vn -0.999621 -0.020245 0.018652
vn -0.997727 -0.065478 -0.015893
vn -0.666695 -0.680791 -0.303383
vn -0.633660 -0.770341 0.071067
vn -0.999978 0.005764 -0.003387
vn -0.998998 -0.028337 -0.034628
vn -0.684638 -0.467393 -0.559298
vn -0.183036 0.982681 -0.028929
vn -0.781217 0.624042 -0.016471
vn -0.782993 -0.019302 -0.621731
vn -0.183290 -0.032459 -0.982523
vn -0.667631 -0.542522 -0.509843
vn -0.130738 -0.722022 -0.679406
vn -0.129549 -0.681778 0.719997
vn -0.658114 -0.518567 0.545870
vn -0.779805 0.023100 0.625597
vn -0.182201 0.030970 0.982773
vn -0.457526 0.024687 0.888853
vn -0.432108 -0.312488 0.845952
vn -0.463806 0.081860 0.882147
vn -0.418617 -0.832107 -0.363810
vn -0.412407 -0.907573 0.078940
vn -0.423764 -0.576955 -0.698246
vn 0.000000 0.125711 0.992067
vn 0.456012 0.025075 0.889620
vn 0.403758 -0.281858 0.870365
vn -0.999966 0.003942 0.007243
vn -0.999966 0.003942 0.007243
vn -0.999960 0.002473 0.008635
vn -0.999966 0.003125 0.007622
vn 0.000000 -0.054286 0.998525
vn 0.000000 -0.044799 0.998996
vn 0.000000 -0.044799 0.998996
vn 0.000000 -0.054286 0.998525
vn 0.000000 -0.104595 0.994515
vn 0.000000 -0.104595 0.994515
vn 0.000000 0.037475 0.999298
vn 0.000000 -0.131409 0.991328
vn 0.000000 -0.131409 0.991328
vn 0.000000 0.037475 0.999298
vn -0.999847 -0.014350 0.010050
vn -0.999951 0.000788 0.009864
vn -0.999898 -0.014304 0.000027
vn -0.999902 -0.013978 -0.000485
vn -0.999868 -0.015001 0.006294
vn -0.999951 -0.008746 -0.004736
vn -0.999860 0.016671 -0.001578
vn -0.999936 0.010978 -0.002837
vn -0.999775 -0.020522 0.005461
vn -0.999948 -0.009481 -0.003632
vn -0.999946 0.006205 -0.008279
vn 0.000000 0.754334 0.656491
vn 0.000000 0.754334 0.656491
vn 0.000000 0.999670 0.025681
vn 0.000000 0.999670 0.025681
vn -0.998566 0.024508 0.047595
vn -0.999501 -0.011353 0.029474
vn -0.999504 -0.012446 0.028920
vn 0.000000 0.469702 -0.882825
vn 0.000000 0.469702 -0.882825
vn 0.000000 -0.036316 -0.999340
vn 0.000000 -0.036316 -0.999340
vn 0.000000 0.994477 -0.104957
vn 0.000000 0.994477 -0.104957
vn 0.000000 0.895545 -0.444971
vn 0.000000 0.895545 -0.444971
vn -0.999753 -0.015119 0.016311
vn -0.999519 -0.014787 0.027244
vn 0.716196 -0.394636 0.575610
vn 0.606356 0.291550 0.739819
vn 0.500680 0.220234 0.837148
vn 0.404399 -0.521046 0.751647
vn 0.760371 -0.563906 0.322251
vn 0.603819 -0.688894 0.401033
vn 0.951709 -0.047691 -0.303275
vn 0.704446 -0.213378 -0.676924
vn 0.444569 -0.266111 -0.855303
vn 0.459857 -0.138602 -0.877109
vn 0.913225 -0.112807 -0.391530
vn 0.973459 -0.049914 -0.223354
vn 0.459300 -0.209445 -0.863236
vn 0.448266 -0.217705 -0.866985
vn 0.963780 0.042979 0.263212
vn 0.946515 0.029945 0.321268
vn 0.463806 0.081860 0.882147
vn 0.473309 0.140136 0.869678
vn 0.828784 0.317249 0.460945
vn 0.519604 0.485037 0.703385
vn 0.798436 0.468116 0.378639
vn 0.481042 0.689935 0.540914
vn 0.909752 0.012491 0.414965
vn 0.999978 0.005764 -0.003387
vn 0.999621 -0.020245 0.018652
vn 0.205722 0.978610 -0.000250
vn 0.205722 0.978610 -0.000250
vn 0.205722 0.978610 -0.000250
vn 0.205722 0.978610 -0.000250
vn 0.666695 -0.680791 -0.303383
vn 0.684638 -0.467393 -0.559298
vn 0.998998 -0.028337 -0.034628
vn 0.976327 -0.212246 0.041686
vn 0.183290 -0.032459 -0.982523
vn 0.183036 0.982681 -0.028929
vn 0.130738 -0.722022 -0.679406
vn 0.182201 0.030970 0.982773
vn 0.129549 -0.681778 0.719997
vn 0.782993 -0.019302 -0.621731
vn 0.781217 0.624043 -0.016471
vn 0.667631 -0.542522 -0.509843
vn 0.779805 0.023100 0.625597
vn 0.658114 -0.518567 0.545870
vn 0.418617 -0.832107 -0.363809
vn 0.616677 -0.782314 0.087716
vn 0.574966 -0.814563 0.076824
vn 0.423764 -0.576955 -0.698246
vn 0.446741 -0.061995 -0.892513
vn 0.930856 -0.027947 -0.364315
vn -0.385704 -0.354972 -0.851603
vn 0.000000 0.076108 -0.997100
vn 0.999966 0.003125 0.007622
vn 0.999951 0.000788 0.009864
vn 0.999960 0.002473 0.008635
vn 0.000000 -0.098752 -0.995112
vn 0.000000 -0.098752 -0.995112
vn 0.000000 -0.098752 -0.995112
vn 0.000000 -0.098752 -0.995112
vn 0.000000 0.171914 -0.985112
vn 0.000000 0.171914 -0.985112
vn 0.000000 -0.108528 -0.994093
vn 0.000000 -0.108528 -0.994093
vn 0.000000 -0.401479 -0.915868
vn 0.000000 -0.401479 -0.915868
vn 0.000000 -0.163235 -0.986587
vn 0.000000 -0.163235 -0.986587
vn 0.999847 -0.014350 0.010050
vn 0.999898 -0.014304 0.000027
vn 0.999902 -0.013978 -0.000485
vn 0.999951 -0.008746 -0.004736
vn 0.999860 0.016671 -0.001578
vn 0.999936 0.010978 -0.002837
vn 0.999775 -0.020522 0.005461
vn 0.999949 -0.009481 -0.003632
vn 0.999946 0.006205 -0.008279
vn 0.000000 -0.725240 -0.688496
vn 0.000000 -0.725240 -0.688496
vn 0.000000 -0.933053 0.359739
vn 0.000000 -0.933053 0.359739
vn 0.000000 -0.995392 0.095888
vn 0.000000 -0.995392 0.095888
vn 0.000000 -0.626654 0.779298
vn 0.000000 -0.626654 0.779298
vn 0.000000 -0.549434 0.835537
vn 0.000000 -0.549434 0.835537
vn 0.000000 -0.307427 -0.951572
vn 0.000000 -0.307427 -0.951572
vn 0.998566 0.024508 0.047594
vn 0.999504 -0.012446 0.028920
vn 0.999501 -0.011353 0.029474
vn 0.999519 -0.014787 0.027244
vn 0.999753 -0.015119 0.016311
vn 0.999868 -0.015001 0.006294
vn 0.999966 0.003942 0.007243
vn 0.999966 0.003942 0.007243
vn 0.412015 -0.385608 -0.825561
s 1
g Machete_LOD1
f 1/16/1 34/10/2 12/12/3
f 8/14/4 23/173/5 22/174/6 11/13/7
f 10/4/8 24/172/9 23/173/5 8/14/4
f 24/172/9 10/4/8 9/1/10 33/168/11
f 3/2/12 25/171/13 33/168/11 9/1/10
f 39/3/14 40/162/15 25/171/13 3/2/12
f 30/170/16 29/164/17 4/5/18 13/6/19
f 37/11/20 38/161/21 35/167/22 34/10/2
f 41/30/23 38/161/21 37/11/20 2/17/24
s off
f 2/192/25 1/191/26 32/189/27 31/178/28
s 1
f 15/34/29 21/36/30 3/2/12
f 5/8/31 7/9/32 21/36/30
f 3/2/12 21/36/30 39/3/14
f 39/3/14 21/36/30 7/9/32
f 11/13/7 17/15/33 8/14/4
f 8/14/4 17/15/33 10/4/8
f 17/15/33 15/34/29 10/4/8
f 5/8/31 21/36/30 19/35/34 6/7/35
s 6
f 20/40/36 21/158/37 15/155/38 14/37/39
f 14/37/39 15/155/38 17/156/40 16/181/41
f 16/38/42 17/182/43 19/157/44 18/39/45
f 18/39/45 19/157/44 21/158/37 20/40/36
s 1
f 42/159/46 32/160/47 1/16/1
f 11/13/7 22/174/6 36/169/48 12/12/3
f 34/10/2 35/167/22 30/170/16 13/6/19
f 11/13/7 13/6/19 17/15/33
f 17/15/33 13/6/19 19/35/34
f 19/35/34 13/6/19 4/5/18
f 10/4/8 3/2/12 9/1/10
f 34/10/2 13/6/19 11/13/7 12/12/3
f 34/10/2 1/16/1 37/11/20
f 5/8/31 27/166/49 26/163/50 7/9/32
f 6/7/35 28/165/51 27/166/49 5/8/31
f 4/5/18 29/164/17 28/165/51 6/7/35
f 7/9/32 26/163/50 40/162/15 39/3/14
f 6/7/35 19/35/34 4/5/18
f 10/4/8 15/34/29 3/2/12
s 7
f 32/32/52 42/41/53 77/185/54
s 8
f 31/143/55 32/144/56 43/44/57 46/46/58
s 9
f 43/142/59 32/176/60 77/175/61 86/121/62
f 44/47/63 43/142/59 86/121/62 89/120/64
s 10
f 48/49/65 44/148/66 89/147/67 91/119/68
s 8
f 43/44/57 44/140/69 47/125/70
f 56/127/71 50/134/72 54/133/73
f 56/127/71 52/135/74 50/134/72
f 47/125/70 44/140/69 103/64/75
f 103/64/75 44/140/69 45/136/76
f 50/134/72 52/135/74 49/137/77
f 52/135/74 45/136/76 49/137/77
f 44/140/69 48/139/78 45/136/76
f 48/139/78 51/138/79 45/136/76
f 51/138/79 49/137/77 45/136/76
s 10
f 51/55/80 48/49/65 91/119/68 93/118/81
f 49/51/82 51/55/80 93/118/81 92/115/83
s 8
f 59/129/84 58/103/85 53/128/86
s 10
f 55/132/87 96/111/88 99/108/89 53/66/90
f 50/62/91 97/113/92 100/112/93 54/60/94
f 54/60/94 100/112/93 96/111/88 55/132/87
s 8
f 56/127/71 54/133/73 57/100/95
f 57/100/95 54/133/73 55/58/96
s 7
f 61/69/97 60/68/98 33/21/99 25/22/100
f 62/70/101 61/69/97 25/22/100 40/23/102
f 65/72/103 64/73/104 29/28/105 30/27/106
f 70/77/107 69/78/108 35/29/109 38/31/110
f 69/78/108 65/72/103 30/27/106 35/29/109
f 72/80/111 71/79/112 36/42/113 22/19/114
f 73/81/115 72/80/111 22/19/114 23/18/116
f 63/71/117 73/81/115 23/18/116 24/20/118
f 69/78/108 71/79/112 72/80/111 65/72/103
f 75/83/119 69/78/108 70/77/107
f 72/80/111 73/81/115 74/153/120
f 73/81/115 63/71/117 74/153/120
f 74/153/120 63/71/117 79/151/121
f 42/41/53 75/83/119 77/185/54
s off
f 76/188/122 78/186/123 77/124/124 75/187/125
s 7
f 67/75/126 66/74/127 80/87/128 81/88/129
s 6
f 20/40/36 14/37/39 82/89/130 85/92/131
f 14/37/39 16/181/41 83/184/132 82/89/130
f 16/38/42 18/39/45 84/91/133 83/90/134
f 18/39/45 20/40/36 85/92/131 84/91/133
f 85/92/131 82/89/130 79/86/135 81/152/136
f 82/89/130 83/184/132 74/183/137 79/86/135
f 83/90/134 84/91/133 80/154/138 74/82/139
f 84/91/133 85/92/131 81/152/136 80/154/138
s 7
f 63/71/117 60/68/98 61/69/97
f 24/20/118 33/21/99 60/68/98 63/71/117
f 69/78/108 75/83/119 71/79/112
f 27/25/140 67/75/126 68/76/141 26/24/142
f 28/26/143 66/74/127 67/75/126 27/25/140
f 29/28/105 64/73/104 66/74/127 28/26/143
f 79/151/121 61/69/97 81/88/129
f 67/75/126 81/88/129 68/76/141
f 61/69/97 62/70/101 81/88/129
f 68/76/141 81/88/129 62/70/101 40/23/102 26/24/142
f 66/74/127 64/73/104 80/87/128
f 72/80/111 74/153/120 65/72/103
f 74/153/120 80/87/128 65/72/103
f 80/87/128 64/73/104 65/72/103
f 63/71/117 61/69/97 79/151/121
f 41/180/144 76/84/145 70/77/107 38/31/110
s 1
f 31/190/146 78/177/147 41/30/23
s 19
f 88/94/148 87/93/149 86/45/150
s off
f 31/33/151 46/141/152 88/149/153 78/85/154
s 20
f 88/122/155 46/150/156 47/53/157 87/105/158
f 103/126/159 104/106/160 87/105/158 47/53/157
f 45/54/161 90/96/162 104/106/160 103/126/159
s 19
f 86/45/150 87/93/149 89/48/163
f 98/102/164 97/63/165 94/97/166
f 87/93/149 104/95/167 89/48/163
f 104/95/167 90/117/168 89/48/163
f 97/63/165 92/52/169 94/97/166
f 94/97/166 92/52/169 90/117/168
f 89/48/163 90/117/168 91/50/170
f 91/50/170 90/117/168 93/56/171
f 93/56/171 90/117/168 92/52/169
s 20
f 52/65/172 94/114/173 90/96/162 45/54/161
s 10
f 49/51/82 92/115/83 97/113/92 50/62/91
s 20
f 57/131/174 101/110/175 98/107/176 56/67/177
f 58/130/178 102/109/179 101/110/175 57/131/174
f 102/109/179 58/130/178 59/146/180 95/98/181
s 10
f 59/57/182 53/66/90 99/108/89 95/145/183
s 19
f 95/116/184 99/99/185 102/104/186
f 99/99/185 96/59/187 101/101/188 102/104/186
s 8
f 58/103/85 57/100/95 55/58/96 53/128/86
s 19
f 98/102/164 100/61/189 97/63/165
f 98/102/164 101/101/188 100/61/189
f 96/59/187 100/61/189 101/101/188
s 20
f 56/67/177 98/107/176 94/114/173 52/65/172
s 8
f 47/125/70 46/46/58 43/44/57
s 19
f 78/123/190 88/94/148 86/45/150 77/43/191
s 1
f 42/159/46 1/16/1 12/12/3 36/169/48
s 7
f 42/41/53 36/42/113 71/79/112 75/83/119
s 1
f 41/30/23 2/17/24 31/190/146
s 7
f 41/180/144 78/179/192 76/84/145
f 70/77/107 76/84/145 75/83/119
s 1
f 37/11/20 1/16/1 2/17/24
