# This file uses centimeters as units for non-parametric coordinates.

v 0.019048 -0.044699 -0.010962
v 0.000027 -0.044704 -0.022027
v -0.019057 -0.044766 -0.010951
v -0.019037 -0.044729 0.010866
v -0.000035 -0.044652 0.021878
v 0.019007 -0.044733 0.010987
v 0.025316 0.087065 -0.014628
v 0.000010 0.087064 -0.029302
v -0.025238 0.087061 -0.014563
v -0.025314 0.087089 0.014606
v 0.000001 0.087108 0.029288
v 0.025072 0.087122 0.014500
v 0.023115 0.092732 -0.013347
v -0.000000 0.092735 -0.026690
v -0.023099 0.092711 -0.013337
v -0.023112 0.092743 0.013347
v 0.000001 0.092741 0.026685
v 0.023118 0.092733 0.013347
v 0.024082 0.106388 -0.013906
v 0.000013 0.106584 -0.027858
v -0.024090 0.106385 -0.013912
v -0.024089 0.106420 0.013903
v -0.000002 0.106417 0.027832
v 0.024104 0.106415 0.013908
v 0.029394 0.115520 -0.016980
v 0.000004 0.115490 -0.033965
v -0.029259 0.115583 -0.016893
v -0.029286 0.115571 0.016909
v -0.000001 0.115542 0.033884
v 0.029325 0.115547 0.016928
v 0.036528 0.188000 -0.021079
v 0.000003 0.187960 -0.042305
v -0.036509 0.188023 -0.021084
v -0.036319 0.187969 0.020978
v -0.000014 0.187936 0.041819
v 0.036293 0.187982 0.020963
v 0.022357 0.204015 -0.012899
v 0.000026 0.204005 -0.025782
v -0.022212 0.203951 -0.012848
v -0.022111 0.203596 0.012768
v -0.000007 0.203642 0.025569
v 0.022246 0.203941 0.012853
v -0.019274 -0.000182 0.011126
v -0.019421 -0.000162 -0.011205
v 0.000014 -0.000163 -0.022386
v 0.019416 -0.000162 -0.011208
v 0.019428 -0.000161 0.011207
v 0.000011 -0.000163 0.022367
v -0.016616 0.050051 0.009597
v -0.016619 0.050050 -0.009597
v 0.000000 0.050050 -0.019203
v 0.016622 0.050049 -0.009596
v 0.016615 0.050047 0.009596
v 0.000004 0.050050 0.019206
v -0.013000 -0.069474 -0.007488
v -0.012985 -0.069464 0.007501
v 0.000008 -0.069444 0.014953
v 0.013019 -0.069472 0.007523
v 0.012989 -0.069484 -0.007509
v 0.000016 -0.069476 -0.015025
v 0.015232 0.092819 -0.015441
v 0.014661 0.105835 -0.015343
v -0.015230 0.092846 -0.015386
v -0.015265 0.105834 -0.015442
v -0.015428 0.092647 0.015282
v -0.015026 0.105835 0.015642
v 0.015557 0.092786 0.015211
v 0.015936 0.105835 0.014635
v 0.000002 -0.074178 0.000001
v 0.000004 0.204678 -0.000004
vt 0.219516 0.093289
vt 0.223067 0.173256
vt 0.264473 0.084577
vt 0.264473 0.172508
vt 0.064943 0.093192
vt 0.061302 0.173240
vt 0.104218 0.097757
vt 0.102004 0.174212
vt 0.142126 0.099285
vt 0.142213 0.174641
vt 0.179975 0.097767
vt 0.182387 0.174235
vt 0.212445 0.014226
vt 0.334334 0.099295
vt 0.310942 0.139768
vt 0.223640 0.336514
vt 0.446173 0.222618
vt 0.264473 0.336503
vt 0.403893 0.247023
vt 0.060717 0.336532
vt 0.361644 0.222602
vt 0.101460 0.336539
vt 0.361619 0.173795
vt 0.142169 0.336564
vt 0.403894 0.149398
vt 0.182845 0.336611
vt 0.446178 0.173793
vt 0.431755 0.226446
vt 0.307887 0.279331
vt 0.376036 0.226345
vt 0.307700 0.334130
vt 0.375674 0.170256
vt 0.364469 0.333692
vt 0.432349 0.170384
vt 0.362631 0.276995
vt 0.310478 0.262079
vt 0.542920 0.077871
vt 0.284936 0.306152
vt 0.542696 0.429919
vt 0.310461 0.350290
vt 0.542971 0.359563
vt 0.361336 0.350288
vt 0.542969 0.289235
vt 0.386796 0.306181
vt 0.542999 0.218757
vt 0.361372 0.262039
vt 0.542953 0.148131
vt 0.672287 0.077946
vt 0.672111 0.429919
vt 0.672311 0.359698
vt 0.672397 0.289130
vt 0.672463 0.218926
vt 0.672370 0.148465
vt 0.357900 0.058389
vt 0.381475 0.099255
vt 0.357820 0.139952
vt 0.287516 0.099317
vt 0.310792 0.058592
vt 0.101499 0.271777
vt 0.060705 0.271651
vt 0.264473 0.271612
vt 0.223615 0.271675
vt 0.182850 0.271778
vt 0.142184 0.271840
vt 0.206796 0.046522
vt 0.175135 0.051433
vt 0.142186 0.052702
vt 0.109242 0.051419
vt 0.077616 0.046592
vt 0.048441 0.033653
vt 0.518514 0.077878
vt 0.518514 0.148003
vt 0.518514 0.218855
vt 0.518514 0.289266
vt 0.518514 0.359565
vt 0.518514 0.007500
vt 0.223615 0.345216
vt 0.182874 0.345216
vt 0.142171 0.345216
vt 0.101478 0.345216
vt 0.060715 0.345216
vt 0.019841 0.345216
vt 0.080243 0.011285
vt 0.105146 0.009258
vt 0.134573 0.009048
vt 0.166074 0.008978
vt 0.192876 0.009805
vt 0.718395 0.078138
vt 0.718395 0.148497
vt 0.718395 0.218874
vt 0.718395 0.289254
vt 0.718395 0.359698
vt 0.718395 0.429919
vt 0.494247 0.138472
vt 0.470846 0.161239
vt 0.494657 0.216980
vt 0.470786 0.230233
vt 0.494657 0.286864
vt 0.470532 0.306743
vt 0.494656 0.362943
vt 0.470484 0.082983
vt 0.470895 0.362943
vt 0.494245 0.082939
vt 0.019841 0.084572
vt 0.019841 0.271583
vt 0.019841 0.172466
vt 0.019842 0.336518
vt 0.264473 0.345216
vt 0.235881 0.033637
vt 0.672360 0.007500
vt 0.718395 0.007500
vt 0.542856 0.007500
vt 0.518514 0.429919
vt 0.470786 0.216980
vt 0.494657 0.230233
vt 0.470532 0.286864
vt 0.494657 0.306743
vt 0.470436 0.138472
vt 0.494657 0.161239
vn -0.000213 0.027947 -0.999609
vn 0.865812 0.027942 -0.499589
vn 0.863116 -0.089823 -0.496954
vn -0.000347 -0.089692 -0.995970
vn -0.865829 0.028052 -0.499553
vn -0.862491 -0.089595 -0.498079
vn -0.865159 0.027446 0.500747
vn -0.862531 -0.089098 0.498099
vn -0.002772 -0.089404 0.995992
vn -0.001653 0.026987 0.999635
vn 0.865366 0.027469 0.500387
vn 0.861693 -0.090426 0.499308
vn -0.004598 0.999961 0.007490
vn -0.033143 0.999081 0.027193
vn -0.007810 0.999150 0.040470
vn 0.792697 0.403501 -0.456966
vn 0.855033 -0.166021 -0.491280
vn -0.000348 -0.165854 -0.986150
vn -0.000703 0.412036 -0.911168
vn -0.854431 -0.165042 -0.492654
vn -0.790990 0.406473 -0.457289
vn -0.854304 -0.165471 0.492731
vn -0.790335 0.409808 0.455443
vn 0.001005 -0.166178 0.986095
vn -0.000176 0.406785 0.913524
vn 0.854189 -0.164232 0.493344
vn 0.797037 0.394017 0.457693
vn 0.000734 0.001620 -0.999998
vn 0.000734 0.001620 -0.999998
vn 0.000734 0.001620 -0.999998
vn 0.000734 0.001620 -0.999998
vn -0.999902 0.014000 0.000716
vn -0.999902 0.014000 0.000716
vn -0.999902 0.014000 0.000716
vn -0.999902 0.014000 0.000716
vn 0.017380 0.007697 0.999819
vn 0.017380 0.007697 0.999819
vn 0.017380 0.007697 0.999819
vn 0.017380 0.007697 0.999819
vn 0.999628 0.006904 -0.026385
vn 0.999628 0.006904 -0.026385
vn 0.999628 0.006904 -0.026385
vn 0.999628 0.006904 -0.026385
vn 0.856679 -0.153178 -0.492583
vn 0.720568 -0.558132 -0.411426
vn -0.001503 -0.558454 -0.829534
vn -0.000479 -0.154429 -0.988004
vn -0.725109 -0.550436 -0.413808
vn -0.856603 -0.153610 -0.492580
vn -0.725050 -0.548415 0.416585
vn -0.855719 -0.151678 0.494711
vn -0.000596 -0.551643 0.834080
vn 0.000137 -0.150432 0.988620
vn 0.721603 -0.552999 0.416511
vn 0.855444 -0.151110 0.495359
vn 0.866182 0.040789 -0.498061
vn -0.000642 0.039970 -0.999201
vn -0.866085 0.040662 -0.498241
vn -0.865140 0.041099 0.499845
vn -0.000001 0.041748 0.999128
vn 0.864669 0.041642 0.500614
vn 0.605850 0.715344 -0.348179
vn 0.000230 0.717566 -0.696490
vn -0.600277 0.720822 -0.346530
vn -0.599871 0.720872 0.347128
vn 0.000730 0.717929 0.696115
vn 0.604785 0.714922 0.350888
vn -0.862438 -0.095311 -0.497108
vn -0.861989 -0.096178 0.497720
vn -0.000440 -0.095715 -0.995409
vn 0.862813 -0.094644 -0.496586
vn 0.862300 -0.093216 0.497744
vn 0.000071 -0.095575 0.995422
vn 0.799026 -0.383215 0.463361
vn 0.799857 -0.384049 -0.461233
vn -0.001630 -0.381637 0.924311
vn -0.798057 -0.383554 0.464748
vn -0.798605 -0.385019 -0.462591
vn 0.000049 -0.384502 -0.923124
vn -0.000327 -1.000000 0.000831
vn 0.009047 0.999931 -0.007467
vn 0.000731 0.999956 -0.009365
vn -0.006334 0.999943 -0.008622
vn -0.055373 -0.997490 -0.044123
vn -0.054502 -0.997664 0.041196
vn -0.064335 -0.997911 0.005846
vn -0.064292 -0.997919 -0.004829
vn 0.001049 0.999987 -0.004924
vn -0.004077 0.999989 -0.002237
vn 0.006460 0.999974 0.003149
vn 0.055303 -0.997806 0.036408
vn 0.054125 -0.997487 -0.045709
vn 0.065060 -0.997855 -0.007244
vn 0.065267 -0.997850 0.006013
vn 0.009148 0.999958 0.000910
vn 0.009292 0.999957 -0.000132
vn -0.003000 0.999994 0.001877
vn -0.002001 0.999996 0.002091
vn 0.001513 -0.998729 0.050375
vn 0.000499 -0.997901 -0.064751
vn 0.022946 0.999670 -0.011564
vn -0.001428 0.999659 -0.026070
vn -0.029095 0.999557 -0.006200
vn 0.020607 0.999554 0.021605
s 1
g MalletRound_LOD1
f 45/4/1 46/2/2 1/1/3 2/3/4
f 44/6/5 45/106/1 2/104/4 3/5/6
f 43/8/7 44/6/5 3/5/6 4/7/8
f 43/8/7 4/7/8 5/9/9 48/10/10
f 47/12/11 48/10/10 5/9/9 6/11/12
f 46/2/2 47/12/11 6/11/12 1/1/3
s 2
f 70/14/13 40/15/14 41/57/15
s 1
f 13/77/16 7/16/17 8/18/18 14/108/19
f 14/82/19 8/107/18 9/20/20 15/81/21
f 15/81/21 9/20/20 10/22/22 16/80/23
f 16/80/23 10/22/22 11/24/24 17/79/25
f 17/79/25 11/24/24 12/26/26 18/78/27
f 18/78/27 12/26/26 7/16/17 13/77/16
s off
f 62/94/28 61/118/29 63/101/30 64/103/31
f 64/100/32 63/102/33 65/99/34 66/117/35
f 66/98/36 65/116/37 67/97/38 68/115/39
f 68/96/40 67/114/41 61/95/42 62/119/43
s 4
f 25/37/44 19/71/45 20/76/46 26/112/47
f 26/39/47 20/113/46 21/75/48 27/41/49
f 27/41/49 21/75/48 22/74/50 28/43/51
f 28/43/51 22/74/50 23/73/52 29/45/53
f 29/45/53 23/73/52 24/72/54 30/47/55
f 30/47/55 24/72/54 19/71/45 25/37/44
f 31/48/56 25/37/44 26/112/47 32/110/57
f 32/49/57 26/39/47 27/41/49 33/50/58
f 33/50/58 27/41/49 28/43/51 34/51/59
f 34/51/59 28/43/51 29/45/53 35/52/60
f 35/52/60 29/45/53 30/47/55 36/53/61
f 36/53/61 30/47/55 25/37/44 31/48/56
f 37/88/62 31/48/56 32/110/57 38/111/63
f 38/93/63 32/49/57 33/50/58 39/92/64
f 39/92/64 33/50/58 34/51/59 40/91/65
f 40/91/65 34/51/59 35/52/60 41/90/66
f 41/90/66 35/52/60 36/53/61 42/89/67
f 42/89/67 36/53/61 31/48/56 37/88/62
s 1
f 10/22/22 9/20/20 50/60/68 49/59/69
f 9/20/20 8/107/18 51/105/70 50/60/68
f 8/18/18 7/16/17 52/62/71 51/61/70
f 7/16/17 12/26/26 53/63/72 52/62/71
f 12/26/26 11/24/24 54/64/73 53/63/72
f 11/24/24 10/22/22 49/59/69 54/64/73
f 49/59/69 43/8/7 48/10/10 54/64/73
f 49/59/69 50/60/68 44/6/5 43/8/7
f 50/60/68 51/105/70 45/106/1 44/6/5
f 51/61/70 52/62/71 46/2/2 45/4/1
f 52/62/71 53/63/72 47/12/11 46/2/2
f 53/63/72 54/64/73 48/10/10 47/12/11
f 58/66/74 59/65/75 1/1/3 6/11/12
f 57/67/76 58/66/74 6/11/12 5/9/9
f 56/68/77 57/67/76 5/9/9 4/7/8
f 55/69/78 56/68/77 4/7/8 3/5/6
f 60/70/79 55/69/78 3/5/6 2/104/4
f 59/65/75 60/109/79 2/3/4 1/1/3
f 56/68/77 55/69/78 69/84/80
f 57/67/76 56/68/77 69/85/80
f 58/66/74 57/67/76 69/86/80
f 59/65/75 58/66/74 69/87/80
f 60/109/79 59/65/75 69/13/80
f 55/69/78 60/70/79 69/83/80
s 5
f 61/28/81 14/19/82 63/30/83
s 6
f 64/31/84 66/33/85 22/42/86 21/40/87
s 5
f 65/32/88 17/25/89 67/34/90
s 6
f 68/35/91 62/29/92 19/36/93 24/46/94
s 5
f 67/34/90 18/27/95 13/17/96 61/28/81
f 65/32/88 63/30/83 15/21/97 16/23/98
s 6
f 23/44/99 68/35/91 24/46/94
f 20/38/100 64/31/84 21/40/87
s 2
f 70/14/13 37/54/101 38/55/102
f 70/14/13 38/55/102 39/56/103
f 70/14/13 39/56/103 40/15/14
f 70/14/13 41/57/15 42/58/104
f 70/14/13 42/58/104 37/54/101
s 6
f 62/29/92 20/38/100 19/36/93
f 62/29/92 64/31/84 20/38/100
f 66/33/85 23/44/99 22/42/86
f 66/33/85 68/35/91 23/44/99
s 5
f 61/28/81 13/17/96 14/19/82
f 63/30/83 14/19/82 15/21/97
f 65/32/88 16/23/98 17/25/89
f 67/34/90 17/25/89 18/27/95
