# This file uses centimeters as units for non-parametric coordinates.

v 0.013480 0.049729 0.014934
v 0.004157 0.049684 0.019641
v -0.006231 0.049746 0.019089
v -0.014696 0.050254 0.013205
v -0.019330 0.050347 0.004013
v -0.018958 0.050261 -0.006151
v -0.013363 0.050143 -0.014824
v -0.004168 0.049747 -0.019410
v 0.006169 0.049752 -0.019020
v 0.014903 0.049565 -0.013477
v 0.019535 0.049706 -0.004131
v 0.019012 0.049641 0.006168
v 0.009463 0.023279 0.017910
v -0.011004 0.023268 0.017216
v -0.017891 0.023274 0.009451
v -0.017155 0.023282 -0.010975
v -0.009456 0.023270 -0.017907
v 0.010979 0.023246 -0.017223
v 0.017883 0.023272 -0.009447
v 0.017175 0.023279 0.010976
v 0.017264 0.052642 0.005608
v 0.012391 0.052543 0.013674
v 0.018016 0.052529 -0.003827
v 0.013720 0.052522 -0.012329
v 0.005675 0.052487 -0.017502
v -0.003836 0.052546 -0.018026
v -0.012365 0.052572 -0.013717
v -0.017445 0.052590 -0.005674
v -0.018031 0.052548 0.003823
v -0.013728 0.052540 0.012327
v -0.005670 0.052637 0.017374
v 0.003805 0.052925 0.017843
v 0.016822 0.072934 0.005608
v 0.011720 0.072923 0.013306
v 0.017453 0.072781 -0.003737
v 0.013164 0.072858 -0.011968
v 0.005279 0.072993 -0.016929
v -0.003630 0.073082 -0.017201
v -0.011621 0.073134 -0.013095
v -0.016937 0.072773 -0.005519
v -0.017469 0.072755 0.003705
v -0.013207 0.072877 0.011953
v -0.005330 0.073084 0.016858
v 0.003648 0.073117 0.017186
v 0.025705 0.092685 0.008247
v 0.018139 0.092647 0.020187
v 0.026412 0.092678 -0.005675
v 0.020157 0.092651 -0.018134
v 0.008353 0.092680 -0.025650
v -0.005592 0.092700 -0.026345
v -0.018217 0.092622 -0.020230
v -0.025814 0.092640 -0.008383
v -0.026433 0.092671 0.005576
v -0.020195 0.092656 0.018095
v -0.008343 0.092655 0.025790
v 0.005599 0.092646 0.026522
v 0.029260 0.120040 0.009447
v 0.020522 0.120030 0.022920
v 0.029790 0.120039 -0.006519
v 0.022904 0.120035 -0.020470
v 0.009306 0.120013 -0.028960
v -0.006379 0.120038 -0.029885
v -0.020516 0.120039 -0.022920
v -0.029213 0.120043 -0.009381
v -0.029843 0.120041 0.006348
v -0.023084 0.119988 0.020301
v -0.009522 0.120023 0.029174
v 0.006160 0.120044 0.029872
v 0.027820 0.145944 0.008901
v 0.019392 0.145897 0.021767
v 0.028307 0.145990 -0.006272
v 0.021717 0.145872 -0.019364
v 0.009204 0.146061 -0.027484
v -0.006133 0.145878 -0.028232
v -0.019545 0.145951 -0.021692
v -0.027708 0.146013 -0.009043
v -0.028280 0.145917 0.006052
v -0.021409 0.145759 0.019304
v -0.009059 0.145983 0.027799
v 0.005861 0.145866 0.028450
v 0.022424 0.151982 0.007111
v 0.015748 0.152117 0.017632
v 0.022912 0.151981 -0.004931
v 0.017499 0.152094 -0.015779
v 0.007261 0.152124 -0.022445
v -0.004840 0.151866 -0.022876
v -0.015823 0.152052 -0.017575
v -0.022461 0.152150 -0.007245
v -0.022939 0.151971 0.004770
v -0.017663 0.152043 0.015779
v -0.007190 0.152081 0.022468
v 0.004896 0.152042 0.022987
v -0.000008 0.154484 0.000016
v 0.004172 -0.091281 0.005923
v -0.004525 -0.091191 0.005846
v -0.005934 -0.091282 0.003988
v -0.005962 -0.091139 -0.003979
v -0.004210 -0.090836 -0.005713
v 0.004167 -0.091266 -0.005909
v 0.005932 -0.091262 -0.003984
v 0.005930 -0.091259 0.003985
v 0.003421 -0.092874 0.005330
v -0.003773 -0.092815 0.005190
v -0.005099 -0.092853 0.003282
v -0.005227 -0.092810 -0.003254
v -0.003518 -0.092855 -0.004832
v 0.003456 -0.092920 -0.005240
v 0.005450 -0.092952 -0.003236
v 0.005237 -0.092834 0.003258
v 0.000023 -0.093501 0.000000
v 0.006817 -0.034001 0.011916
v -0.007764 -0.033961 0.011531
v -0.011912 -0.034004 0.006720
v -0.011559 -0.033929 -0.007477
v -0.006833 -0.033783 -0.011810
v 0.007573 -0.034010 -0.011566
v 0.011908 -0.033995 -0.006715
v 0.011552 -0.033990 0.007481
vt 0.947485 0.688907
vt 0.947846 0.701423
vt 0.915727 0.706637
vt 0.912280 0.679878
vt 0.948768 0.714123
vt 0.949030 0.727123
vt 0.916599 0.719735
vt 0.948801 0.739999
vt 0.916862 0.745144
vt 0.948346 0.753150
vt 0.947457 0.766352
vt 0.916212 0.757881
vt 0.946678 0.779693
vt 0.913378 0.783094
vt 0.945505 0.793194
vt 0.944580 0.807205
vt 0.911052 0.795951
vt 0.942681 0.821540
vt 0.909456 0.665600
vt 0.947666 0.676845
vt 0.740962 0.873780
vt 0.676038 0.842248
vt 0.759366 0.873721
vt 0.767710 0.756496
vt 0.759000 0.762751
vt 0.768735 0.747248
vt 0.948555 0.821540
vt 0.951945 0.676974
vt 0.949160 0.807440
vt 0.950044 0.793582
vt 0.950773 0.779963
vt 0.951431 0.766596
vt 0.951890 0.753274
vt 0.952275 0.740099
vt 0.952253 0.727029
vt 0.952120 0.714095
vt 0.952115 0.701399
vt 0.952326 0.688998
vt 0.847589 0.981244
vt 0.652443 0.981244
vt 0.829727 0.981244
vt 0.811976 0.981244
vt 0.794007 0.981244
vt 0.776663 0.981244
vt 0.759101 0.981244
vt 0.741124 0.981244
vt 0.723353 0.981244
vt 0.705447 0.981244
vt 0.687429 0.981244
vt 0.669872 0.981244
vt 0.847589 0.948190
vt 0.652271 0.948077
vt 0.829883 0.948148
vt 0.812223 0.948092
vt 0.794487 0.948062
vt 0.776751 0.947975
vt 0.758956 0.947898
vt 0.741105 0.947887
vt 0.723328 0.947919
vt 0.705541 0.947959
vt 0.687620 0.948039
vt 0.669980 0.948094
vt 0.847589 0.915499
vt 0.652300 0.915501
vt 0.829829 0.915499
vt 0.812499 0.915382
vt 0.794559 0.915253
vt 0.776896 0.915047
vt 0.759143 0.914911
vt 0.740977 0.914873
vt 0.723194 0.914936
vt 0.705729 0.915115
vt 0.687556 0.915245
vt 0.670034 0.915405
vt 0.847589 0.885922
vt 0.652292 0.886234
vt 0.829925 0.886018
vt 0.812877 0.885877
vt 0.795373 0.885221
vt 0.777099 0.885031
vt 0.759213 0.884670
vt 0.741135 0.884584
vt 0.722972 0.884702
vt 0.704986 0.885113
vt 0.687142 0.885414
vt 0.669727 0.885997
vt 0.847589 0.875019
vt 0.652241 0.876052
vt 0.830172 0.875984
vt 0.812929 0.875328
vt 0.795221 0.874785
vt 0.777558 0.874462
vt 0.723066 0.873928
vt 0.704935 0.874420
vt 0.686687 0.874738
vt 0.669245 0.875638
vt 0.770332 0.731489
vt 0.767567 0.721026
vt 0.770616 0.734338
vt 0.771414 0.744154
vt 0.771703 0.747185
vt 0.769934 0.757404
vt 0.769237 0.760541
vt 0.766470 0.717948
vt 0.767919 0.731526
vt 0.765611 0.722346
vt 0.768299 0.734994
vt 0.768952 0.743752
vt 0.766807 0.760454
vt 0.764166 0.718939
vt 0.758672 0.756260
vt 0.761557 0.750865
vt 0.759774 0.745608
vt 0.761607 0.739710
vt 0.759125 0.735646
vt 0.759957 0.728393
vt 0.757087 0.723150
vt 0.764431 0.768472
vt 0.766266 0.769990
vt 0.904309 0.821540
vt 0.634483 0.875184
vt 0.634483 0.885951
vt 0.634483 0.915477
vt 0.634483 0.948043
vt 0.979724 0.665600
vt 0.952583 0.665600
vt 0.948709 0.665600
vt 0.694950 0.840977
vt 0.713773 0.840247
vt 0.731267 0.839877
vt 0.749859 0.839408
vt 0.770544 0.840104
vt 0.786483 0.841319
vt 0.805166 0.841868
vt 0.823111 0.843021
vt 0.836809 0.842534
vt 0.644715 0.842999
vt 0.660346 0.843509
vt 0.979724 0.677108
vt 0.979724 0.688446
vt 0.979724 0.700335
vt 0.979724 0.713233
vt 0.979724 0.726675
vt 0.979724 0.740423
vt 0.979724 0.754306
vt 0.979724 0.767729
vt 0.979724 0.780981
vt 0.979724 0.794648
vt 0.979724 0.808057
vt 0.979724 0.821540
vt 0.634483 0.981244
vt 0.839924 0.700452
vt 0.843029 0.719063
vt 0.843607 0.727036
vt 0.844138 0.744649
vt 0.843958 0.752533
vt 0.841656 0.770249
vt 0.840145 0.778246
vt 0.835287 0.795765
vt 0.837963 0.691774
vn 0.074750 0.006169 0.997183
vn -0.169279 0.005805 0.985551
vn -0.277123 -0.095055 0.956121
vn 0.200740 -0.095790 0.974950
vn -0.748665 0.115011 0.652896
vn -0.997198 0.002569 0.074758
vn -0.976016 -0.091932 0.197337
vn -0.987727 0.004823 -0.156119
vn -0.957121 -0.093657 -0.274130
vn -0.663128 0.113793 -0.739806
vn -0.077649 0.003357 -0.996975
vn -0.203530 -0.094550 -0.974493
vn 0.155947 0.006656 -0.987743
vn 0.273710 -0.095676 -0.957042
vn 0.739863 0.113816 -0.663060
vn 0.997304 0.004896 -0.073218
vn 0.975290 -0.094785 -0.199565
vn 0.987063 0.007169 0.160170
vn 0.956792 -0.095360 0.274692
vn 0.665222 0.120719 0.736822
vn -0.435020 0.890315 -0.134523
vn 0.000150 1.000000 -0.000563
vn -0.296812 0.889884 -0.346424
vn 0.072052 -0.775447 -0.627288
vn -0.008058 -0.999953 0.005473
vn -0.131537 -0.773867 -0.619539
vn 0.945374 0.104469 0.308794
vn 0.666446 0.114427 0.736720
vn 0.974475 0.104116 -0.198893
vn 0.735616 0.104968 -0.669217
vn 0.303401 0.105841 -0.946967
vn -0.208789 0.106144 -0.972183
vn -0.660490 0.109438 -0.742817
vn -0.943061 0.103186 -0.316209
vn -0.973935 0.094651 0.206136
vn -0.732924 0.097946 0.673223
vn -0.299343 0.109249 0.947871
vn 0.201995 0.110315 0.973154
vn 0.948803 0.027079 0.314704
vn 0.663766 0.030985 0.747298
vn 0.979703 0.028112 -0.198476
vn 0.735932 0.031807 -0.676309
vn 0.299028 0.034152 -0.953633
vn -0.213994 0.039336 -0.976043
vn -0.661876 0.040338 -0.748527
vn -0.946206 0.032533 -0.321926
vn -0.977958 0.028932 0.206786
vn -0.733666 0.030587 0.678822
vn -0.295693 0.030337 0.954801
vn 0.200633 0.031251 0.979168
vn 0.601421 -0.431360 0.672474
vn 0.860286 -0.424346 0.282557
vn 0.924784 -0.239486 0.295669
vn 0.648058 -0.240264 0.722699
vn 0.886965 -0.423141 -0.185053
vn 0.950500 -0.238020 -0.199738
vn 0.668213 -0.425123 -0.610542
vn 0.718128 -0.238110 -0.653908
vn 0.269910 -0.426115 -0.863467
vn 0.295630 -0.236783 -0.925493
vn -0.187682 -0.430933 -0.882651
vn -0.196569 -0.239408 -0.950812
vn -0.594216 -0.436555 -0.675520
vn -0.645226 -0.241736 -0.724739
vn -0.857337 -0.429820 -0.283248
vn -0.923866 -0.238829 -0.299051
vn -0.886850 -0.421672 0.188920
vn -0.950636 -0.237384 0.199850
vn -0.669791 -0.426463 0.607873
vn -0.721748 -0.239513 0.649394
vn -0.273717 -0.432548 0.859058
vn -0.299233 -0.239544 0.923622
vn 0.185449 -0.433797 0.881719
vn 0.199652 -0.238604 0.950372
vn 0.952538 -0.036542 0.302217
vn 0.665181 -0.035929 0.745817
vn 0.977442 -0.036272 -0.208065
vn 0.740101 -0.036026 -0.671530
vn 0.303413 -0.034647 -0.952229
vn -0.198351 -0.034256 -0.979532
vn -0.665591 -0.035390 -0.745477
vn -0.952672 -0.034716 -0.302010
vn -0.977824 -0.032785 0.206847
vn -0.747887 -0.033425 0.662984
vn -0.312591 -0.035412 0.949228
vn 0.204868 -0.035550 0.978144
vn 0.936410 0.188423 0.296029
vn 0.652155 0.188162 0.734363
vn 0.960057 0.188754 -0.206550
vn 0.728869 0.185250 -0.659115
vn 0.301842 0.186220 -0.934994
vn -0.195943 0.187222 -0.962577
vn -0.654631 0.188222 -0.732141
vn -0.936092 0.187307 -0.297738
vn -0.960025 0.189000 0.206472
vn -0.733043 0.188595 0.653514
vn -0.308718 0.187391 0.932512
vn 0.201480 0.185040 0.961856
vn 0.436633 0.889311 0.135934
vn 0.307806 0.888065 0.341461
vn 0.445513 0.890442 -0.092909
vn 0.341905 0.889651 -0.302692
vn 0.131580 0.889019 -0.438556
vn -0.094757 0.887524 -0.450912
vn -0.452079 0.886217 0.101215
vn -0.352110 0.884314 0.306607
vn -0.142264 0.888843 0.435567
vn 0.096614 0.887620 0.450330
vn 0.203832 -0.110866 0.972708
vn -0.266048 -0.111504 0.957489
vn -0.240411 -0.116213 0.963689
vn 0.194022 -0.115902 0.974126
vn -0.974867 -0.109254 0.194159
vn -0.978172 -0.114445 0.173441
vn -0.958549 -0.111004 -0.262414
vn -0.969104 -0.116209 -0.217562
vn -0.208204 -0.111264 -0.971736
vn -0.207214 -0.116250 -0.971364
vn 0.260263 -0.112487 -0.958963
vn 0.228005 -0.118336 -0.966442
vn 0.972976 -0.110063 -0.202988
vn 0.974485 -0.114371 -0.193129
vn 0.958741 -0.110733 0.261830
vn 0.966666 -0.114764 0.228881
vn -0.118730 -0.782294 0.611489
vn 0.096010 -0.795167 0.598742
vn -0.575189 -0.814112 0.079868
vn -0.594660 -0.795949 -0.113336
vn 0.597257 -0.796903 -0.090716
vn 0.591960 -0.798403 0.110164
s 1
g Paintbrush_LOD0
f 2/1/1 3/2/2 14/3/3 13/4/4
f 3/2/2 4/5/5 14/3/3
f 4/5/5 5/6/6 15/7/7
f 5/6/6 6/8/8 16/9/9 15/7/7
f 6/8/8 7/10/10 16/9/9
f 7/10/10 8/11/11 17/12/12
f 8/11/11 9/13/13 18/14/14 17/12/12
f 9/13/13 10/15/15 18/14/14
f 10/15/15 11/16/16 19/17/17
f 11/16/16 12/18/18 20/120/19 19/17/17
f 13/4/4 20/19/19 1/20/20
s 6
f 88/21/21 93/131/22 87/23/23
s 1
f 107/24/24 110/112/25 106/26/26
f 1/20/20 12/127/18 21/126/27 22/28/28
f 12/18/18 11/16/16 23/29/29 21/27/27
f 11/16/16 10/15/15 24/30/30 23/29/29
f 10/15/15 9/13/13 25/31/31 24/30/30
f 9/13/13 8/11/11 26/32/32 25/31/31
f 8/11/11 7/10/10 27/33/33 26/32/32
f 7/10/10 6/8/8 28/34/34 27/33/33
f 6/8/8 5/6/6 29/35/35 28/34/34
f 5/6/6 4/5/5 30/36/36 29/35/35
f 4/5/5 3/2/2 31/37/37 30/36/36
f 3/2/2 2/1/1 32/38/38 31/37/37
f 2/1/1 1/20/20 22/28/28 32/38/38
f 22/28/28 21/126/27 33/125/39 34/139/40
f 21/27/27 23/29/29 35/149/41 33/150/39
f 23/29/29 24/30/30 36/148/42 35/149/41
f 24/30/30 25/31/31 37/147/43 36/148/42
f 25/31/31 26/32/32 38/146/44 37/147/43
f 26/32/32 27/33/33 39/145/45 38/146/44
f 27/33/33 28/34/34 40/144/46 39/145/45
f 28/34/34 29/35/35 41/143/47 40/144/46
f 29/35/35 30/36/36 42/142/48 41/143/47
f 30/36/36 31/37/37 43/141/49 42/142/48
f 31/37/37 32/38/38 44/140/50 43/141/49
f 32/38/38 22/28/28 34/139/40 44/140/50
s 6
f 34/40/51 33/151/52 45/124/53 46/52/54
f 33/39/52 35/41/55 47/53/56 45/51/53
f 35/41/55 36/42/57 48/54/58 47/53/56
f 36/42/57 37/43/59 49/55/60 48/54/58
f 37/43/59 38/44/61 50/56/62 49/55/60
f 38/44/61 39/45/63 51/57/64 50/56/62
f 39/45/63 40/46/65 52/58/66 51/57/64
f 40/46/65 41/47/67 53/59/68 52/58/66
f 41/47/67 42/48/69 54/60/70 53/59/68
f 42/48/69 43/49/71 55/61/72 54/60/70
f 43/49/71 44/50/73 56/62/74 55/61/72
f 44/50/73 34/40/51 46/52/54 56/62/74
f 46/52/54 45/124/53 57/123/75 58/64/76
f 45/51/53 47/53/56 59/65/77 57/63/75
f 47/53/56 48/54/58 60/66/78 59/65/77
f 48/54/58 49/55/60 61/67/79 60/66/78
f 49/55/60 50/56/62 62/68/80 61/67/79
f 50/56/62 51/57/64 63/69/81 62/68/80
f 51/57/64 52/58/66 64/70/82 63/69/81
f 52/58/66 53/59/68 65/71/83 64/70/82
f 53/59/68 54/60/70 66/72/84 65/71/83
f 54/60/70 55/61/72 67/73/85 66/72/84
f 55/61/72 56/62/74 68/74/86 67/73/85
f 56/62/74 46/52/54 58/64/76 68/74/86
f 58/64/76 57/123/75 69/122/87 70/76/88
f 57/63/75 59/65/77 71/77/89 69/75/87
f 59/65/77 60/66/78 72/78/90 71/77/89
f 60/66/78 61/67/79 73/79/91 72/78/90
f 61/67/79 62/68/80 74/80/92 73/79/91
f 62/68/80 63/69/81 75/81/93 74/80/92
f 63/69/81 64/70/82 76/82/94 75/81/93
f 64/70/82 65/71/83 77/83/95 76/82/94
f 65/71/83 66/72/84 78/84/96 77/83/95
f 66/72/84 67/73/85 79/85/97 78/84/96
f 67/73/85 68/74/86 80/86/98 79/85/97
f 68/74/86 58/64/76 70/76/88 80/86/98
f 70/76/88 69/122/87 81/121/99 82/88/100
f 69/75/87 71/77/89 83/89/101 81/87/99
f 71/77/89 72/78/90 84/90/102 83/89/101
f 72/78/90 73/79/91 85/91/103 84/90/102
f 73/79/91 74/80/92 86/92/104 85/91/103
f 74/80/92 75/81/93 87/23/23 86/92/104
f 75/81/93 76/82/94 88/21/21 87/23/23
f 76/82/94 77/83/95 89/93/105 88/21/21
f 77/83/95 78/84/96 90/94/106 89/93/105
f 78/84/96 79/85/97 91/95/107 90/94/106
f 79/85/97 80/86/98 92/96/108 91/95/107
f 80/86/98 70/76/88 82/88/100 92/96/108
f 82/88/100 81/121/99 93/137/22
f 93/136/22 81/87/99 83/89/101
f 93/135/22 83/89/101 84/90/102
f 93/134/22 84/90/102 85/91/103
f 93/133/22 85/91/103 86/92/104
f 93/132/22 86/92/104 87/23/23
f 89/93/105 93/130/22 88/21/21
f 90/94/106 93/129/22 89/93/105
f 91/95/107 93/128/22 90/94/106
f 92/96/108 93/22/22 91/95/107
f 82/88/100 93/138/22 92/96/108
s 1
f 111/152/109 112/153/110 95/97/111 94/98/112
f 113/154/113 96/99/114 95/97/111 112/153/110
f 113/154/113 114/155/115 97/100/116 96/99/114
f 115/156/117 98/101/118 97/100/116 114/155/115
f 115/156/117 116/157/119 99/102/120 98/101/118
f 117/158/121 100/103/122 99/102/120 116/157/119
f 117/158/121 118/159/123 101/119/124 100/103/122
f 118/160/123 111/152/109 94/98/112 101/104/124
f 18/14/14 10/15/15 19/17/17
f 1/20/20 2/1/1 13/4/4
f 12/127/18 1/20/20 20/19/19
f 14/3/3 4/5/5 15/7/7
f 16/9/9 7/10/10 17/12/12
f 94/98/112 95/97/111 103/105/125 102/106/126
f 95/97/111 96/99/114 104/107/127 103/105/125
f 96/99/114 97/100/116 105/108/128 104/107/127
f 97/100/116 98/101/118 106/26/26 105/108/128
f 98/101/118 99/102/120 107/24/24 106/26/26
f 99/102/120 100/103/122 108/109/129 107/24/24
f 100/103/122 101/119/124 109/118/130 108/109/129
f 101/104/124 94/98/112 102/106/126 109/110/130
f 102/106/126 103/105/125 110/116/25
f 110/115/25 103/105/125 104/107/127
f 110/114/25 104/107/127 105/108/128
f 110/113/25 105/108/128 106/26/26
f 108/109/129 110/111/25 107/24/24
f 109/118/130 110/25/25 108/109/129
f 102/106/126 110/117/25 109/110/130
f 13/4/4 14/3/3 112/153/110 111/152/109
f 15/7/7 113/154/113 112/153/110 14/3/3
f 15/7/7 16/9/9 114/155/115 113/154/113
f 17/12/12 115/156/117 114/155/115 16/9/9
f 17/12/12 18/14/14 116/157/119 115/156/117
f 19/17/17 117/158/121 116/157/119 18/14/14
f 19/17/17 20/120/19 118/159/123 117/158/121
f 20/19/19 13/4/4 111/152/109 118/160/123
