# This file uses centimeters as units for non-parametric coordinates.

v 0.004157 0.049683 0.019641
v -0.014696 0.050254 0.013205
v -0.018958 0.050261 -0.006151
v -0.004168 0.049747 -0.019411
v 0.014903 0.049565 -0.013477
v 0.019012 0.049641 0.006168
v 0.009463 0.023279 0.017910
v -0.011004 0.023268 0.017216
v -0.017891 0.023274 0.009451
v -0.017155 0.023282 -0.010975
v -0.009456 0.023270 -0.017907
v 0.010979 0.023246 -0.017223
v 0.017883 0.023272 -0.009447
v 0.017175 0.023279 0.010976
v 0.016822 0.072934 0.005608
v 0.013164 0.072858 -0.011968
v -0.003630 0.073082 -0.017201
v -0.016937 0.072772 -0.005519
v -0.013207 0.072876 0.011953
v 0.003648 0.073117 0.017186
v 0.025705 0.092685 0.008247
v 0.020157 0.092651 -0.018134
v -0.005592 0.092700 -0.026345
v -0.025814 0.092639 -0.008383
v -0.020195 0.092656 0.018095
v 0.005599 0.092647 0.026522
v 0.029260 0.120040 0.009447
v 0.022904 0.120035 -0.020470
v -0.006379 0.120039 -0.029885
v -0.029213 0.120043 -0.009381
v -0.023084 0.119988 0.020301
v 0.006160 0.120044 0.029872
v 0.027820 0.145944 0.008901
v 0.021717 0.145873 -0.019364
v -0.006133 0.145878 -0.028232
v -0.027708 0.146013 -0.009043
v -0.021409 0.145760 0.019303
v 0.005861 0.145867 0.028450
v 0.022424 0.151982 0.007111
v 0.017499 0.152094 -0.015779
v -0.004840 0.151866 -0.022876
v -0.022461 0.152151 -0.007245
v -0.017663 0.152043 0.015779
v 0.004896 0.152042 0.022987
v -0.000008 0.154484 0.000016
v -0.004436 -0.092834 0.004236
v -0.004372 -0.092833 -0.004043
v 0.004453 -0.092936 -0.004238
v 0.004329 -0.092854 0.004294
v 0.000023 -0.093502 0.000000
v 0.006817 -0.034001 0.011916
v -0.007764 -0.033961 0.011531
v -0.011912 -0.034004 0.006720
v -0.011559 -0.033929 -0.007477
v -0.006833 -0.033783 -0.011810
v 0.007573 -0.034010 -0.011566
v 0.011908 -0.033995 -0.006715
v 0.011552 -0.033990 0.007481
vt 0.947485 0.688907
vt 0.915727 0.706637
vt 0.912280 0.679878
vt 0.948768 0.714123
vt 0.916599 0.719735
vt 0.948801 0.739999
vt 0.916862 0.745144
vt 0.947457 0.766352
vt 0.916212 0.757881
vt 0.913378 0.783094
vt 0.945505 0.793194
vt 0.911052 0.795951
vt 0.942681 0.821540
vt 0.909456 0.665600
vt 0.740962 0.873780
vt 0.767259 0.758475
vt 0.759000 0.762751
vt 0.847589 0.981244
vt 0.811976 0.981244
vt 0.776663 0.981244
vt 0.741124 0.981244
vt 0.705447 0.981244
vt 0.669872 0.981244
vt 0.847589 0.948190
vt 0.812223 0.948092
vt 0.776751 0.947975
vt 0.741105 0.947887
vt 0.705541 0.947959
vt 0.669980 0.948094
vt 0.847589 0.915499
vt 0.812499 0.915382
vt 0.776896 0.915047
vt 0.740977 0.914873
vt 0.705729 0.915115
vt 0.670034 0.915405
vt 0.847589 0.885922
vt 0.812877 0.885877
vt 0.777099 0.885031
vt 0.741135 0.884584
vt 0.704986 0.885113
vt 0.669727 0.885997
vt 0.847589 0.875019
vt 0.812929 0.875328
vt 0.777558 0.874462
vt 0.704935 0.874420
vt 0.669245 0.875638
vt 0.768109 0.733260
vt 0.768844 0.745500
vt 0.764888 0.720642
vt 0.761557 0.750865
vt 0.761607 0.739710
vt 0.759957 0.728393
vt 0.764431 0.768472
vt 0.904309 0.821540
vt 0.634483 0.875184
vt 0.634483 0.885951
vt 0.634483 0.915477
vt 0.634483 0.948043
vt 0.979724 0.665600
vt 0.948709 0.665600
vt 0.694950 0.840977
vt 0.731267 0.839877
vt 0.770544 0.840104
vt 0.805166 0.841868
vt 0.836809 0.842534
vt 0.660346 0.843509
vt 0.979724 0.688446
vt 0.979724 0.713233
vt 0.979724 0.740423
vt 0.979724 0.767729
vt 0.979724 0.794648
vt 0.979724 0.821540
vt 0.634483 0.981244
vt 0.839924 0.700452
vt 0.843029 0.719063
vt 0.843607 0.727036
vt 0.844138 0.744649
vt 0.843958 0.752533
vt 0.841656 0.770249
vt 0.840145 0.778246
vt 0.835287 0.795765
vt 0.837963 0.691774
vn -0.285457 -0.071119 0.955749
vn 0.233166 -0.048821 0.971211
vn 0.180310 0.068602 0.981215
vn -0.742021 0.052205 0.668341
vn -0.976701 -0.069783 0.202941
vn -0.957646 0.067586 -0.279906
vn -0.949255 -0.047784 -0.310857
vn -0.183034 0.069263 -0.980664
vn -0.236633 -0.048182 -0.970404
vn 0.280146 -0.072306 -0.957231
vn 0.739250 0.053824 -0.671277
vn 0.976261 -0.072513 -0.204101
vn 0.957978 0.068891 0.278447
vn 0.948986 -0.049556 0.311401
vn -0.101860 0.857617 -0.504101
vn -0.485703 0.860118 -0.155854
vn 0.001204 0.999999 -0.001013
vn 0.691473 -0.194156 -0.695822
vn -0.006016 -0.999974 0.003838
vn -0.676706 -0.190982 -0.711052
vn 0.944592 0.099570 0.312781
vn 0.737584 0.098403 -0.668047
vn -0.202589 0.095586 -0.974588
vn -0.944386 0.093655 -0.315220
vn -0.732575 0.093035 0.674298
vn 0.209902 0.097465 0.972852
vn 0.924256 -0.233854 0.301766
vn 0.858548 -0.428830 0.281070
vn 0.670621 -0.429444 -0.604852
vn 0.720983 -0.234726 -0.651987
vn -0.188993 -0.425000 -0.885244
vn -0.202318 -0.231113 -0.951659
vn -0.858619 -0.428551 -0.281278
vn -0.922944 -0.234509 -0.305253
vn -0.671261 -0.429540 0.604073
vn -0.721425 -0.233594 0.651905
vn 0.188592 -0.429147 0.883327
vn 0.202350 -0.230868 0.951711
vn 0.948594 -0.036269 0.314412
vn 0.740434 -0.035133 -0.671210
vn -0.206857 -0.034057 -0.977778
vn -0.949805 -0.033392 -0.311055
vn -0.746028 -0.032483 0.665121
vn 0.205077 -0.034158 0.978150
vn 0.934820 0.174537 0.309270
vn 0.729316 0.175900 -0.661179
vn -0.205944 0.174149 -0.962943
vn -0.934744 0.177409 -0.307864
vn -0.729735 0.175880 0.660722
vn 0.201600 0.172954 0.964077
vn 0.484463 0.860375 0.158277
vn 0.373337 0.860928 -0.345577
vn -0.387340 0.853321 0.349015
vn 0.108017 0.858075 0.502036
vn -0.691656 -0.191763 0.696304
vn 0.674851 -0.191715 0.712616
vn 0.183731 -0.118531 0.975804
vn -0.247034 -0.119346 0.961629
vn -0.977033 -0.116848 0.178195
vn -0.962224 -0.118388 -0.245172
vn -0.189766 -0.119135 -0.974575
vn 0.239769 -0.120394 -0.963336
vn 0.976262 -0.117247 -0.182112
vn 0.962260 -0.118114 0.245165
s 1
g Paintbrush_LOD1
f 8/2/1 7/3/2 1/1/3 2/4/4
f 9/5/5 2/4/4 3/6/6 10/7/7
f 3/6/6 4/8/8 11/9/9 10/7/7
f 12/10/10 11/9/9 4/8/8 5/11/11
f 13/12/12 5/11/11 6/13/13 14/54/14
f 6/60/13 1/1/3 7/3/2 14/14/14
s 2
f 41/44/15 42/15/16 45/63/17
s 1
f 48/16/18 50/50/19 47/48/20
f 15/72/21 6/13/13 5/11/11 16/71/22
f 16/71/22 5/11/11 4/8/8 17/70/23
f 17/70/23 4/8/8 3/6/6 18/69/24
f 18/69/24 3/6/6 2/4/4 19/68/25
f 19/68/25 2/4/4 1/1/3 20/67/26
f 20/67/26 1/1/3 6/60/13 15/59/21
s 2
f 21/24/27 15/18/28 16/19/29 22/25/30
f 22/25/30 16/19/29 17/20/31 23/26/32
f 23/26/32 17/20/31 18/21/33 24/27/34
f 24/27/34 18/21/33 19/22/35 25/28/36
f 25/28/36 19/22/35 20/23/37 26/29/38
f 26/29/38 20/23/37 15/73/28 21/58/27
f 27/30/39 21/24/27 22/25/30 28/31/40
f 28/31/40 22/25/30 23/26/32 29/32/41
f 29/32/41 23/26/32 24/27/34 30/33/42
f 30/33/42 24/27/34 25/28/36 31/34/43
f 31/34/43 25/28/36 26/29/38 32/35/44
f 32/35/44 26/29/38 21/58/27 27/57/39
f 33/36/45 27/30/39 28/31/40 34/37/46
f 34/37/46 28/31/40 29/32/41 35/38/47
f 35/38/47 29/32/41 30/33/42 36/39/48
f 36/39/48 30/33/42 31/34/43 37/40/49
f 37/40/49 31/34/43 32/35/44 38/41/50
f 38/41/50 32/35/44 27/57/39 33/56/45
f 39/42/51 33/36/45 34/37/46 40/43/52
f 40/43/52 34/37/46 35/38/47 41/44/15
f 41/44/15 35/38/47 36/39/48 42/15/16
f 42/15/16 36/39/48 37/40/49 43/45/53
f 43/45/53 37/40/49 38/41/50 44/46/54
f 44/46/54 38/41/50 33/56/45 39/55/51
f 45/65/17 39/42/51 40/43/52
f 45/64/17 40/43/52 41/44/15
f 45/62/17 42/15/16 43/45/53
f 45/61/17 43/45/53 44/46/54
f 45/66/17 44/46/54 39/55/51
s 1
f 12/10/10 5/11/11 13/12/12
f 8/2/1 2/4/4 9/5/5
f 46/47/55 49/49/56 51/74/57 52/75/58
f 46/47/55 52/75/58 53/76/59
f 47/48/20 46/47/55 53/76/59 54/77/60
f 47/48/20 54/77/60 55/78/61
f 48/16/18 47/48/20 55/78/61 56/79/62
f 48/16/18 56/79/62 57/80/63
f 49/53/56 48/16/18 57/80/63 58/81/64
f 49/49/56 58/82/64 51/74/57
f 49/49/56 46/47/55 50/52/19
f 50/51/19 46/47/55 47/48/20
f 49/53/56 50/17/19 48/16/18
f 7/3/2 8/2/1 52/75/58 51/74/57
f 9/5/5 53/76/59 52/75/58 8/2/1
f 9/5/5 10/7/7 54/77/60 53/76/59
f 11/9/9 55/78/61 54/77/60 10/7/7
f 11/9/9 12/10/10 56/79/62 55/78/61
f 13/12/12 57/80/63 56/79/62 12/10/10
f 13/12/12 14/54/14 58/81/64 57/80/63
f 14/14/14 7/3/2 51/74/57 58/82/64
