# This file uses centimeters as units for non-parametric coordinates.

v 0.020792 0.784695 -0.011991
v 0.012069 0.784704 -0.020885
v -0.012069 0.784704 -0.020885
v -0.020792 0.784695 -0.011991
v -0.024195 0.784706 -0.000000
v -0.020792 0.784695 0.011991
v -0.012069 0.784704 0.020885
v 0.012069 0.784704 0.020885
v 0.020792 0.784695 0.011991
v -0.021400 0.793134 0.005734
v -0.013283 0.798275 -0.013283
v 0.004862 0.798275 -0.018145
v 0.018145 0.798275 -0.004862
v 0.013283 0.798275 0.013283
v -0.004862 0.798275 0.018145
v -0.018145 0.798275 0.004862
v 0.000000 0.798275 0.000000
v 0.010535 0.705464 0.018236
v 0.018274 0.705821 0.010528
v 0.012468 0.710373 0.021566
v 0.021698 0.710296 0.012529
v 0.012638 0.745028 0.021893
v 0.021921 0.745020 0.012659
v 0.011122 0.749700 0.019283
v 0.019305 0.749731 0.011154
v 0.017743 -0.165134 0.011409
v 0.017494 -0.223450 0.013700
v 0.016262 -0.243307 0.017534
v 0.014098 -0.221861 0.017407
v 0.085598 -0.332422 0.009018
v 0.085095 -0.325406 0.025544
v 0.085093 -0.312759 0.038235
v 0.084973 -0.296044 0.045192
v 0.085488 -0.278120 0.045180
v 0.085493 -0.261553 0.038242
v 0.085641 -0.248691 0.025671
v 0.085268 -0.241930 0.008968
v 0.000000 -0.340919 0.010695
v -0.000000 -0.333562 0.031033
v -0.000000 -0.318162 0.046525
v 0.000000 -0.298016 0.054908
v 0.000000 -0.276145 0.054860
v 0.018745 -0.254688 0.045326
v 0.017776 -0.228579 0.016895
v 0.062418 -0.237429 0.019055
v -0.021232 0.705774 -0.000000
v -0.018274 0.705821 0.010528
v -0.010535 0.705464 0.018236
v -0.012468 0.710373 0.021566
v -0.021698 0.710296 0.012529
v -0.025149 0.710294 -0.000000
v -0.021921 0.745020 0.012659
v -0.012638 0.745028 0.021893
v -0.025405 0.745021 -0.000000
v -0.011122 0.749700 0.019283
v -0.019305 0.749731 0.011154
v -0.022328 0.749768 -0.000000
v -0.014098 -0.221861 0.017407
v -0.017494 -0.223450 0.013700
v -0.016262 -0.243307 0.017534
v -0.085598 -0.332422 0.009018
v -0.085095 -0.325406 0.025544
v -0.085093 -0.312759 0.038235
v -0.084973 -0.296044 0.045192
v -0.085488 -0.278120 0.045180
v -0.085493 -0.261553 0.038242
v -0.085641 -0.248691 0.025671
v -0.085268 -0.241930 0.008968
v -0.018745 -0.254688 0.045326
v -0.017727 -0.216538 -0.000000
v -0.017776 -0.228579 0.016895
v -0.062418 -0.237429 0.019055
v 0.018274 0.705821 -0.010528
v 0.010535 0.705464 -0.018236
v 0.012468 0.710373 -0.021566
v 0.021698 0.710296 -0.012529
v 0.021921 0.745020 -0.012659
v 0.012638 0.745028 -0.021893
v 0.011122 0.749700 -0.019283
v 0.019305 0.749731 -0.011154
v 0.017743 -0.165134 -0.011409
v 0.014098 -0.221861 -0.017407
v 0.017494 -0.223450 -0.013700
v 0.016262 -0.243307 -0.017534
v 0.085598 -0.332422 -0.009018
v 0.085095 -0.325406 -0.025544
v 0.085093 -0.312759 -0.038235
v 0.084973 -0.296044 -0.045192
v 0.085488 -0.278120 -0.045180
v 0.085493 -0.261553 -0.038242
v 0.085641 -0.248691 -0.025671
v 0.085268 -0.241930 -0.008968
v -0.000000 -0.333562 -0.031033
v -0.000000 -0.340919 -0.010695
v 0.000000 -0.318162 -0.046525
v 0.000000 -0.298016 -0.054908
v -0.000000 -0.276145 -0.054860
v 0.018745 -0.254688 -0.045326
v 0.017776 -0.228579 -0.016895
v 0.062418 -0.237429 -0.019055
v -0.018274 0.705821 -0.010528
v -0.010535 0.705464 -0.018236
v -0.012468 0.710373 -0.021566
v -0.021698 0.710296 -0.012529
v -0.012638 0.745028 -0.021893
v -0.021921 0.745020 -0.012659
v -0.011122 0.749700 -0.019283
v -0.019305 0.749731 -0.011154
v -0.017494 -0.223450 -0.013700
v -0.014098 -0.221861 -0.017407
v -0.016262 -0.243307 -0.017534
v -0.085598 -0.332422 -0.009018
v -0.085095 -0.325406 -0.025544
v -0.085093 -0.312759 -0.038235
v -0.084973 -0.296044 -0.045192
v -0.085488 -0.278120 -0.045180
v -0.085493 -0.261553 -0.038242
v -0.085641 -0.248691 -0.025671
v -0.085268 -0.241930 -0.008968
v -0.018745 -0.254688 -0.045326
v -0.017776 -0.228579 -0.016895
v -0.062418 -0.237429 -0.019055
v -0.085331 -0.287115 0.000000
v 0.085331 -0.287115 0.000000
v 0.017494 -0.216538 0.000000
vt 0.463466 0.135676
vt 0.451787 0.135530
vt 0.428470 0.134534
vt 0.416327 0.133357
vt 0.403116 0.131381
vt 0.537080 0.120785
vt 0.534058 0.131812
vt 0.521483 0.133536
vt 0.497869 0.135188
vt 0.486471 0.135528
vt 0.424707 0.119370
vt 0.446561 0.120190
vt 0.469157 0.120339
vt 0.491772 0.120124
vt 0.513819 0.119206
vt 0.533230 0.114923
vt 0.480290 0.100648
vt 0.463164 0.019994
vt 0.450126 0.019994
vt 0.450141 0.026741
vt 0.463203 0.026589
vt 0.463227 0.061960
vt 0.450110 0.061988
vt 0.498691 0.169678
vt 0.486843 0.169678
vt 0.910878 0.092694
vt 0.903828 0.034242
vt 0.725911 0.435170
vt 0.718368 0.422774
vt 0.467575 0.201597
vt 0.445430 0.210996
vt 0.428431 0.227938
vt 0.419112 0.250331
vt 0.419130 0.274343
vt 0.428422 0.296537
vt 0.445262 0.313767
vt 0.467640 0.322825
vt 0.700643 0.269053
vt 0.700641 0.240842
vt 0.700640 0.297506
vt 0.700643 0.325855
vt 0.700641 0.354029
vt 0.725534 0.383664
vt 0.727320 0.430131
vt 0.781307 0.427416
vt 0.410743 0.019994
vt 0.555209 0.019994
vt 0.423780 0.019994
vt 0.423765 0.026742
vt 0.410704 0.026589
vt 0.555209 0.026573
vt 0.423793 0.061989
vt 0.410677 0.061960
vt 0.555209 0.061932
vt 0.522922 0.169678
vt 0.535506 0.169678
vt 0.403116 0.169678
vt 0.675372 0.435171
vt 0.874929 0.034242
vt 0.872785 0.012145
vt 0.492512 0.366944
vt 0.514657 0.376347
vt 0.531656 0.393288
vt 0.540976 0.415678
vt 0.540958 0.439696
vt 0.531663 0.461887
vt 0.514824 0.479116
vt 0.492446 0.488174
vt 0.675749 0.383664
vt 0.677001 0.453280
vt 0.468421 0.488174
vt 0.468354 0.366944
vt 0.700642 0.212906
vt 0.673964 0.430131
vt 0.619976 0.427425
vt 0.489564 0.019994
vt 0.502604 0.019994
vt 0.502590 0.026741
vt 0.489525 0.026589
vt 0.502621 0.061988
vt 0.489501 0.061960
vt 0.451482 0.169678
vt 0.463253 0.169678
vt 0.934767 0.092694
vt 0.726108 0.470663
vt 0.941834 0.034242
vt 0.939689 0.012145
vt 0.491732 0.201597
vt 0.513876 0.210996
vt 0.530875 0.227938
vt 0.540195 0.250331
vt 0.540177 0.274343
vt 0.530884 0.296537
vt 0.514045 0.313767
vt 0.491666 0.322825
vt 0.700641 0.184675
vt 0.700642 0.156178
vt 0.700641 0.127738
vt 0.700642 0.099378
vt 0.725809 0.069647
vt 0.727815 0.477178
vt 0.777561 0.477178
vt 0.542004 0.019994
vt 0.528961 0.019994
vt 0.528976 0.026742
vt 0.542043 0.026589
vt 0.542070 0.061960
vt 0.528947 0.061989
vt 0.427699 0.169678
vt 0.415525 0.169678
vt 0.970731 0.034242
vt 0.675175 0.470663
vt 0.682724 0.030877
vt 0.446210 0.376347
vt 0.429211 0.393288
vt 0.419891 0.415678
vt 0.419909 0.439696
vt 0.429204 0.461887
vt 0.446043 0.479116
vt 0.675474 0.069647
vt 0.673468 0.477178
vt 0.623722 0.477178
vt 0.480433 0.427641
vt 0.479653 0.262293
vt 0.542070 0.067936
vt 0.397545 0.067936
vt 0.528935 0.067936
vt 0.489502 0.067936
vt 0.502632 0.067936
vt 0.410677 0.067936
vt 0.423805 0.067936
vt 0.463226 0.067936
vt 0.450098 0.067936
vt 0.967706 0.989759
vt 0.978956 0.990127
vt 0.855248 0.990079
vt 0.945229 0.989759
vt 0.933988 0.990127
vt 0.877764 0.989759
vt 0.866514 0.990127
vt 0.911482 0.990127
vt 0.900241 0.989759
vt 0.975906 0.032606
vt 0.974435 0.027320
vt 0.972882 0.012145
vt 0.989837 0.039728
vt 0.936699 0.032606
vt 0.938136 0.027320
vt 0.718560 0.030877
vt 0.869755 0.032606
vt 0.871228 0.027320
vt 0.682915 0.422774
vt 0.908964 0.032606
vt 0.907528 0.027320
vt 0.905978 0.012145
vt 0.818819 0.269108
vt 0.818819 0.297147
vt 0.818819 0.325634
vt 0.818819 0.354221
vt 0.818819 0.383263
vt 0.818819 0.413571
vt 0.818819 0.241079
vt 0.818819 0.212870
vt 0.818819 0.184803
vt 0.818819 0.156850
vt 0.818819 0.128550
vt 0.818819 0.100649
vt 0.818819 0.073499
vt 0.818819 0.048024
vt 0.818819 0.445326
vt 0.818819 0.477178
vt 0.582464 0.241079
vt 0.582464 0.212870
vt 0.582464 0.048024
vt 0.582464 0.023726
vt 0.582464 0.073499
vt 0.582464 0.100649
vt 0.582464 0.128550
vt 0.582464 0.156850
vt 0.582464 0.184803
vt 0.582464 0.445061
vt 0.582464 0.413541
vt 0.582464 0.383266
vt 0.582464 0.354222
vt 0.582464 0.325634
vt 0.582464 0.297146
vt 0.582464 0.269108
vt 0.615695 0.023726
vt 0.674587 0.023726
vt 0.582464 0.477178
vt 0.785588 0.023726
vt 0.726696 0.023726
vt 0.818819 0.023726
vt 0.855822 0.039728
vt 0.548475 0.169678
vt 0.555209 0.067936
vt 0.548475 0.130251
vt 0.397545 0.061932
vt 0.397545 0.026573
vt 0.397545 0.019994
vt 0.990221 0.990079
vt 0.403116 0.119647
vt 0.501947 0.100578
vt 0.520090 0.100259
vt 0.419459 0.101472
vt 0.436544 0.100834
vt 0.458099 0.100686
vt 0.406903 0.114462
vt 0.922831 0.032606
vt 0.726009 0.452917
vn 0.320044 0.061126 -0.945429
vn -0.270251 0.014923 -0.962674
vn 0.227952 0.714603 -0.661348
vn -0.441725 0.799850 -0.406349
vn -0.878344 0.078887 -0.471475
vn -0.995519 0.078249 -0.053101
vn -0.849082 0.477884 0.225137
vn -0.835151 0.077664 0.544509
vn -0.173454 0.732892 0.657863
vn -0.332685 0.938815 0.089143
vn -0.309324 0.048934 0.949697
vn 0.270251 0.014923 0.962674
vn 0.967130 0.045706 0.250141
vn 0.953860 0.088991 -0.286761
vn 0.760431 0.636556 -0.128615
vn 0.614332 0.715782 0.332043
vn 0.000000 1.000000 -0.000000
vn 0.951242 0.000393 0.308446
vn 0.979852 0.000078 0.199726
vn 0.220496 -0.000215 0.975388
vn 0.244579 0.000133 0.969629
vn 0.781730 0.002293 0.623613
vn 0.185885 -0.608908 0.771154
vn 0.743005 -0.640678 0.193585
vn 0.961811 -0.081901 0.261174
vn 0.258142 -0.083002 0.962535
vn 0.743005 -0.640678 -0.193585
vn 0.961811 -0.081901 -0.261175
vn 0.963620 0.054517 0.261655
vn 0.258796 0.052585 0.964500
vn 0.963620 0.054517 -0.261655
vn 0.824559 0.525675 0.209211
vn 0.208570 0.526938 0.823914
vn 0.824559 0.525675 -0.209211
vn 0.257471 -0.050330 0.964974
vn 0.965246 -0.048004 0.256895
vn 0.965246 -0.048004 -0.256895
vn 0.001267 0.006059 0.999981
vn -0.209245 0.000155 0.977863
vn -0.001267 0.006059 0.999981
vn 0.103930 -0.977610 0.182970
vn 0.111492 -0.833177 0.541650
vn 0.000000 -0.837190 0.546912
vn 0.000000 -0.982589 0.185790
vn 0.115471 -0.553616 0.824728
vn 0.000000 -0.556670 0.830733
vn 0.115569 -0.193125 0.974344
vn 0.000000 -0.195871 0.980630
vn 0.119479 0.170049 0.978166
vn 0.000000 0.141714 0.989908
vn 0.131485 0.456498 0.879955
vn 0.083266 0.593480 0.800530
vn 0.209421 0.778996 0.591024
vn 0.172741 0.776451 0.606040
vn 0.073054 0.804083 0.590012
vn 0.217020 0.896396 0.386493
vn -0.083266 0.593480 0.800530
vn -0.217020 0.896396 0.386493
vn 0.263654 0.071003 0.962001
vn -0.918982 0.000068 0.394299
vn -0.929133 -0.000526 0.369745
vn -0.999998 -0.002089 0.000000
vn -0.999998 -0.002089 0.000000
vn -0.188234 -0.000199 0.982124
vn -0.258142 -0.083002 0.962535
vn -0.185884 -0.608908 0.771154
vn -0.859548 -0.090363 0.503003
vn -0.654802 -0.648825 0.387635
vn -0.995946 -0.089951 0.000000
vn -0.751312 -0.659948 0.000000
vn -0.258795 0.052585 0.964500
vn -0.861593 0.060061 0.504035
vn -0.998145 0.060876 0.000000
vn -0.208570 0.526938 0.823914
vn -0.726782 0.541293 0.422835
vn -0.840138 0.542373 0.000000
vn -0.257471 -0.050330 0.964974
vn -0.863268 -0.050927 0.502171
vn -0.998687 -0.051232 0.000000
vn -0.111492 -0.833177 0.541650
vn -0.103930 -0.977610 0.182970
vn -0.115471 -0.553616 0.824728
vn -0.115569 -0.193125 0.974344
vn -0.119479 0.170049 0.978166
vn -0.103930 -0.977610 -0.182970
vn -0.000000 -0.982589 -0.185790
vn -0.263654 0.071003 0.962001
vn -0.073054 0.804083 0.590012
vn -0.209421 0.778996 0.591024
vn -0.172741 0.776451 0.606040
vn -0.334344 0.931398 0.143916
vn -0.131485 0.456498 0.879955
vn 0.951242 0.000393 -0.308446
vn 0.979852 0.000078 -0.199726
vn 0.258142 -0.083002 -0.962535
vn 0.185884 -0.608908 -0.771154
vn -0.185885 -0.608908 -0.771154
vn -0.258142 -0.083002 -0.962535
vn 0.258796 0.052585 -0.964500
vn 0.208571 0.526938 -0.823914
vn -0.258796 0.052585 -0.964500
vn -0.208571 0.526938 -0.823914
vn 0.257471 -0.050330 -0.964974
vn -0.257471 -0.050330 -0.964974
vn 0.781730 0.002293 -0.623613
vn 0.244579 0.000133 -0.969629
vn 0.220496 -0.000215 -0.975388
vn 0.999990 -0.004440 -0.000000
vn -0.000000 -0.837190 -0.546912
vn 0.111492 -0.833177 -0.541650
vn 0.103930 -0.977610 -0.182970
vn -0.000000 -0.556670 -0.830733
vn 0.115471 -0.553616 -0.824728
vn -0.000000 -0.195871 -0.980630
vn 0.115569 -0.193125 -0.974344
vn -0.000000 0.141714 -0.989908
vn 0.119479 0.170049 -0.978166
vn 0.083266 0.593480 -0.800530
vn -0.083266 0.593480 -0.800530
vn 0.263654 0.071003 -0.962001
vn 0.001267 0.006059 -0.999981
vn 0.333702 0.931739 0.143200
vn 0.300676 0.953726 -0.000000
vn 0.249147 0.868076 0.429383
vn -0.217020 0.896396 -0.386493
vn 0.073054 0.804083 -0.590012
vn 0.209421 0.778996 -0.591024
vn 0.172741 0.776451 -0.606040
vn 0.333702 0.931739 -0.143200
vn 0.131485 0.456498 -0.879955
vn 0.249147 0.868076 -0.429383
vn -0.929133 -0.000526 -0.369745
vn -0.188234 -0.000199 -0.982124
vn -0.209245 0.000155 -0.977863
vn -0.918982 0.000068 -0.394299
vn -0.654802 -0.648825 -0.387635
vn -0.859548 -0.090363 -0.503003
vn -0.861593 0.060061 -0.504035
vn -0.726782 0.541293 -0.422835
vn -0.863268 -0.050927 -0.502171
vn -0.001267 0.006059 -0.999981
vn -0.111492 -0.833177 -0.541650
vn -0.115471 -0.553616 -0.824728
vn -0.115569 -0.193125 -0.974344
vn -0.119479 0.170049 -0.978166
vn -0.131485 0.456498 -0.879955
vn -0.209421 0.778996 -0.591024
vn -0.172741 0.776451 -0.606040
vn -0.073054 0.804083 -0.590012
vn 0.217020 0.896396 -0.386493
vn -0.263654 0.071003 -0.962001
vn -0.248930 0.867041 0.431595
vn -0.999984 -0.005557 0.000519
vn -0.999997 -0.002445 0.000000
vn -0.999957 -0.002016 0.009051
vn -0.999883 0.003739 0.014841
vn -0.999981 -0.000008 0.006234
vn -0.999907 -0.012530 0.005449
vn -0.999885 -0.015189 -0.000449
vn -0.999984 -0.005557 -0.000519
vn -0.999957 -0.002016 -0.009051
vn -0.999943 0.003402 -0.010124
vn -0.999943 0.003402 0.010124
vn -0.999885 -0.015189 0.000449
vn -0.999907 -0.012530 -0.005449
vn -0.999981 -0.000008 -0.006234
vn -0.999883 0.003739 -0.014841
vn -0.999882 0.008444 -0.012799
vn -0.999882 0.008444 0.012799
vn 0.999943 0.003402 0.010124
vn 0.999997 -0.002445 -0.000000
vn 0.999957 -0.002017 0.009052
vn 0.999883 0.003739 0.014841
vn 0.999882 0.008444 0.012799
vn 0.999882 0.008444 -0.012799
vn 0.999883 0.003739 -0.014841
vn 0.999981 -0.000008 -0.006234
vn 0.999907 -0.012530 -0.005449
vn 0.999885 -0.015189 0.000449
vn 0.999984 -0.005557 0.000519
vn 0.999943 0.003402 -0.010124
vn 0.999957 -0.002017 -0.009052
vn 0.999984 -0.005557 -0.000519
vn 0.999885 -0.015189 -0.000449
vn 0.999907 -0.012530 0.005449
vn 0.999981 -0.000008 0.006234
vn -0.334344 0.931398 -0.143916
vn -0.301027 0.953616 0.000000
vn -0.248930 0.867041 -0.431595
s 1
g Sledgehammer_LOD1
f 2/2/1 3/3/2 12/12/3
f 11/11/4 4/4/5 5/5/6 10/202/7
f 5/197/6 6/7/8 10/6/7
f 10/6/7 15/15/9 16/16/10
f 7/8/11 8/9/12 15/15/9
f 9/10/13 1/1/14 13/13/15 14/14/16
f 14/14/16 17/203/17 15/15/9
f 12/12/3 11/11/4 17/206/17
f 17/205/17 11/11/4 16/208/10
f 17/204/17 16/16/10 15/15/9
f 13/13/15 17/17/17 14/14/16
f 12/12/3 17/207/17 13/13/15
s 5
f 26/26/18 19/141/19 18/142/20 29/27/21 27/153/22
s 6
f 18/19/23 19/18/24 21/21/25 20/20/26
f 21/21/25 19/18/24 73/76/27 76/79/28
f 20/20/26 21/21/25 23/22/29 22/23/30
f 23/22/29 21/21/25 76/79/28 77/81/31
f 22/23/30 23/22/29 25/132/32 24/133/33
f 25/132/32 23/22/29 77/81/31 80/128/34
s 1
f 24/24/35 25/25/36 9/10/13 8/9/12
f 9/10/13 25/25/36 80/83/37 1/1/14
s 5
f 28/155/38 29/27/21 58/59/39 60/60/40
s 8
f 30/162/41 31/156/42 39/38/43 38/39/44
f 31/156/42 32/157/45 40/40/46 39/38/43
f 32/157/45 33/158/47 41/41/48 40/40/46
f 33/158/47 34/159/49 42/42/50 41/41/48
f 34/159/49 35/160/51 43/43/52 42/42/50
f 36/161/53 45/45/54 35/160/51
f 35/160/51 45/45/54 43/43/52
f 44/44/55 43/43/52 45/45/54
f 60/152/56 69/69/57 43/43/52 28/29/58
f 44/44/55 28/29/58 43/43/52
s 5
f 27/153/22 29/27/21 44/154/59
f 44/154/59 29/27/21 28/155/38
f 59/150/60 47/140/61 46/136/62 70/194/63
f 29/27/21 18/142/20 48/139/64 58/59/39
s 6
f 20/20/26 49/49/65 48/48/66 18/19/23
f 48/48/66 49/49/65 50/50/67 47/46/68
f 47/46/68 50/50/67 51/199/69 46/200/70
f 49/49/65 53/52/71 52/53/72 50/50/67
f 50/50/67 52/53/72 54/198/73 51/199/69
f 24/133/33 55/131/74 53/52/71 22/23/30
f 53/52/71 55/131/74 56/130/75 52/53/72
f 52/53/72 56/130/75 57/126/76 54/198/73
s 1
f 7/8/11 55/55/77 24/24/35 8/9/12
f 55/55/77 7/8/11 6/7/8 56/56/78
f 56/56/78 6/7/8 5/197/6 57/195/79
s 6
f 22/23/30 53/52/71 49/49/65 20/20/26
s 5
f 59/150/60 58/59/39 48/139/64 47/140/61
s 8
f 38/39/44 39/38/43 62/187/80 61/172/81
f 62/187/80 39/38/43 40/40/46 63/186/82
f 63/186/82 40/40/46 41/41/48 64/185/83
f 64/185/83 41/41/48 42/42/50 65/184/84
f 43/43/52 69/69/57 42/42/50
f 38/39/44 61/172/81 112/173/85 94/73/86
s 5
f 59/150/60 71/151/87 58/59/39
f 71/151/87 60/60/40 58/59/39
s 8
f 69/69/57 60/152/56 71/74/88
f 67/182/89 72/75/90 68/181/91
f 65/184/84 42/42/50 69/69/57 66/183/92
s 5
f 26/26/18 81/84/93 73/138/94 19/141/19
s 6
f 75/78/95 74/77/96 102/104/97 103/105/98
f 74/77/96 75/78/95 76/79/28 73/76/27
f 75/78/95 78/80/99 77/81/31 76/79/28
f 79/129/100 78/80/99 105/108/101 107/127/102
f 78/80/99 79/129/100 80/128/34 77/81/31
s 1
f 2/2/1 79/82/103 107/109/104 3/3/2
f 79/82/103 2/2/1 1/1/14 80/83/37
s 6
f 78/80/99 75/78/95 103/105/98 105/108/101
s 5
f 81/84/93 83/147/105 82/86/106 74/137/107 73/138/94
f 81/84/93 125/209/108 83/147/105
s 8
f 94/73/86 93/96/109 86/164/110 85/163/111
f 86/164/110 93/96/109 95/97/112 87/165/113
f 87/165/113 95/97/112 96/98/114 88/166/115
f 88/166/115 96/98/114 97/99/116 89/167/117
f 98/100/118 97/99/116 120/120/119
f 30/162/41 38/39/44 94/73/86 85/163/111
s 5
f 83/147/105 99/148/120 82/86/106
f 99/148/120 84/87/121 82/86/106
s 8
f 37/170/122 125/210/123 27/28/124
f 98/100/118 84/149/125 99/192/126
f 91/169/127 100/191/128 92/193/129
f 89/167/117 97/99/116 98/100/118 90/168/130
f 99/101/126 83/85/131 92/171/129 100/102/128
s 5
f 101/135/132 102/134/133 110/111/134 109/143/135
s 6
f 102/104/97 101/103/136 104/106/137 103/105/98
f 101/103/136 46/47/70 51/51/69 104/106/137
f 103/105/98 104/106/137 106/107/138 105/108/101
f 104/106/137 51/51/69 54/54/73 106/107/138
f 105/108/101 106/107/138 108/125/139 107/127/102
f 106/107/138 54/54/73 57/196/76 108/125/139
s 1
f 107/109/104 108/110/140 4/4/5 3/3/2
f 108/110/140 57/57/79 5/5/6 4/4/5
s 5
f 84/87/121 111/145/141 110/111/134 82/86/106
f 74/137/107 82/86/106 110/111/134 102/134/133
s 8
f 112/173/85 113/180/142 93/96/109 94/73/86
f 113/180/142 114/179/143 95/97/112 93/96/109
f 114/179/143 115/178/144 96/98/114 95/97/112
f 115/178/144 116/177/145 97/99/116 96/98/114
f 116/177/145 117/176/146 120/120/119 97/99/116
f 118/174/147 122/188/148 117/176/146
f 117/176/146 122/188/148 120/120/119
f 121/189/149 120/120/119 122/188/148
f 111/113/150 84/149/125 98/100/118 120/120/119
s 5
f 101/135/132 109/143/135 70/146/63 46/201/62
s 8
f 121/189/149 111/113/150 120/120/119
s 5
f 109/143/135 110/111/134 121/144/151
f 121/144/151 110/111/134 111/145/141
s 8
f 59/58/152 68/181/91 72/75/90 71/74/88
s 16
f 117/118/153 123/123/154 118/119/155
f 62/62/156 63/63/157 123/123/154
f 123/123/154 63/63/157 64/64/158
f 123/123/154 64/64/158 65/65/159
f 123/123/154 65/65/159 66/66/160
f 123/123/154 66/66/160 67/67/161
f 123/123/154 67/67/161 68/68/162
f 123/123/154 68/68/162 119/71/163
f 123/123/154 119/71/163 118/119/155
f 116/117/164 123/123/154 117/118/153
f 115/116/165 123/123/154 116/117/164
f 114/115/166 123/123/154 115/116/165
f 113/114/167 123/123/154 114/115/166
f 112/72/168 123/123/154 113/114/167
f 61/61/169 123/123/154 112/72/168
f 62/62/156 123/123/154 61/61/169
s 18
f 92/95/170 124/124/171 91/94/172
f 31/31/173 30/30/174 124/124/171
f 124/124/171 30/30/174 85/88/175
f 124/124/171 85/88/175 86/89/176
f 124/124/171 86/89/176 87/90/177
f 124/124/171 87/90/177 88/91/178
f 124/124/171 88/91/178 89/92/179
f 124/124/171 89/92/179 90/93/180
f 124/124/171 90/93/180 91/94/172
f 37/37/181 124/124/171 92/95/170
f 36/36/182 124/124/171 37/37/181
f 35/35/183 124/124/171 36/36/182
f 34/34/184 124/124/171 35/35/183
f 33/33/185 124/124/171 34/34/184
f 32/32/186 124/124/171 33/33/185
f 31/31/173 124/124/171 32/32/186
s 1
f 13/13/15 1/1/14 2/2/1 12/12/3
f 11/11/4 3/3/2 4/4/5
f 11/11/4 10/202/7 16/208/10
f 10/6/7 6/7/8 7/8/11 15/15/9
f 14/14/16 8/9/12 9/10/13
s 8
f 91/169/127 90/168/130 100/191/128
f 90/168/130 98/100/118 100/191/128
f 98/100/118 99/192/126 100/191/128
f 36/161/53 37/170/122 45/45/54
f 44/44/55 45/45/54 37/170/122 27/28/124
f 118/174/147 119/175/187 122/188/148
f 67/182/89 66/183/92 72/75/90
f 66/183/92 69/69/57 72/75/90
f 69/69/57 71/74/88 72/75/90
s 1
f 12/12/3 3/3/2 11/11/4
f 15/15/9 8/9/12 14/14/16
s 8
f 70/70/188 119/190/187 68/181/91
f 119/190/187 109/112/189 121/121/149 122/122/148
f 70/70/188 109/112/189 119/190/187
f 70/70/188 68/181/91 59/58/152
f 83/85/131 125/210/123 92/171/129
f 92/171/129 125/210/123 37/170/122
s 5
f 27/153/22 125/209/108 26/26/18
f 26/26/18 125/209/108 81/84/93
