# This file uses centimeters as units for non-parametric coordinates.

v 0.012614 -0.043494 0.012601
v -0.000004 -0.043476 0.017835
v -0.012601 -0.043494 0.012614
v -0.017833 -0.043479 -0.000017
v -0.012598 -0.043493 -0.012617
v -0.000063 -0.043471 -0.017733
v 0.012601 -0.043494 -0.012614
v 0.017830 -0.043496 -0.000022
v 0.008355 -0.072556 -0.008318
v -0.000106 -0.072504 -0.011860
v -0.008299 -0.072581 -0.008321
v -0.011814 -0.072536 0.000057
v -0.008200 -0.072617 0.008354
v -0.000143 -0.072567 0.011776
v 0.008380 -0.072589 0.008227
v 0.011777 -0.072565 -0.000161
v 0.000000 -0.074962 0.000000
v -0.015337 0.022188 -0.000015
v -0.010821 0.022183 -0.010877
v 0.000019 0.022189 -0.015338
v 0.010861 0.022184 -0.010834
v 0.015337 0.022192 -0.000010
v 0.010869 0.022191 0.010820
v -0.000007 0.022193 0.015337
v -0.010822 0.022187 0.010870
v 0.007937 0.065219 -0.007939
v 0.000020 0.065264 -0.011212
v -0.007899 0.065289 -0.007952
v -0.011212 0.065264 -0.000020
v -0.007948 0.065209 0.007924
v -0.000030 0.064971 0.010945
v 0.007908 0.065216 0.007960
v 0.011212 0.065255 -0.000016
v 0.000010 0.075239 -0.029426
v 0.000010 0.108935 -0.029432
v -0.011317 0.087875 -0.029432
v -0.004083 0.077385 -0.029403
v 0.000011 0.088452 -0.022333
v 0.000010 0.079538 -0.025107
v -0.003287 0.081227 -0.025090
v -0.004390 0.084316 -0.024028
v 0.011338 0.087875 -0.029431
v 0.004104 0.077383 -0.029398
v 0.003312 0.081246 -0.025087
v 0.004398 0.084317 -0.024031
v -0.038280 0.124180 -0.031388
v -0.012052 0.208724 -0.031369
v -0.004294 0.075740 -0.031264
v 0.001256 0.225903 -0.031492
v -0.000046 0.073709 -0.031213
v 0.012057 0.208647 -0.031424
v 0.038321 0.124253 -0.031398
v 0.004295 0.075734 -0.031266
v -0.038294 0.124211 -0.030597
v -0.012051 0.208735 -0.030573
v -0.004392 0.075881 -0.029656
v 0.001081 0.225881 -0.030205
v 0.000075 0.073769 -0.029772
v 0.012039 0.208661 -0.030583
v 0.038392 0.124239 -0.030586
v 0.004416 0.075882 -0.029683
v 0.002955 0.077751 -0.002960
v 0.000001 0.077751 -0.004258
v -0.002943 0.077756 -0.002978
v -0.003916 0.077726 -0.000071
v 0.000023 0.077589 0.003457
v 0.003915 0.077730 -0.000056
v 0.000025 0.087158 -0.004697
v -0.003907 0.084228 -0.005842
v -0.002957 0.081015 -0.005446
v 0.000001 0.080162 -0.006238
v 0.002963 0.081017 -0.005442
v 0.003908 0.084197 -0.005834
v -0.000020 0.082922 0.001400
v -0.003904 0.081644 -0.001497
v 0.003903 0.081621 -0.001541
v -0.013808 0.088692 -0.031303
v 0.013845 0.088676 -0.031300
v -0.013803 0.088692 -0.029595
v 0.013822 0.088695 -0.029584
v 0.002778 0.069806 -0.002784
v -0.000002 0.069807 -0.003944
v -0.002797 0.069810 -0.002777
v -0.003928 0.069805 -0.000005
v -0.002759 0.069800 0.002786
v 0.000007 0.069793 0.003914
v 0.002770 0.069804 0.002774
v 0.003931 0.069805 -0.000012
v -0.002288 0.225033 -0.031443
v -0.002049 0.225264 -0.030532
v 0.007751 0.216039 -0.031464
v 0.007768 0.215434 -0.030277
v 0.007495 0.213694 -0.031518
v 0.008055 0.212959 -0.029894
vt 0.583818 0.986432
vt 0.584137 0.789566
vt 0.584116 0.958271
vt 0.584596 0.930074
vt 0.584870 0.901918
vt 0.585006 0.873879
vt 0.584868 0.845789
vt 0.584571 0.817688
vt 0.511080 0.791061
vt 0.510205 0.765462
vt 0.510896 0.956666
vt 0.510736 0.929397
vt 0.510233 0.901525
vt 0.510228 0.874246
vt 0.510223 0.845575
vt 0.510671 0.817625
vt 0.477408 0.943504
vt 0.728580 0.789604
vt 0.728341 0.817751
vt 0.728115 0.845762
vt 0.728034 0.873840
vt 0.728115 0.901729
vt 0.728356 0.929901
vt 0.728618 0.958157
vt 0.728722 0.761278
vt 0.860595 0.793895
vt 0.860595 0.761278
vt 0.860595 0.953808
vt 0.860595 0.925910
vt 0.860595 0.899638
vt 0.860595 0.873918
vt 0.860595 0.848180
vt 0.860595 0.821752
vt 0.903692 0.789437
vt 0.897280 0.806192
vt 0.897074 0.941460
vt 0.895393 0.920726
vt 0.895268 0.897600
vt 0.895375 0.873819
vt 0.895315 0.849941
vt 0.895454 0.826948
vt 0.239466 0.475882
vt 0.294813 0.475835
vt 0.295465 0.032717
vt 0.301548 0.023294
vt 0.306934 0.509521
vt 0.300188 0.447969
vt 0.297196 0.456874
vt 0.293314 0.064404
vt 0.341278 0.036705
vt 0.312735 0.022671
vt 0.300217 0.503593
vt 0.299718 0.019907
vt 0.311422 0.018870
vt 0.347739 0.035352
vt 0.297225 0.494761
vt 0.297756 0.016984
vt 0.289572 0.027136
vt 0.220165 0.011836
vt 0.084715 0.074879
vt 0.252052 0.171278
vt 0.088215 0.322803
vt 0.039273 0.309014
vt 0.035674 0.292245
vt 0.349615 0.031455
vt 0.284603 0.069001
vt 0.279254 0.178498
vt 0.487202 0.355321
vt 0.444117 0.331648
vt 0.496361 0.354019
vt 0.486831 0.357701
vt 0.493846 0.351709
vt 0.288897 0.069316
vt 0.292851 0.029672
vt 0.496668 0.300682
vt 0.447275 0.081616
vt 0.493082 0.315369
vt 0.495442 0.321500
vt 0.351456 0.475684
vt 0.362190 0.475818
vt 0.350545 0.460364
vt 0.359648 0.459484
vt 0.356820 0.451079
vt 0.355186 0.509333
vt 0.356854 0.500367
vt 0.350532 0.491274
vt 0.359656 0.491972
vt 0.337704 0.475819
vt 0.339950 0.459811
vt 0.345871 0.451570
vt 0.346555 0.509333
vt 0.345872 0.499917
vt 0.339999 0.491773
vt 0.035757 0.313812
vt 0.377362 0.500022
vt 0.377362 0.491366
vt 0.377362 0.483337
vt 0.377369 0.475771
vt 0.377365 0.468213
vt 0.377362 0.460165
vt 0.377359 0.451530
vt 0.377361 0.509333
vt 0.278043 0.506649
vt 0.296549 0.519506
vt 0.307080 0.426942
vt 0.343897 0.096666
vt 0.277985 0.445060
vt 0.296413 0.432118
vt 0.377361 0.442165
vt 0.355176 0.442165
vt 0.346541 0.442165
vt 0.306871 0.442034
vt 0.307248 0.524614
vt 0.497559 0.316641
vt 0.498787 0.300399
vt 0.498642 0.322507
vt 0.046340 0.346103
vt 0.442834 0.333160
vt 0.183000 0.028056
vt 0.243355 0.062946
vt 0.310897 0.014825
vt 0.238910 0.022677
vt 0.232196 0.012887
vt 0.449051 0.080446
vt 0.037505 0.343535
vt 0.277380 0.179386
vt 0.903387 0.958254
vt 0.860595 0.986432
vt 0.728779 0.986432
vt 0.510381 0.981596
vt 0.583854 0.761278
vt 0.476241 0.915596
vt 0.475458 0.888238
vt 0.475813 0.859763
vt 0.476100 0.831194
vt 0.477301 0.803878
vt 0.479475 0.779619
vt 0.479377 0.968029
vn 0.000653 -0.029491 -0.999565
vn 0.704288 -0.029540 -0.709299
vn 0.670377 -0.301090 -0.678188
vn -0.000623 -0.298887 -0.954288
vn -0.706733 -0.029564 -0.706862
vn -0.676094 -0.302314 -0.671940
vn -0.999556 -0.029808 0.000396
vn -0.953481 -0.301434 0.003300
vn -0.707613 -0.029516 0.705983
vn -0.674085 -0.302266 0.673976
vn 0.002235 -0.029814 0.999553
vn 0.001865 -0.301605 0.953431
vn 0.706939 -0.030416 0.706620
vn 0.674775 -0.303584 0.672693
vn 0.999563 -0.029574 -0.000260
vn 0.953530 -0.301290 -0.002054
vn 0.705041 0.057936 0.706796
vn 0.001063 0.058237 0.998302
vn -0.705268 0.057877 0.706574
vn -0.998353 0.057374 -0.000478
vn -0.704952 0.057228 -0.706943
vn 0.001317 0.056771 -0.998386
vn 0.704917 0.056982 -0.706998
vn 0.998356 0.057326 -0.000054
vn 0.000297 -0.999998 -0.002085
vn -0.987035 0.160489 -0.002143
vn -0.696903 0.160686 -0.698933
vn 0.000728 0.160593 -0.987020
vn 0.698014 0.160159 -0.697944
vn 0.986935 0.161118 0.000493
vn 0.695638 0.162102 0.699865
vn 0.000140 0.160915 0.986968
vn -0.697396 0.161936 0.698151
vn 0.003091 0.848109 -0.529813
vn 0.376419 0.846838 -0.375731
vn -0.374049 0.849028 -0.373149
vn -0.529475 0.848316 0.004159
vn -0.365712 0.844013 0.392298
vn -0.000410 0.830105 0.557607
vn 0.366388 0.844032 0.391624
vn 0.530519 0.847672 0.001153
vn -0.000083 0.327474 0.944860
vn -0.576585 0.153995 0.802393
vn 0.000971 0.717682 0.696370
vn -0.936451 0.086861 0.339873
vn -0.544753 -0.566993 0.617870
vn 0.000252 -0.710062 0.704139
vn 0.001407 -0.969300 0.245879
vn -0.691351 -0.655606 0.303668
vn 0.543875 -0.566349 0.619233
vn 0.691133 -0.655365 0.304683
vn 0.123803 -0.113064 0.985845
vn 0.002067 -0.194033 0.980993
vn 0.017706 -0.832898 0.553144
vn 0.663198 -0.606331 0.438784
vn 0.089798 -0.030874 0.995481
vn 0.184741 -0.100648 0.977620
vn 0.936164 0.086337 0.340797
vn 0.576264 0.154216 0.802582
vn -0.000272 -0.025562 -0.999673
vn 0.000024 -0.003038 -0.999995
vn 0.000024 -0.003035 -0.999995
vn -0.000499 -0.000672 -1.000000
vn -0.000499 -0.000671 -1.000000
vn -0.000056 -0.002588 -0.999997
vn -0.000056 -0.002588 -0.999997
vn -0.000705 -0.000112 -1.000000
vn -0.005287 -0.009159 -0.999944
vn -0.000655 -0.000171 -1.000000
vn -0.940836 0.338842 -0.003568
vn -0.995125 -0.098350 -0.007306
vn -0.080525 0.004013 0.996745
vn -0.056785 0.027322 0.998012
vn -0.817661 -0.575689 0.003626
vn -0.184161 -0.099873 0.977809
vn 0.714004 0.682635 0.155589
vn -0.799996 0.599227 0.030549
vn -0.121439 0.091913 0.988334
vn 0.319559 0.351562 0.879935
vn -0.000159 0.008880 0.999961
vn -0.088306 -0.026970 0.995728
vn -0.732117 -0.680961 0.017228
vn -0.661711 -0.606236 0.441154
vn -0.117150 -0.106705 0.987365
vn -0.025058 -0.998368 0.051316
vn 0.996528 -0.078901 -0.026595
vn 0.941416 0.336344 -0.024663
vn 0.054482 0.024400 0.998217
vn 0.080227 0.003883 0.996769
vn 0.910805 0.405901 -0.075357
vn 0.079693 -0.004580 0.996809
vn 0.731133 -0.682136 0.011587
vn 0.817404 -0.576008 -0.008067
vn 0.002092 0.278973 0.960297
vn -0.001123 0.628123 0.778113
vn -0.796803 0.417095 0.437191
vn -0.934403 0.127981 0.332433
vn -0.764515 -0.639672 -0.079595
vn -0.771293 -0.135622 -0.621864
vn 0.001651 -0.995121 -0.098649
vn 0.001296 -0.253616 -0.967304
vn 0.763133 -0.641302 -0.079740
vn 0.771392 -0.135979 -0.621662
vn 0.798126 0.416071 0.435751
vn 0.933909 0.132124 0.332199
vn 0.003233 0.983543 0.180644
vn -0.879902 0.463825 0.103142
vn 0.881129 0.461261 0.104161
vn 0.719302 -0.025798 -0.694219
vn 0.001041 -0.035959 -0.999353
vn -0.719979 -0.025796 -0.693516
vn -0.994111 -0.008161 -0.108063
vn -0.689075 0.078951 0.720377
vn 0.691506 0.076622 0.718295
vn 0.993799 -0.008775 -0.110843
vn 0.861669 0.485426 0.147946
vn 0.089806 0.083422 0.992459
vn -0.006041 -0.000153 -0.999982
vn -0.005065 -0.003231 -0.999982
vn -0.005065 -0.003231 -0.999982
vn 0.001378 0.058476 0.998288
s 1
g Trowel_LOD1
f 6/131/1 7/2/2 9/9/3 10/10/4
f 5/3/5 6/1/1 10/130/4 11/11/6
f 4/4/7 5/3/5 11/11/6 12/12/8
f 3/5/9 4/4/7 12/12/8 13/13/10
f 2/6/11 3/5/9 13/13/10 14/14/12
f 1/7/13 2/6/11 14/14/12 15/15/14
f 8/8/15 1/7/13 15/15/14 16/16/16
f 7/2/2 8/8/15 16/16/16 9/9/3
f 2/6/11 1/7/13 23/20/17 24/21/18
f 3/5/9 2/6/11 24/21/18 25/22/19
f 4/4/7 3/5/9 25/22/19 18/23/20
f 5/3/5 4/4/7 18/23/20 19/24/21
f 6/1/1 5/3/5 19/24/21 20/129/22
f 21/18/23 7/2/2 6/131/1 20/25/22
f 8/8/15 7/2/2 21/18/23 22/19/24
f 1/7/13 8/8/15 22/19/24 23/20/17
f 10/10/4 9/9/3 17/137/25
f 9/9/3 16/16/16 17/136/25
f 16/16/16 15/15/14 17/135/25
f 15/15/14 14/14/12 17/134/25
f 14/14/12 13/13/10 17/133/25
f 13/13/10 12/12/8 17/132/25
f 12/12/8 11/11/6 17/17/25
f 11/11/6 10/130/4 17/138/25
f 19/24/21 18/23/20 29/29/26 28/28/27
f 20/129/22 19/24/21 28/28/27 27/128/28
f 21/18/23 20/25/22 27/27/28 26/26/29
f 22/19/24 21/18/23 26/26/29 33/33/30
f 23/20/17 22/19/24 33/33/30 32/32/31
f 24/21/18 23/20/17 32/32/31 31/31/32
f 25/22/19 24/21/18 31/31/32 30/30/33
f 18/23/20 25/22/19 30/30/33 29/29/26
f 27/27/28 82/34/34 81/35/35 26/26/29
f 28/28/27 83/36/36 82/127/34 27/128/28
f 29/29/26 84/37/37 83/36/36 28/28/27
f 30/30/33 85/38/38 84/37/37 29/29/26
f 31/31/32 86/39/39 85/38/38 30/30/33
f 32/32/31 87/40/40 86/39/39 31/31/32
f 33/33/30 88/41/41 87/40/40 32/32/31
f 26/26/29 81/35/35 88/41/41 33/33/30
s 2
f 35/42/42 36/107/43 38/43/44
f 36/107/43 41/48/45 38/43/44
f 37/108/46 34/105/47 39/112/48 40/47/49
f 43/104/50 44/52/51 39/46/48 34/113/47
s 4
f 43/51/52 34/45/53 58/53/54 61/54/55
f 42/50/56 43/51/52 61/54/55 80/55/57
s 2
f 45/56/58 44/52/51 43/104/50 42/103/59
s 5
f 50/123/60 48/122/61 53/59/62
f 46/61/63 52/60/64 78/119/65 77/120/66
f 47/62/67 93/63/68 51/64/69
f 51/64/69 52/60/64 46/61/63 47/62/67
s 4
f 47/118/70 46/126/71 54/67/72 55/69/73
f 54/67/72 46/126/71 77/66/74 79/73/75
f 49/70/76 89/71/77 90/68/78 57/72/79
f 35/106/80 79/73/75 36/49/81
f 48/58/82 56/74/83 79/73/75 77/66/74
f 56/74/83 37/44/84 36/49/81 79/73/75
f 37/44/84 56/74/83 58/53/54 34/45/53
f 58/53/54 56/74/83 48/58/82 50/57/85
f 52/124/86 51/115/87 59/75/88 60/76/89
f 51/115/87 93/114/90 94/77/91 59/75/88
f 61/54/55 53/121/92 78/65/93 80/55/57
f 80/55/57 60/76/89 35/106/80
f 58/53/54 50/57/85 53/121/92 61/54/55
s 2
f 66/80/94 74/79/95 75/81/96 65/82/97
f 75/81/96 70/90/98 64/83/99 65/82/97
f 70/90/98 71/111/100 63/110/101 64/83/99
f 71/91/100 72/92/102 62/85/103 63/84/101
f 72/92/102 76/86/104 67/87/105 62/85/103
f 67/87/105 76/86/104 74/79/95 66/80/94
f 68/88/106 38/43/44 41/48/45 69/89/107
f 70/90/98 69/89/107 41/48/45 40/47/49
f 71/111/100 70/90/98 40/47/49 39/112/48
f 72/92/102 71/91/100 39/46/48 44/52/51
f 73/93/108 72/92/102 44/52/51 45/56/58
f 73/93/108 45/56/58 38/43/44 68/88/106
f 74/79/95 68/88/106 69/89/107 75/81/96
f 69/89/107 70/90/98 75/81/96
f 72/92/102 73/93/108 76/86/104
f 76/86/104 73/93/108 68/88/106 74/79/95
s 5
f 48/122/61 77/120/66 78/119/65 53/59/62
s 4
f 80/55/57 78/65/93 52/124/86 60/76/89
s 2
f 81/95/109 82/102/110 63/84/101 62/85/103
f 82/109/110 83/101/111 64/83/99 63/110/101
f 83/101/111 84/100/112 65/82/97 64/83/99
f 66/80/94 65/82/97 85/99/113
f 67/87/105 66/80/94 87/97/114
f 88/96/115 81/95/109 62/85/103 67/87/105
s 4
f 89/71/77 47/118/70 55/69/73 90/68/78
f 91/116/116 49/70/76 57/72/79 92/78/117
f 93/114/90 91/116/116 92/78/117 94/77/91
s 5
f 47/62/67 91/94/118 93/63/68
f 49/125/119 91/94/118 47/62/67 89/117/120
s 4
f 54/67/72 35/106/80 55/69/73
f 60/76/89 59/75/88 35/106/80
f 57/72/79 90/68/78 92/78/117
f 90/68/78 55/69/73 92/78/117
f 92/78/117 55/69/73 94/77/91
f 35/106/80 59/75/88 55/69/73
f 59/75/88 94/77/91 55/69/73
f 42/50/56 80/55/57 35/106/80
f 54/67/72 79/73/75 35/106/80
s 2
f 41/48/45 36/107/43 37/108/46 40/47/49
f 38/43/44 45/56/58 42/103/59
f 35/42/42 38/43/44 42/103/59
f 87/97/114 66/80/94 86/98/121
f 67/87/105 87/97/114 88/96/115
f 85/99/113 65/82/97 84/100/112
f 66/80/94 85/99/113 86/98/121
