# This file uses centimeters as units for non-parametric coordinates.

v 0.011341 -0.068008 -0.011392
v 0.000036 -0.067841 -0.015528
v -0.011412 -0.067946 -0.011360
v -0.016093 -0.067968 -0.000017
v -0.011323 -0.068031 0.011395
v 0.000013 -0.067929 0.016096
v 0.011335 -0.067934 0.011435
v 0.016067 -0.068008 -0.000036
v 0.012614 -0.043494 0.012601
v -0.000004 -0.043476 0.017835
v -0.012601 -0.043494 0.012614
v -0.017833 -0.043479 -0.000017
v -0.012598 -0.043493 -0.012617
v -0.000063 -0.043471 -0.017733
v 0.012602 -0.043494 -0.012614
v 0.017830 -0.043496 -0.000022
v -0.009356 0.043774 0.009378
v -0.013243 0.043834 -0.000034
v -0.009345 0.043779 -0.009386
v 0.000026 0.043808 -0.013239
v 0.009369 0.043777 -0.009365
v 0.013241 0.043810 0.000031
v 0.009368 0.043832 0.009352
v -0.000038 0.043802 0.013242
v 0.008355 -0.072556 -0.008318
v -0.000106 -0.072504 -0.011860
v -0.008299 -0.072581 -0.008321
v -0.011814 -0.072536 0.000057
v -0.008200 -0.072617 0.008354
v -0.000143 -0.072567 0.011776
v 0.008380 -0.072589 0.008227
v 0.011777 -0.072565 -0.000161
v 0.000000 -0.074962 0.000000
v 0.011782 0.000292 -0.011772
v 0.016658 0.000292 -0.000010
v 0.011774 0.000293 0.011781
v 0.000013 0.000294 0.016656
v -0.011771 0.000293 0.011785
v -0.016659 0.000298 -0.000028
v -0.011797 0.000291 -0.011758
v 0.000019 0.000296 -0.016623
v -0.015337 0.022188 -0.000015
v -0.010821 0.022183 -0.010877
v 0.000019 0.022189 -0.015338
v 0.010861 0.022184 -0.010834
v 0.015337 0.022192 -0.000010
v 0.010869 0.022191 0.010820
v -0.000007 0.022193 0.015337
v -0.010822 0.022187 0.010870
v 0.007937 0.065219 -0.007939
v 0.000020 0.065263 -0.011212
v -0.007899 0.065289 -0.007952
v -0.011212 0.065264 -0.000020
v -0.007948 0.065209 0.007924
v -0.000030 0.064971 0.010945
v 0.007908 0.065216 0.007960
v 0.011212 0.065254 -0.000016
v 0.006474 0.067951 -0.006485
v 0.000027 0.067933 -0.009190
v -0.006519 0.067889 -0.006530
v -0.009212 0.067906 -0.000037
v -0.006527 0.067894 0.006509
v 0.000052 0.067883 0.009227
v 0.006539 0.067887 0.006511
v 0.009222 0.067894 -0.000011
v 0.000010 0.075239 -0.029426
v 0.000010 0.108935 -0.029432
v -0.011317 0.087875 -0.029432
v -0.004083 0.077384 -0.029403
v 0.000019 0.091535 -0.024413
v -0.005706 0.089873 -0.026423
v -0.003071 0.087177 -0.022887
v 0.000011 0.088452 -0.022333
v 0.000010 0.079537 -0.025107
v -0.003287 0.081228 -0.025090
v -0.007811 0.082554 -0.029250
v -0.004390 0.084316 -0.024028
v 0.011338 0.087875 -0.029431
v 0.005725 0.089875 -0.026419
v 0.003090 0.087175 -0.022888
v 0.004104 0.077383 -0.029398
v 0.003312 0.081246 -0.025087
v 0.007819 0.082562 -0.029252
v 0.004398 0.084317 -0.024031
v -0.038280 0.124180 -0.031388
v -0.012052 0.208724 -0.031369
v -0.019287 0.096601 -0.031337
v -0.004294 0.075740 -0.031264
v 0.001256 0.225903 -0.031492
v -0.000046 0.073709 -0.031213
v 0.019292 0.096621 -0.031400
v 0.012057 0.208647 -0.031424
v 0.038321 0.124253 -0.031398
v 0.004295 0.075734 -0.031266
v -0.009672 0.208836 -0.029519
v -0.034888 0.125120 -0.029461
v -0.038294 0.124212 -0.030597
v -0.012051 0.208736 -0.030573
v -0.019392 0.096524 -0.030483
v -0.017613 0.099616 -0.029439
v -0.004392 0.075881 -0.029656
v 0.000010 0.208851 -0.029432
v 0.000001 0.223527 -0.029501
v 0.001081 0.225882 -0.030205
v 0.000075 0.073769 -0.029772
v 0.009755 0.208838 -0.029642
v 0.017633 0.099617 -0.029443
v 0.019414 0.096524 -0.030482
v 0.012039 0.208660 -0.030583
v 0.038392 0.124239 -0.030586
v 0.034906 0.125116 -0.029462
v 0.004416 0.075882 -0.029683
v 0.002955 0.077751 -0.002960
v 0.000001 0.077751 -0.004258
v -0.002943 0.077756 -0.002978
v -0.003916 0.077726 -0.000071
v -0.002590 0.077628 0.002500
v 0.000023 0.077589 0.003457
v 0.002553 0.077661 0.002522
v 0.003915 0.077730 -0.000056
v 0.000026 0.087352 -0.016589
v -0.002828 0.086204 -0.016506
v -0.003915 0.083382 -0.016330
v -0.002670 0.080755 -0.016151
v 0.000042 0.079715 -0.016064
v 0.002676 0.080727 -0.016134
v 0.003939 0.083365 -0.016325
v 0.002857 0.086177 -0.016508
v 0.000025 0.087158 -0.004697
v -0.002529 0.086383 -0.005010
v -0.003907 0.084228 -0.005842
v -0.002932 0.081645 -0.006833
v 0.000002 0.080530 -0.007280
v 0.002941 0.081643 -0.006823
v 0.003908 0.084197 -0.005834
v 0.002552 0.086368 -0.004983
v -0.000020 0.082922 0.001400
v -0.002483 0.082627 0.000644
v -0.003904 0.081644 -0.001497
v -0.002982 0.080385 -0.004059
v -0.000001 0.079796 -0.005196
v 0.002985 0.080390 -0.004062
v 0.003903 0.081621 -0.001541
v 0.002571 0.082544 0.000631
v -0.009346 0.082282 -0.031329
v 0.009396 0.082262 -0.031370
v -0.009351 0.082279 -0.029569
v 0.009394 0.082262 -0.029600
v -0.013808 0.088691 -0.031303
v 0.013845 0.088677 -0.031300
v -0.013803 0.088692 -0.029595
v 0.013822 0.088695 -0.029584
v 0.002778 0.069806 -0.002784
v -0.000002 0.069806 -0.003944
v -0.002797 0.069810 -0.002777
v -0.003928 0.069805 -0.000005
v -0.002759 0.069800 0.002786
v 0.000007 0.069793 0.003914
v 0.002770 0.069804 0.002774
v 0.003931 0.069805 -0.000012
v -0.002288 0.225033 -0.031443
v -0.002049 0.225264 -0.030532
v 0.007751 0.216039 -0.031464
v 0.007768 0.215434 -0.030277
v 0.007495 0.213694 -0.031518
v 0.008055 0.212959 -0.029894
v 0.006134 0.214291 -0.029589
vt 0.526232 0.790189
vt 0.526232 0.761278
vt 0.583818 0.986432
vt 0.584137 0.789566
vt 0.526232 0.957297
vt 0.584116 0.958271
vt 0.526232 0.929603
vt 0.584596 0.930074
vt 0.526232 0.901662
vt 0.584870 0.901918
vt 0.526232 0.873855
vt 0.585006 0.873879
vt 0.526232 0.846061
vt 0.584868 0.845789
vt 0.526232 0.818009
vt 0.584571 0.817688
vt 0.677925 0.845753
vt 0.677927 0.873808
vt 0.677942 0.901911
vt 0.677978 0.930113
vt 0.677995 0.958167
vt 0.677924 0.761278
vt 0.677926 0.789451
vt 0.677928 0.817589
vt 0.511080 0.791061
vt 0.510205 0.765462
vt 0.510896 0.956666
vt 0.510736 0.929397
vt 0.510233 0.901525
vt 0.510228 0.874246
vt 0.510223 0.845575
vt 0.510671 0.817625
vt 0.477408 0.943504
vt 0.728580 0.789604
vt 0.728341 0.817751
vt 0.728115 0.845762
vt 0.728034 0.873840
vt 0.728115 0.901729
vt 0.728356 0.929901
vt 0.728618 0.958157
vt 0.728722 0.761278
vt 0.784117 0.929236
vt 0.785118 0.957531
vt 0.786037 0.986432
vt 0.785113 0.790155
vt 0.784055 0.818551
vt 0.783263 0.846259
vt 0.782846 0.873911
vt 0.783102 0.901311
vt 0.860595 0.793895
vt 0.860595 0.761278
vt 0.878917 0.980595
vt 0.872344 0.796843
vt 0.860595 0.953808
vt 0.871821 0.950893
vt 0.860595 0.925910
vt 0.870686 0.924681
vt 0.860595 0.899638
vt 0.870550 0.899156
vt 0.860595 0.873918
vt 0.870683 0.873635
vt 0.860595 0.848180
vt 0.870504 0.848495
vt 0.860595 0.821752
vt 0.870682 0.823058
vt 0.903692 0.789437
vt 0.897280 0.806192
vt 0.897074 0.941460
vt 0.895393 0.920726
vt 0.895268 0.897600
vt 0.895375 0.873819
vt 0.895315 0.849941
vt 0.895454 0.826948
vt 0.284363 0.475863
vt 0.239466 0.475882
vt 0.282318 0.460615
vt 0.295665 0.466167
vt 0.294813 0.475835
vt 0.295465 0.032717
vt 0.301548 0.023294
vt 0.306934 0.509521
vt 0.300188 0.447969
vt 0.297196 0.456874
vt 0.293314 0.064404
vt 0.294180 0.048482
vt 0.282343 0.491072
vt 0.341278 0.036705
vt 0.295675 0.485495
vt 0.312735 0.022671
vt 0.300217 0.503593
vt 0.299718 0.019907
vt 0.311422 0.018870
vt 0.327018 0.029528
vt 0.330046 0.026719
vt 0.347739 0.035352
vt 0.470248 0.315992
vt 0.440354 0.088149
vt 0.491482 0.304132
vt 0.297225 0.494761
vt 0.297756 0.016984
vt 0.289572 0.027136
vt 0.220165 0.011836
vt 0.084715 0.074879
vt 0.371371 0.042740
vt 0.283609 0.093460
vt 0.252052 0.171278
vt 0.088215 0.322803
vt 0.039273 0.309014
vt 0.035674 0.292245
vt 0.349615 0.031455
vt 0.284603 0.069001
vt 0.200799 0.019659
vt 0.285949 0.049053
vt 0.488285 0.347995
vt 0.449674 0.328289
vt 0.288256 0.175942
vt 0.293942 0.098167
vt 0.279254 0.178498
vt 0.285773 0.093559
vt 0.487202 0.355321
vt 0.444117 0.331648
vt 0.496361 0.354019
vt 0.486831 0.357701
vt 0.493846 0.351709
vt 0.288897 0.069316
vt 0.292851 0.029672
vt 0.290349 0.049697
vt 0.496668 0.300682
vt 0.447275 0.081616
vt 0.493082 0.315369
vt 0.370279 0.044802
vt 0.490283 0.320529
vt 0.370175 0.054182
vt 0.495442 0.321500
vt 0.351456 0.475684
vt 0.351190 0.468241
vt 0.361629 0.467690
vt 0.362190 0.475818
vt 0.350545 0.460364
vt 0.359648 0.459484
vt 0.349592 0.451797
vt 0.356820 0.451079
vt 0.349370 0.509333
vt 0.355186 0.509333
vt 0.349577 0.499691
vt 0.356854 0.500367
vt 0.350532 0.491274
vt 0.359656 0.491972
vt 0.351281 0.483549
vt 0.361571 0.483678
vt 0.312571 0.467017
vt 0.310945 0.475879
vt 0.316151 0.458605
vt 0.320020 0.450687
vt 0.322739 0.509333
vt 0.320116 0.501050
vt 0.316195 0.493081
vt 0.312599 0.484705
vt 0.338306 0.467767
vt 0.337704 0.475819
vt 0.339950 0.459811
vt 0.342150 0.451342
vt 0.343740 0.509333
vt 0.342167 0.500144
vt 0.339999 0.491773
vt 0.338372 0.483800
vt 0.035757 0.313812
vt 0.377362 0.500022
vt 0.377362 0.491366
vt 0.377362 0.483337
vt 0.377369 0.475771
vt 0.377365 0.468213
vt 0.377362 0.460165
vt 0.377359 0.451530
vt 0.377361 0.509333
vt 0.288105 0.508915
vt 0.278043 0.506649
vt 0.296549 0.519506
vt 0.307080 0.426942
vt 0.343897 0.096666
vt 0.288028 0.442748
vt 0.277985 0.445060
vt 0.296413 0.432118
vt 0.377361 0.442165
vt 0.355176 0.442165
vt 0.349356 0.442165
vt 0.343726 0.442165
vt 0.322737 0.442165
vt 0.306871 0.442034
vt 0.307248 0.524614
vt 0.497559 0.316641
vt 0.498787 0.300399
vt 0.498642 0.322507
vt 0.046340 0.346103
vt 0.442834 0.333160
vt 0.183000 0.028056
vt 0.331710 0.022571
vt 0.243355 0.062946
vt 0.241693 0.043328
vt 0.310897 0.014825
vt 0.238910 0.022677
vt 0.232196 0.012887
vt 0.161092 0.038535
vt 0.449051 0.080446
vt 0.037505 0.343535
vt 0.245349 0.087122
vt 0.277380 0.179386
vt 0.878943 0.767179
vt 0.903387 0.958254
vt 0.786017 0.761278
vt 0.860595 0.986432
vt 0.728779 0.986432
vt 0.678045 0.986432
vt 0.510381 0.981596
vt 0.526232 0.986432
vt 0.583854 0.761278
vt 0.476241 0.915596
vt 0.475458 0.888238
vt 0.475813 0.859763
vt 0.476100 0.831194
vt 0.477301 0.803878
vt 0.479475 0.779619
vt 0.479377 0.968029
vn 0.689968 -0.166222 -0.704496
vn 0.001239 -0.166964 -0.985962
vn -0.000911 -0.011064 -0.999938
vn 0.703237 -0.009649 -0.710890
vn -0.691599 -0.166729 -0.702774
vn -0.703548 -0.009536 -0.710584
vn -0.986080 -0.166259 0.002187
vn -0.999969 -0.007755 0.001063
vn -0.697763 -0.166137 0.696796
vn -0.707583 -0.007844 0.706587
vn 0.000142 -0.165909 0.986141
vn -0.000200 -0.007457 0.999972
vn 0.697320 -0.167156 0.696997
vn 0.708077 -0.007738 0.706092
vn 0.986137 -0.165932 -0.000047
vn 0.999968 -0.008060 -0.000155
vn 0.706899 0.037232 0.706334
vn 0.000748 0.037266 0.999305
vn -0.707061 0.037246 0.706171
vn -0.999304 0.037304 0.000420
vn -0.705528 0.036982 -0.707717
vn 0.000345 0.036425 -0.999336
vn 0.705142 0.036736 -0.708114
vn 0.999311 0.037127 0.000001
vn 0.400132 -0.817082 -0.415057
vn -0.004197 -0.804359 -0.594129
vn -0.403644 -0.816171 -0.413444
vn -0.572672 -0.819782 0.002145
vn -0.402452 -0.821434 0.404077
vn 0.001043 -0.819023 0.573760
vn 0.405709 -0.820940 0.401818
vn 0.572805 -0.819689 -0.002105
vn 0.000300 -0.999998 -0.002083
vn 0.705418 0.076706 -0.704628
vn 0.997046 0.076803 -0.000234
vn 0.705053 0.076924 0.704970
vn 0.001627 0.076892 0.997038
vn -0.705601 0.076717 0.704444
vn -0.997028 0.077034 0.000340
vn -0.703479 0.076656 -0.706570
vn 0.001011 0.076250 -0.997088
vn -0.995442 0.095359 -0.001221
vn -0.702600 0.095527 -0.705144
vn 0.001284 0.095398 -0.995438
vn 0.704634 0.095408 -0.703127
vn 0.995420 0.095594 0.000712
vn 0.701356 0.097145 0.706160
vn 0.000661 0.098143 0.995172
vn -0.703649 0.097004 0.703895
vn 0.700228 0.145336 -0.698969
vn 0.000320 0.145689 -0.989330
vn 0.003106 0.776633 -0.629945
vn 0.446457 0.775719 -0.446024
vn -0.697700 0.145388 -0.701482
vn -0.444698 0.776816 -0.445871
vn -0.989404 0.145174 -0.002282
vn -0.629796 0.776760 0.000849
vn -0.699350 0.147275 0.699442
vn -0.446010 0.766286 0.462473
vn -0.001183 0.146155 0.989261
vn 0.002193 0.752766 0.658284
vn 0.695868 0.146616 0.703044
vn 0.448965 0.765360 0.461145
vn 0.989328 0.145703 -0.000295
vn 0.633072 0.774093 -0.000010
vn -0.003450 0.941637 -0.336612
vn 0.238771 0.942094 -0.235471
vn -0.241253 0.940468 -0.239408
vn -0.338728 0.940884 0.001186
vn -0.237593 0.940932 0.241239
vn 0.000101 0.940598 0.339521
vn 0.239515 0.940760 0.240009
vn 0.338717 0.940884 0.002998
vn -0.000066 0.354312 0.935127
vn -0.000403 0.303272 0.952904
vn -0.531565 0.206604 0.821434
vn -0.685714 0.587255 0.430034
vn 0.000658 0.839484 0.543383
vn -0.484132 -0.599678 0.637183
vn 0.000260 -0.710053 0.704148
vn -0.000530 -0.923190 0.384343
vn -0.651633 -0.659369 0.374976
vn -0.871237 -0.180750 0.456372
vn -0.600800 0.089145 0.794413
vn -0.667164 -0.254870 0.699952
vn 0.531908 0.206059 0.821349
vn 0.600727 0.088449 0.794547
vn 0.687241 0.585441 0.430069
vn 0.484193 -0.598826 0.637938
vn 0.654153 -0.657051 0.374657
vn 0.152816 -0.166403 0.974144
vn 0.002066 -0.194076 0.980984
vn 0.017708 -0.832911 0.553124
vn 0.594953 -0.643664 0.481380
vn 0.160351 -0.122542 0.979424
vn 0.674445 -0.491823 0.550667
vn 0.047736 -0.022037 0.998617
vn 0.521509 -0.313437 0.793590
vn 0.001208 0.001227 0.999999
vn 0.001061 0.001040 0.999999
vn 0.055901 0.005498 0.998421
vn 0.030202 0.009697 0.999497
vn 0.871561 -0.181305 0.455532
vn 0.667132 -0.254814 0.700003
vn -0.000271 -0.025578 -0.999673
vn -0.001567 -0.013189 -0.999912
vn -0.001567 -0.013184 -0.999912
vn -0.000639 -0.000231 -1.000000
vn -0.000644 -0.001415 -0.999999
vn -0.000644 -0.001414 -0.999999
vn -0.000639 -0.000232 -1.000000
vn -0.000704 -0.000112 -1.000000
vn -0.005283 -0.009159 -0.999944
vn -0.000653 -0.000170 -1.000000
vn -0.000881 -0.005211 -0.999986
vn -0.000881 -0.005225 -0.999986
vn -0.000968 0.003329 -0.999994
vn -0.000968 0.003322 -0.999994
vn -0.067234 0.142601 0.987494
vn -0.036210 0.013533 0.999253
vn -0.056645 0.005433 0.998380
vn -0.067986 -0.043199 0.996751
vn -0.046927 -0.021382 0.998670
vn -0.600086 0.031589 0.799312
vn -0.475809 -0.308878 0.823529
vn -0.508206 0.396819 0.764370
vn -0.543159 0.187631 0.818397
vn -0.940856 0.338785 -0.003928
vn -0.998150 0.049182 -0.035758
vn -0.820382 -0.567914 -0.066693
vn 0.714043 0.682621 0.155468
vn -0.799984 0.599249 0.030442
vn 0.515746 0.509373 0.688872
vn -0.818766 -0.573635 -0.023760
vn -0.520320 -0.313737 0.794252
vn -0.672346 -0.739824 0.024730
vn -0.592877 -0.642430 0.485573
vn -0.676487 -0.491365 0.548567
vn -0.806179 -0.591672 0.000077
vn -0.149432 -0.113610 0.982223
vn -0.139522 -0.156944 0.977703
vn -0.025058 -0.998366 0.051355
vn 0.996337 0.057467 -0.063327
vn 0.941412 0.336367 -0.024503
vn 0.536589 0.178407 0.824769
vn 0.598082 0.026823 0.800986
vn 0.910827 0.405875 -0.075233
vn 0.738218 0.511622 0.439632
vn 0.817891 -0.565926 -0.103841
vn 0.484745 -0.315194 0.815889
vn 0.091296 0.050655 0.994535
vn 0.670142 -0.742161 0.010300
vn 0.805729 -0.592271 0.003969
vn 0.067473 -0.042910 0.996798
vn 0.585949 0.293452 0.755348
vn 0.002274 0.637858 0.770151
vn -0.564290 0.537580 0.626566
vn -0.653473 0.131380 0.745461
vn 0.000530 0.167713 0.985836
vn -0.966506 0.183750 0.179171
vn -0.995030 0.031868 0.094341
vn -0.817655 -0.404844 -0.409318
vn -0.748381 -0.086785 -0.657567
vn 0.000658 -0.737645 -0.675188
vn 0.001252 -0.136421 -0.990650
vn 0.814351 -0.408706 -0.412058
vn 0.748919 -0.087311 -0.656884
vn 0.969623 0.175644 0.170235
vn 0.995025 0.029950 0.095021
vn 0.569665 0.532677 0.625889
vn 0.652595 0.133061 0.745932
vn -0.688693 0.722932 0.055418
vn 0.003837 0.997411 0.071804
vn -0.999371 -0.014424 0.032384
vn -0.681697 -0.730800 0.034926
vn -0.000746 -0.999089 0.042673
vn 0.682555 -0.730008 0.034747
vn 0.999328 -0.016839 0.032548
vn 0.693712 0.718105 0.055582
vn -0.593145 0.787077 0.169379
vn 0.006259 0.975334 0.220644
vn -0.983696 0.174410 0.043852
vn -0.757442 -0.652231 -0.029604
vn -0.002977 -0.999928 -0.011673
vn 0.756937 -0.652885 -0.028051
vn 0.984616 0.169429 0.042728
vn 0.597923 0.782634 0.173125
vn 0.820229 -0.571736 -0.018531
vn 0.719301 -0.025798 -0.694219
vn 0.001043 -0.035959 -0.999353
vn -0.719980 -0.025796 -0.693515
vn -0.999332 0.003088 0.036428
vn -0.685345 0.036745 0.727291
vn -0.001480 0.051172 0.998689
vn 0.688975 0.036379 0.723871
vn 0.999290 0.003608 0.037506
vn 0.861690 0.485429 0.147816
vn -0.006036 -0.000153 -0.999982
vn -0.005060 -0.003230 -0.999982
vn -0.005060 -0.003230 -0.999982
s 1
g Trowel_LOD0
f 1/1/1 2/2/2 14/216/3 15/4/4
f 2/215/2 3/5/5 13/6/6 14/3/3
f 3/5/5 4/7/7 12/8/8 13/6/6
f 4/7/7 5/9/9 11/10/10 12/8/8
f 5/9/9 6/11/11 10/12/12 11/10/10
f 6/11/11 7/13/13 9/14/14 10/12/12
f 7/13/13 8/15/15 16/16/16 9/14/14
f 16/16/16 8/15/15 1/1/1 15/4/4
f 10/12/12 9/14/14 36/17/17 37/18/18
f 11/10/10 10/12/12 37/18/18 38/19/19
f 12/8/8 11/10/10 38/19/19 39/20/20
f 13/6/6 12/8/8 39/20/20 40/21/21
f 14/3/3 13/6/6 40/21/21 41/213/22
f 15/4/4 14/216/3 41/22/22 34/23/23
f 16/16/16 15/4/4 34/23/23 35/24/24
f 36/17/17 9/14/14 16/16/16 35/24/24
f 2/2/2 1/1/1 25/25/25 26/26/26
f 3/5/5 2/215/2 26/214/26 27/27/27
f 4/7/7 3/5/5 27/27/27 28/28/28
f 5/9/9 4/7/7 28/28/28 29/29/29
f 6/11/11 5/9/9 29/29/29 30/30/30
f 7/13/13 6/11/11 30/30/30 31/31/31
f 8/15/15 7/13/13 31/31/31 32/32/32
f 1/1/1 8/15/15 32/32/32 25/25/25
f 26/26/26 25/25/25 33/222/33
f 25/25/25 32/32/32 33/221/33
f 32/32/32 31/31/31 33/220/33
f 31/31/31 30/30/30 33/219/33
f 30/30/30 29/29/29 33/218/33
f 29/29/29 28/28/28 33/217/33
f 28/28/28 27/27/27 33/33/33
f 27/27/27 26/214/26 33/223/33
f 35/24/24 34/23/23 45/34/34 46/35/35
f 47/36/36 36/17/17 35/24/24 46/35/35
f 37/18/18 36/17/17 47/36/36 48/37/37
f 38/19/19 37/18/18 48/37/37 49/38/38
f 39/20/20 38/19/19 49/38/38 42/39/39
f 40/21/21 39/20/20 42/39/39 43/40/40
f 41/213/22 40/21/21 43/40/40 44/212/41
f 34/23/23 41/22/22 44/41/41 45/34/34
f 43/40/40 42/39/39 18/42/42 19/43/43
f 44/212/41 43/40/40 19/43/43 20/44/44
f 45/34/34 44/41/41 20/210/44 21/45/45
f 46/35/35 45/34/34 21/45/45 22/46/46
f 23/47/47 47/36/36 46/35/35 22/46/46
f 48/37/37 47/36/36 23/47/47 24/48/48
f 49/38/38 48/37/37 24/48/48 17/49/49
f 42/39/39 49/38/38 17/49/49 18/42/42
f 50/50/50 51/51/51 59/208/52 58/53/53
f 51/211/51 52/54/54 60/55/55 59/52/52
f 52/54/54 53/56/56 61/57/57 60/55/55
f 53/56/56 54/58/58 62/59/59 61/57/57
f 54/58/58 55/60/60 63/61/61 62/59/59
f 55/60/60 56/62/62 64/63/63 63/61/61
f 56/62/62 57/64/64 65/65/65 64/63/63
f 57/64/64 50/50/50 58/53/53 65/65/65
f 58/53/53 59/208/52 154/66/66 153/67/67
f 59/52/52 60/55/55 155/68/68 154/209/66
f 60/55/55 61/57/57 156/69/69 155/68/68
f 61/57/57 62/59/59 157/70/70 156/69/69
f 62/59/59 63/61/61 158/71/71 157/70/70
f 63/61/61 64/63/63 159/72/72 158/71/71
f 64/63/63 65/65/65 160/73/73 159/72/72
f 65/65/65 58/53/53 153/67/67 160/73/73
f 50/50/50 57/64/64 22/46/46 21/45/45
f 57/64/64 56/62/62 23/47/47 22/46/46
f 56/62/62 55/60/60 24/48/48 23/47/47
f 55/60/60 54/58/58 17/49/49 24/48/48
f 54/58/58 53/56/56 18/42/42 17/49/49
f 53/56/56 52/54/54 19/43/43 18/42/42
f 52/54/54 51/211/51 20/44/44 19/43/43
f 51/51/51 50/50/50 21/45/45 20/210/44
s 2
f 70/74/74 67/75/75 71/76/76
f 70/74/74 71/76/76 72/77/77 73/78/78
f 69/183/79 66/179/80 74/189/81 75/82/82
f 71/76/76 77/83/83 72/77/77
f 68/182/84 76/181/85 77/83/83 71/76/76
f 69/183/79 75/82/82 77/83/83 76/181/85
f 67/75/75 79/86/86 78/177/87
f 70/74/74 73/78/78 80/88/88 79/86/86
f 81/178/89 82/90/90 74/81/81 66/190/80
s 4
f 81/89/91 66/80/92 105/91/93 112/92/94
f 83/93/95 81/89/91 112/92/94 148/94/96
f 78/87/97 83/93/95 148/94/96 152/95/98
f 102/96/99 67/180/100 111/97/101 106/98/102
s 2
f 79/86/86 80/88/88 84/99/103
f 78/177/87 79/86/86 84/99/103 83/176/104
f 81/178/89 83/176/104 84/99/103 82/90/90
s 6
f 90/202/105 88/201/106 94/102/107
f 93/103/108 91/203/109 87/206/110 85/106/111
f 86/107/112 165/108/113 92/109/114
f 92/109/114 93/103/108 85/106/111 86/107/112
f 87/206/110 91/203/109 150/196/115 149/198/116
f 146/112/117 94/102/107 88/201/106 145/199/118
s 4
f 103/114/119 95/115/120 102/96/99
f 102/96/99 95/115/120 96/116/121 67/180/100
f 67/180/100 100/117/122 68/84/123
f 97/118/124 99/119/125 100/117/122 96/116/121
f 103/114/119 162/120/126 98/121/127 95/115/120
f 86/195/128 85/207/129 97/118/124 98/121/127
f 85/207/129 87/105/130 99/119/125 97/118/124
f 89/122/131 161/123/132 162/120/126 104/124/133
f 98/121/127 97/118/124 96/116/121 95/115/120
f 99/119/125 87/105/130 149/111/134 151/125/135
f 68/84/123 100/117/122 99/119/125 151/125/135
f 88/101/136 101/126/137 147/127/138 145/113/139
f 76/85/140 147/127/138 101/126/137 69/79/141
f 69/79/141 101/126/137 105/91/93 66/80/92
f 105/91/93 101/126/137 88/101/136 90/100/142
f 93/204/143 92/192/144 109/128/145 110/129/146
f 92/192/144 165/191/147 166/130/148 109/128/145
f 91/104/149 93/204/143 110/129/146 108/131/150
f 103/114/119 102/96/99 167/132/151
f 94/200/152 146/197/153 148/94/96 112/92/94
f 110/129/146 111/97/101 107/133/154 108/131/150
f 110/129/146 109/128/145 106/98/102 111/97/101
f 164/134/155 167/132/151 166/130/148
f 105/91/93 90/100/142 94/200/152 112/92/94
s 2
f 137/135/156 138/136/157 117/137/158 118/138/159
f 138/136/157 139/139/160 116/140/161 117/137/158
f 139/139/160 140/141/162 115/142/163 116/140/161
f 140/141/162 141/186/164 114/185/165 115/142/163
f 141/143/164 142/145/166 113/146/167 114/144/165
f 142/145/166 143/147/168 120/148/169 113/146/167
f 143/147/168 144/149/170 119/150/171 120/148/169
f 144/149/170 137/135/156 118/138/159 119/150/171
f 122/151/172 121/152/173 73/78/78 72/77/77
f 123/153/174 122/151/172 72/77/77 77/83/83
f 124/154/175 123/153/174 77/83/83 75/82/82
f 125/188/176 124/154/175 75/82/82 74/189/81
f 126/156/177 125/155/176 74/81/81 82/90/90
f 127/157/178 126/156/177 82/90/90 84/99/103
f 128/158/179 127/157/178 84/99/103 80/88/88
f 73/78/78 121/152/173 128/158/179 80/88/88
f 130/159/180 129/160/181 121/152/173 122/151/172
f 131/161/182 130/159/180 122/151/172 123/153/174
f 132/162/183 131/161/182 123/153/174 124/154/175
f 133/187/184 132/162/183 124/154/175 125/188/176
f 134/164/185 133/163/184 125/155/176 126/156/177
f 135/165/186 134/164/185 126/156/177 127/157/178
f 136/166/187 135/165/186 127/157/178 128/158/179
f 121/152/173 129/160/181 136/166/187 128/158/179
f 129/160/181 130/159/180 138/136/157 137/135/156
f 130/159/180 131/161/182 139/139/160 138/136/157
f 131/161/182 132/162/183 140/141/162 139/139/160
f 132/162/183 133/187/184 141/186/164 140/141/162
f 133/163/184 134/164/185 142/145/166 141/143/164
f 134/164/185 135/165/186 143/147/168 142/145/166
f 135/165/186 136/166/187 144/149/170 143/147/168
f 136/166/187 129/160/181 137/135/156 144/149/170
s 6
f 149/198/116 150/196/115 146/112/117 145/199/118
s 4
f 145/113/139 147/127/138 151/125/135 149/111/134
f 68/84/123 151/125/135 147/127/138 76/85/140
f 148/94/96 146/197/153 150/110/188 152/95/98
f 152/95/98 150/110/188 91/104/149 108/131/150
s 2
f 153/168/189 154/175/190 114/144/165 113/146/167
f 154/184/190 155/174/191 115/142/163 114/185/165
f 155/174/191 156/173/192 116/140/161 115/142/163
f 156/173/192 157/172/193 117/137/158 116/140/161
f 157/172/193 158/171/194 118/138/159 117/137/158
f 158/171/194 159/170/195 119/150/171 118/138/159
f 159/170/195 160/169/196 120/148/169 119/150/171
f 160/169/196 153/168/189 113/146/167 120/148/169
s 4
f 107/133/154 78/87/97 152/95/98 108/131/150
f 111/97/101 67/180/100 107/133/154
f 107/133/154 67/180/100 78/87/97
f 67/180/100 96/116/121 100/117/122
s 2
f 70/74/74 79/86/86 67/75/75
f 71/76/76 67/75/75 68/182/84
s 4
f 161/123/132 86/195/128 98/121/127 162/120/126
f 163/193/197 89/122/131 104/124/133 164/134/155
f 165/191/147 163/193/197 164/134/155 166/130/148
f 104/124/133 162/120/126 103/114/119
f 104/124/133 103/114/119 167/132/151 164/134/155
f 166/130/148 167/132/151 106/98/102
f 167/132/151 102/96/99 106/98/102
s 6
f 86/107/112 163/167/198 165/108/113
f 89/205/199 163/167/198 86/107/112 161/194/200
s 4
f 166/130/148 106/98/102 109/128/145
