# This file uses centimeters as units for non-parametric coordinates.

v -0.000664 0.262543 -0.044044
v 0.009132 0.262426 -0.031854
v 0.013576 0.262369 -0.000004
v 0.009065 0.262371 0.031806
v -0.000580 -0.762759 -0.024340
v 0.001360 -0.769808 -0.018249
v 0.009022 -0.763353 -0.018905
v 0.009615 -0.769374 -0.010378
v 0.014286 -0.763571 -0.000096
v 0.009870 -0.769119 0.003160
v 0.009164 -0.763151 0.018583
v 0.006093 -0.769813 0.014902
v 0.010684 0.212869 -0.016975
v -0.000639 0.212001 -0.028831
v 0.010692 0.212852 0.017048
v 0.013519 0.212912 0.000008
v -0.000662 -0.642116 -0.022752
v 0.008647 -0.642131 -0.015976
v 0.013608 -0.642118 0.000002
v 0.009233 -0.642121 0.016335
v 0.013174 0.164195 -0.000016
v 0.009254 0.164194 -0.016289
v -0.000678 0.164127 -0.023743
v 0.009400 0.164193 0.016330
v 0.024282 0.403116 -0.088142
v 0.022529 0.296982 -0.057833
v 0.012078 0.405341 0.094876
v 0.038879 0.337902 -0.319476
v 0.038620 0.330334 -0.316741
v 0.029949 0.376295 -0.227554
v 0.031156 0.357338 -0.223814
v 0.025243 0.373738 -0.114457
v 0.000292 0.250914 0.174657
v 0.000277 0.406417 0.174570
v 0.021158 0.296350 -0.000869
v 0.009131 0.293805 0.031846
v 0.009209 0.294746 -0.031893
v 0.013606 0.294746 -0.000004
v -0.000662 0.292568 0.044171
v -0.000662 0.294747 -0.044164
v -0.000661 0.262684 0.044022
v -0.000712 0.212046 0.028844
v -0.000584 0.164135 0.023746
v -0.000662 -0.642116 0.022781
v -0.000737 -0.762592 0.024400
v -0.002989 -0.769787 0.018192
v -0.000049 0.277690 0.194147
v 0.000082 0.325216 0.203900
v 0.000199 0.385815 0.188106
v 0.000354 0.356487 0.198741
v 0.001708 0.374169 0.186737
v 0.015643 0.293764 0.058029
v 0.008563 0.276782 0.120685
v 0.023579 0.366812 -0.066199
v 0.024855 0.373931 -0.082980
v 0.023317 0.349948 -0.058075
v -0.010359 0.262428 -0.031818
v -0.012047 0.212863 -0.017001
v -0.014902 0.262369 -0.000004
v -0.014844 0.212912 0.000007
v -0.010481 0.262370 0.031837
v -0.011999 0.212857 0.017031
v -0.007002 -0.769855 -0.015078
v -0.010260 -0.763233 -0.018841
v -0.011873 -0.769248 -0.003742
v -0.015602 -0.763570 -0.000071
v -0.010810 -0.769421 0.010381
v -0.010572 -0.763289 0.018597
v -0.010549 -0.642125 -0.016322
v -0.014940 -0.642118 0.000002
v -0.009968 -0.642129 0.015968
v -0.010676 0.164193 -0.016413
v -0.010546 0.164197 0.016259
v -0.014509 0.164195 -0.000026
v -0.024923 0.349936 -0.058303
v -0.013545 0.405463 0.094892
v -0.016992 0.293734 0.058030
v -0.039924 0.333777 -0.330079
v -0.040914 0.328057 -0.326992
v -0.031379 0.376417 -0.227585
v -0.032651 0.357223 -0.223770
v -0.027122 0.373286 -0.114411
v -0.001376 0.406111 0.174415
v -0.002738 0.374139 0.186629
v -0.023884 0.296950 -0.057846
v -0.025850 0.403258 -0.088143
v -0.026372 0.373769 -0.082992
v -0.022312 0.296509 -0.000871
v -0.014929 0.294746 -0.000004
v -0.001747 0.250850 0.174651
v -0.001304 0.277669 0.194189
v -0.001395 0.325216 0.203887
v -0.001595 0.356451 0.198623
v -0.009939 0.276726 0.120669
v -0.001520 0.385816 0.188102
v -0.010540 0.293805 0.031874
v -0.010451 0.294746 -0.031864
v -0.024993 0.366768 -0.066264
v 0.019119 0.327310 -0.327355
v 0.018226 0.331099 -0.329619
v 0.035027 0.328569 -0.320620
v 0.035555 0.334526 -0.323965
v 0.024295 0.329502 -0.320502
v 0.024224 0.336955 -0.323247
v -0.000640 -0.771363 -0.000018
vt 0.089464 0.897611
vt 0.089468 0.930923
vt 0.076306 0.929841
vt 0.070785 0.897218
vt 0.051705 0.928859
vt 0.052004 0.896736
vt 0.027365 0.929929
vt 0.033038 0.897253
vt 0.164944 0.931279
vt 0.164944 0.897672
vt 0.086972 0.027043
vt 0.089539 0.035642
vt 0.069332 0.027343
vt 0.077153 0.033825
vt 0.049039 0.027246
vt 0.053863 0.032903
vt 0.031722 0.026897
vt 0.028996 0.033601
vt 0.154345 0.026076
vt 0.164944 0.033968
vt 0.089467 0.132526
vt 0.073881 0.132490
vt 0.051864 0.132443
vt 0.029703 0.132340
vt 0.164944 0.132512
vt 0.073211 0.857181
vt 0.089420 0.857214
vt 0.164944 0.857320
vt 0.030181 0.857175
vt 0.051803 0.857118
vt 0.506101 0.765612
vt 0.321835 0.832416
vt 0.684132 0.697864
vt 0.216961 0.628969
vt 0.292400 0.038892
vt 0.710066 0.796892
vt 0.705568 0.774043
vt 0.573913 0.794141
vt 0.225060 0.832416
vt 0.211237 0.793610
vt 0.700968 0.677942
vt 0.825771 0.706019
vt 0.542282 0.829491
vt 0.536085 0.794407
vt 0.282167 0.448739
vt 0.827269 0.745477
vt 0.756017 0.704838
vt 0.050465 0.947098
vt 0.212264 0.611424
vt 0.201817 0.604356
vt 0.276695 0.034671
vt 0.226575 0.646342
vt 0.203123 0.678232
vt 0.191122 0.734972
vt 0.196982 0.772390
vt 0.291492 0.677877
vt 0.364641 0.490681
vt 0.089546 0.947098
vt 0.716027 0.689997
vt 0.793873 0.689708
vt 0.515871 0.785871
vt 0.108205 0.897187
vt 0.102680 0.929801
vt 0.127028 0.896699
vt 0.127282 0.928795
vt 0.146005 0.897227
vt 0.151659 0.929976
vt 0.100504 0.027080
vt 0.102309 0.034642
vt 0.119368 0.027359
vt 0.125562 0.032787
vt 0.140052 0.027218
vt 0.149846 0.033419
vt 0.105189 0.132574
vt 0.127368 0.132622
vt 0.149358 0.132556
vt 0.105451 0.857223
vt 0.148580 0.857297
vt 0.127108 0.857197
vt 0.515497 0.916212
vt 0.727117 0.566034
vt 0.684045 0.658054
vt 0.203370 0.534539
vt 0.209124 0.448739
vt 0.214312 0.144704
vt 0.336537 0.544706
vt 0.220310 0.265229
vt 0.810504 0.944979
vt 0.391420 0.498058
vt 0.825722 0.649107
vt 0.479611 0.980346
vt 0.485764 0.944897
vt 0.584635 0.852150
vt 0.128470 0.947098
vt 0.795860 0.797499
vt 0.246364 0.498058
vt 0.310246 0.498058
vt 0.346608 0.498058
vt 0.730762 0.828778
vt 0.812490 0.958969
vt 0.152088 0.947098
vt 0.793839 0.665610
vt 0.505927 0.936463
vt 0.265262 0.448739
vt 0.072067 0.013772
vt 0.104275 0.947098
vt 0.715986 0.665704
vt 0.808860 0.677573
vt 0.754899 0.660079
vt 0.014022 0.947098
vt 0.754879 0.695401
vt 0.074666 0.947098
vt 0.026777 0.947098
vt 0.273503 0.434378
vt 0.264283 0.434378
vt 0.210134 0.625169
vt 0.507326 0.551279
vt 0.822374 0.580928
vt 0.188899 0.896391
vt 0.699869 0.983376
vt 0.312082 0.947935
vt 0.727049 0.597042
vt 0.507278 0.611347
vt 0.822550 0.583012
vt 0.820913 0.750082
vt 0.336524 0.618134
vt 0.273493 0.448739
vt 0.271006 0.026799
vt 0.288496 0.034203
vt 0.222132 0.340200
vt 0.222204 0.319340
vt 0.220873 0.299164
vt 0.205237 0.027364
vt 0.448014 0.944332
vt 0.223319 0.398264
vt 0.316624 0.924850
vt 0.275230 0.340615
vt 0.275717 0.319652
vt 0.277218 0.299442
vt 0.277729 0.265412
vt 0.817552 0.741001
vt 0.273337 0.398264
vt 0.284314 0.144652
vt 0.516154 0.852549
vt 0.607449 0.667571
vt 0.655514 0.849089
vt 0.755957 0.650792
vt 0.540442 0.676964
vt 0.607482 0.688599
vt 0.366583 0.698393
vt 0.540468 0.679242
vt 0.437375 0.701386
vt 0.505738 0.702056
vt 0.358190 0.498058
vt 0.824833 0.923792
vt 0.364641 0.498058
vt 0.830969 0.886407
vt 0.819260 0.829552
vt 0.796395 0.983376
vt 0.205297 0.498058
vt 0.310247 0.490681
vt 0.246365 0.490681
vt 0.358182 0.490681
vt 0.346604 0.490681
vt 0.209246 0.807588
vt 0.205297 0.490681
vt 0.391420 0.490681
vt 0.823596 0.738102
vt 0.282167 0.434378
vt 0.192550 0.889403
vt 0.209124 0.434378
vt 0.099097 0.011753
vt 0.114560 0.016927
vt 0.127349 0.017805
vt 0.137656 0.013413
vt 0.037877 0.012001
vt 0.046629 0.017057
vt 0.056669 0.018526
vt 0.021259 0.024086
vt 0.014022 0.033695
vt 0.014022 0.132292
vt 0.014022 0.857208
vt 0.014022 0.897706
vt 0.014022 0.931189
vt 0.164944 0.947098
vn 0.922232 -0.055745 -0.382598
vn 0.001861 -0.181225 -0.983440
vn -0.000692 -0.164503 -0.986376
vn 0.929701 -0.054868 -0.364205
vn 0.999931 -0.011738 -0.000550
vn 0.999990 -0.004516 0.000365
vn 0.921936 -0.054655 0.383467
vn 0.929784 -0.055283 0.363932
vn -0.001643 -0.181608 0.983370
vn 0.000836 -0.166393 0.986059
vn 0.848851 -0.016085 -0.528387
vn 0.630754 -0.745404 -0.215692
vn 0.122265 -0.833566 -0.538720
vn 0.010535 -0.017463 -0.999792
vn 0.999822 -0.014917 -0.011534
vn 0.684476 -0.724352 0.082497
vn 0.849990 -0.021003 0.526380
vn 0.494407 -0.787105 0.368819
vn -0.011586 -0.017738 0.999776
vn -0.123768 -0.828872 0.545576
vn 0.856071 0.001018 0.516858
vn -0.011074 0.001535 0.999938
vn 0.999937 0.000902 -0.011176
vn 0.855156 0.001157 -0.518370
vn 0.011497 0.001525 -0.999933
vn 0.999942 -0.001104 -0.010754
vn 0.857656 -0.002773 -0.514217
vn 0.011445 -0.005421 -0.999920
vn -0.010546 -0.005436 0.999930
vn 0.858666 -0.002376 0.512531
vn 0.997604 0.017663 0.066883
vn 0.993355 0.007365 0.114853
vn 0.994798 -0.001852 0.101848
vn 0.998035 0.019604 0.059516
vn 0.997558 0.020057 0.066906
vn 0.998222 0.022413 0.055238
vn 0.999606 -0.014754 0.023889
vn 0.998094 0.034277 0.051320
vn 0.997775 0.042341 0.051508
vn 0.997490 0.044400 0.055161
vn 0.998179 0.033275 0.050313
vn 0.998867 0.024953 0.040526
vn 0.005137 -0.992717 0.120362
vn 0.004722 -0.991560 -0.129566
vn 0.004731 -0.991684 -0.128614
vn 0.005136 -0.992704 0.120465
vn 0.817163 -0.275215 -0.506460
vn 0.817163 -0.275215 -0.506460
vn 0.142431 -0.989552 -0.022365
vn 0.157722 -0.987336 -0.017070
vn 0.159129 -0.987124 -0.016238
vn 0.012060 -0.974656 -0.223384
vn 0.004644 0.921362 -0.388679
vn 0.038538 0.717394 -0.695601
vn -0.004572 0.922408 -0.386191
vn -0.001665 -0.960818 0.277175
vn -0.003205 -0.961185 0.275885
vn -0.071469 -0.881264 0.467190
vn 0.002370 -0.979990 0.199033
vn 0.001890 -0.980391 0.197052
vn 0.002685 -0.952778 -0.303655
vn 0.005768 -0.901752 -0.432215
vn 0.005768 -0.901752 -0.432215
vn 0.002687 -0.952761 -0.303710
vn 0.028860 -0.458836 0.888052
vn -0.027374 0.020157 0.999422
vn 0.029200 -0.459678 0.887605
vn -0.027626 0.020143 0.999415
vn -0.037832 0.398420 0.916422
vn -0.037826 0.398863 0.916230
vn 0.024264 -0.588516 0.808122
vn 0.024264 -0.588516 0.808122
vn -0.057880 0.240746 0.968861
vn -0.088890 0.552246 0.828929
vn -0.088890 0.552246 0.828929
vn -0.058095 0.242775 0.968342
vn 0.001538 -0.004320 0.999990
vn 0.955379 -0.001991 0.295377
vn 0.999998 -0.001669 -0.001148
vn 0.951617 -0.002050 -0.307280
vn -0.001611 -0.004174 -0.999990
vn -0.030902 0.351437 0.935701
vn -0.030872 0.350122 0.936195
vn -0.009382 -0.974604 -0.223737
vn 0.991994 0.011464 0.125764
vn 0.992801 -0.005187 0.119665
vn 0.998061 0.038422 0.048962
vn 0.994627 0.001060 0.103520
vn 0.994569 -0.004507 0.103984
vn 0.992461 -0.037105 0.116808
vn 0.990476 -0.072555 0.117014
vn 0.979822 0.107138 0.168733
vn 0.148938 -0.988661 -0.019173
vn 0.087253 -0.993596 -0.071790
vn 0.002757 -0.730682 -0.682713
vn 0.002757 -0.730407 -0.683007
vn 0.002715 -0.122727 -0.992437
vn 0.002715 -0.122604 -0.992452
vn 0.998552 0.027783 0.046073
vn -0.922110 -0.054482 -0.383073
vn -0.929640 -0.054264 -0.364452
vn -0.999930 -0.011802 0.000638
vn -0.999989 -0.004433 -0.001648
vn -0.922013 -0.056049 0.383079
vn -0.930017 -0.055538 0.363295
vn -0.493470 -0.782259 -0.380208
vn -0.847770 -0.018985 -0.530024
vn -0.689130 -0.717415 -0.102054
vn -0.999886 -0.014388 0.004628
vn -0.632974 -0.740235 0.226707
vn -0.851212 -0.015353 0.524597
vn -0.855072 0.000986 -0.518508
vn -0.999950 0.000901 0.009997
vn -0.855006 0.001197 0.518617
vn -0.857702 -0.002404 -0.514141
vn -0.857322 -0.002791 0.514773
vn -0.999945 -0.001114 0.010468
vn -0.997516 0.057391 0.040836
vn -0.997659 0.055022 0.040599
vn -0.993674 0.102749 0.045322
vn -0.993674 0.102749 0.045322
vn -0.998729 0.033433 0.037703
vn -0.998212 0.022813 0.055254
vn 0.002548 -0.006583 -0.999975
vn 0.002548 -0.006583 -0.999975
vn -0.013489 -0.490269 -0.871467
vn -0.013489 -0.490269 -0.871467
vn 0.106631 -0.472246 -0.874993
vn 0.161506 -0.461585 -0.872270
vn 0.004725 0.966361 -0.257146
vn 0.003130 0.966781 -0.255586
vn 0.002891 0.993952 -0.109781
vn 0.002891 0.993947 -0.109820
vn 0.002265 0.999926 -0.011948
vn 0.002267 0.999926 -0.011948
vn -0.006678 0.999919 -0.010808
vn -0.006678 0.999919 -0.010808
vn -0.169707 -0.985376 -0.015313
vn -0.090398 -0.993391 -0.070728
vn -0.156180 -0.987578 -0.017273
vn -0.168688 -0.985533 -0.016425
vn -0.955436 -0.001848 0.295194
vn -0.999991 -0.001687 -0.003933
vn -0.951625 -0.002243 -0.307253
vn -0.994999 -0.002246 0.099859
vn -0.992642 -0.004983 0.120982
vn -0.993077 0.006240 0.117299
vn -0.997905 0.040514 0.050444
vn -0.988868 0.087963 0.120012
vn -0.991384 0.011634 0.130472
vn -0.995003 0.006734 0.099619
vn -0.994615 -0.002559 0.103611
vn -0.992492 -0.035570 0.117020
vn -0.990699 -0.069069 0.117239
vn 0.000510 -0.994046 -0.108962
vn -0.153669 -0.987847 -0.023335
vn 0.000833 -0.999776 0.021129
vn -0.998130 0.027218 0.054734
vn -0.997579 0.019310 0.066814
vn -0.997977 0.018163 0.060929
vn 0.299514 -0.364548 -0.881701
vn 0.295039 -0.365424 -0.882846
vn -0.096676 -0.408799 -0.907490
vn -0.096676 -0.408799 -0.907490
vn 0.009477 0.924158 -0.381894
vn 0.119305 0.748979 -0.651764
vn 0.003429 -0.999993 0.001403
vn -0.005798 -0.962130 0.272529
vn -0.009946 -0.950181 0.311539
vn -0.997573 0.013714 0.068268
vn -0.999436 -0.019344 0.027439
s 1
g WoodAxe_LOD1
f 13/4/1 14/1/2 1/2/3 2/3/4
f 16/6/5 13/4/1 2/3/4 3/5/6
f 15/8/7 16/6/5 3/5/6 4/7/8
f 42/183/9 15/8/7 4/7/8 41/184/10
f 7/14/11 8/13/12 6/11/13 5/12/14
f 9/16/15 10/15/16 8/13/12 7/14/11
f 11/18/17 12/17/18 10/15/16 9/16/15
f 45/180/19 46/179/20 12/17/18 11/18/17
f 45/180/19 11/18/17 20/24/21 44/181/22
f 11/18/17 9/16/15 19/23/23 20/24/21
f 9/16/15 7/14/11 18/22/24 19/23/23
f 7/14/11 5/12/14 17/21/25 18/22/24
f 21/30/26 22/26/27 13/4/1 16/6/5
f 22/26/27 23/27/28 14/1/2 13/4/1
f 43/182/29 24/29/30 15/8/7 42/183/9
f 24/29/30 21/30/26 16/6/5 15/8/7
f 18/22/24 22/26/27 21/30/26 19/23/23
f 23/27/28 22/26/27 18/22/24 17/21/25
f 20/24/21 24/29/30 43/182/29 44/181/22
f 19/23/23 21/30/26 24/29/30 20/24/21
s 3
f 35/152/31 27/32/32 52/150/33
f 56/31/34 27/32/32 35/152/31
f 27/32/32 54/61/35 25/43/36
f 27/32/32 56/31/34 54/61/35
f 35/152/31 26/153/37 56/31/34
f 31/37/38 29/141/39 28/125/40 30/36/41
f 32/38/42 31/37/38 30/36/41 25/43/36
s 5
f 32/140/43 55/139/44 87/132/45 82/87/46
s 3
f 101/168/47 102/46/48 28/125/40 29/141/39
s 6
f 36/59/49 38/111/50 35/47/51 52/33/52
s 7
f 104/49/53 100/50/54 78/83/55
s 5
f 29/35/56 103/51/57 101/129/58
f 31/143/59 32/140/43 82/87/46 81/85/60
s 6
f 53/149/61 33/151/62 90/148/63 94/145/64
s 10
f 47/162/65 92/97/66 91/96/67
f 48/161/68 50/164/69 93/98/70 92/97/66
f 33/166/71 47/162/65 91/96/67 90/160/72
f 49/57/73 34/167/74 83/89/75 95/156/76
s 1
f 39/110/77 41/184/10 4/7/8 36/113/78
f 38/48/79 36/113/78 4/7/8 3/5/6
f 37/112/80 38/48/79 3/5/6 2/3/4
f 37/112/80 2/3/4 1/2/3 40/58/81
s 10
f 51/163/82 49/57/73 95/156/76 84/154/83
f 50/164/69 51/163/82 84/154/83 93/98/70
s 6
f 52/33/52 53/149/61 94/145/64 77/82/84
s 3
f 27/32/32 34/39/85 53/56/86
f 34/39/85 51/40/87 53/56/86
f 51/40/87 50/55/88 53/56/86
f 50/55/88 48/54/89 53/56/86
f 48/54/89 47/53/90 53/56/86
f 47/53/90 33/52/91 53/56/86
f 51/40/87 34/39/85 49/165/92
s 6
f 37/60/93 26/42/94 35/47/51 38/111/50
s 5
f 55/139/44 54/138/95 98/131/96 87/132/45
f 54/138/95 56/137/97 75/130/98 98/131/96
s 3
f 25/43/36 55/44/99 32/38/42
f 55/44/99 25/43/36 54/61/35
s 1
f 58/62/100 57/63/101 1/2/3 14/1/2
f 60/64/102 59/65/103 57/63/101 58/62/100
f 62/66/104 61/67/105 59/65/103 60/64/102
f 42/10/9 41/9/10 61/67/105 62/66/104
f 5/12/14 6/11/13 63/68/106 64/69/107
f 64/69/107 63/68/106 65/70/108 66/71/109
f 66/71/109 65/70/108 67/72/110 68/73/111
f 68/73/111 67/72/110 46/19/20 45/20/19
f 64/69/107 69/74/112 17/21/25 5/12/14
f 66/71/109 70/75/113 69/74/112 64/69/107
f 68/73/111 71/76/114 70/75/113 66/71/109
f 45/20/19 44/25/22 71/76/114 68/73/111
f 72/77/115 58/62/100 14/1/2 23/27/28
f 43/28/29 42/10/9 62/66/104 73/78/116
f 73/78/116 62/66/104 60/64/102 74/79/117
f 74/79/117 60/64/102 58/62/100 72/77/115
f 23/27/28 17/21/25 69/74/112 72/77/115
f 69/74/112 70/75/113 74/79/117 72/77/115
f 70/75/113 71/76/114 73/78/116 74/79/117
f 71/76/114 44/25/22 43/28/29 73/78/116
s 14
f 81/136/118 80/121/119 78/119/120 79/170/121
f 82/134/122 86/91/123 80/121/119 81/136/118
s 5
f 56/137/97 26/142/124 85/135/125 75/130/98
s 15
f 79/84/126 78/171/127 100/115/128 99/104/129
s 7
f 30/126/130 80/86/131 86/117/132 25/123/133
f 27/122/134 76/81/135 83/118/136 34/124/137
f 25/123/133 86/117/132 76/81/135 27/122/134
s 6
f 88/147/138 85/90/139 97/102/140 89/109/141
s 1
f 39/185/77 96/101/142 61/67/105 41/9/10
f 96/101/142 89/94/143 59/65/103 61/67/105
f 89/94/143 97/106/144 57/63/101 59/65/103
f 40/58/81 1/2/3 57/63/101 97/106/144
s 14
f 77/146/145 94/99/146 76/120/147
f 84/88/148 95/100/149 83/159/150
f 76/120/147 94/99/146 83/159/150
f 83/159/150 94/99/146 84/88/148
f 84/88/148 94/99/146 93/155/151
f 93/155/151 94/99/146 92/157/152
f 92/157/152 94/99/146 91/158/153
f 91/158/153 94/99/146 90/95/154
s 6
f 40/108/155 85/90/139 26/42/94
f 77/82/84 96/107/156 39/41/157
s 14
f 86/91/123 82/134/122 87/92/158
f 76/120/147 98/103/159 75/80/160
s 15
f 103/127/161 104/114/162 102/169/163 101/45/164
f 99/104/129 100/115/128 104/114/162 103/127/161
s 7
f 104/49/53 28/34/165 102/116/166
s 5
f 103/51/57 29/35/56 31/143/59 81/85/60
s 1
f 63/68/106 105/173/167 65/70/108
f 10/15/16 12/17/18 105/177/167
f 105/176/167 12/17/18 46/179/20
f 105/175/167 46/19/20 67/72/110
f 105/174/167 67/72/110 65/70/108
f 6/11/13 105/172/167 63/68/106
f 8/13/12 105/105/167 6/11/13
f 10/15/16 105/178/167 8/13/12
s 7
f 104/49/53 78/83/55 80/86/131
s 5
f 103/51/57 79/133/168 99/128/169
s 7
f 104/49/53 80/86/131 30/126/130 28/34/165
s 5
f 103/51/57 81/85/60 79/133/168
s 10
f 47/162/65 48/161/68 92/97/66
s 6
f 40/108/155 26/42/94 37/60/93
f 40/108/155 97/102/140 85/90/139
f 77/82/84 39/41/157 52/33/52
f 89/109/141 96/107/156 77/82/84 88/147/138
f 52/33/52 39/41/157 36/59/49
s 14
f 88/93/170 75/80/160 85/144/171
s 3
f 52/150/33 27/32/32 53/56/86
s 14
f 98/103/159 76/120/147 86/91/123
f 76/120/147 88/93/170 77/146/145
f 76/120/147 75/80/160 88/93/170
f 98/103/159 86/91/123 87/92/158
